<?xml version="1.0" encoding="utf-8"?>
<!-- Generator: Adobe Illustrator 18.1.1, SVG Export Plug-In . SVG Version: 6.00 Build 0)  -->
<svg version="1.1" id="Layer_1" xmlns="http://www.w3.org/2000/svg" xmlns:xlink="http://www.w3.org/1999/xlink" x="0px" y="0px"
	 viewBox="0 0 100 100" enable-background="new 0 0 100 100" xml:space="preserve">
<g opacity="0.2">
	<defs>
		<rect id="SVGID_1_" x="0" opacity="0.2" width="100" height="100"/>
	</defs>
	<clipPath id="SVGID_2_">
		<use xlink:href="#SVGID_1_"  overflow="visible"/>
	</clipPath>
	<g clip-path="url(#SVGID_2_)">
		<g>
			<g>
				<polygon fill="#1E1E1E" points="-21.3,125.4 -14.1,125.4 -14.1,119.1 				"/>
				<polygon fill="#333333" points="-6.9,125.4 -14.1,125.4 -14.1,119.1 				"/>
			</g>
			<polygon fill="#1E1E1E" points="-6.9,125.4 -6.9,119.1 -14.1,119.1 			"/>
			<polygon fill="#303030" points="-6.9,112.8 -6.9,119.1 -14.1,119.1 			"/>
			<polygon fill="#3F3F3F" points="-6.9,112.8 -14.1,112.8 -14.1,119.1 			"/>
			<polygon fill="#1E1E1E" points="-14.1,119.1 -14.1,112.8 -21.3,112.8 			"/>
			<polygon fill="#333333" points="-21.3,112.8 -21.3,119.1 -14.1,119.1 			"/>
			<polygon fill="#565656" points="-21.3,125.4 -14.1,119.1 -21.3,119.1 			"/>
		</g>
		<g>
			<g>
				<line fill="#1E1E1E" x1="-28.4" y1="125.4" x2="-28.4" y2="119.1"/>
				<polygon fill="#171717" points="-21.3,125.4 -28.4,125.4 -28.4,119.1 				"/>
			</g>
			<polygon fill="#3D3D3D" points="-21.3,125.4 -21.3,119.1 -28.4,119.1 			"/>
			<polygon fill="#1E1E1E" points="-21.3,112.8 -21.3,119.1 -28.4,119.1 			"/>
			<polygon fill="#121212" points="-21.3,112.8 -28.4,112.8 -28.4,119.1 			"/>
			<line fill="#272727" x1="-28.4" y1="119.1" x2="-28.4" y2="112.8"/>
			<path fill="#444444" d="M-28.4,119.1"/>
			<path fill="#191919" d="M-28.4,119.1"/>
		</g>
		<g>
			<g>
				<polygon fill="#1E1E1E" points="7.5,125.4 14.6,125.4 14.7,119.1 				"/>
				<polygon fill="#333333" points="21.8,125.4 14.6,125.4 14.7,119.1 				"/>
			</g>
			<polygon fill="#1E1E1E" points="21.8,125.4 21.8,119.1 14.7,119.1 			"/>
			<polygon fill="#303030" points="21.8,112.9 21.8,119.1 14.7,119.1 			"/>
			<polygon fill="#212121" points="21.8,112.9 14.7,112.9 14.7,119.1 			"/>
			<polygon fill="#1E1E1E" points="14.7,119.1 14.7,112.9 7.5,112.8 			"/>
			<polygon fill="#333333" points="7.5,112.8 7.5,119.1 14.7,119.1 			"/>
			<polygon fill="#2D2D2D" points="7.5,125.4 14.7,119.1 7.5,119.1 			"/>
		</g>
		<g>
			<g>
				<polygon fill="#1E1E1E" points="-6.9,125.4 0.3,125.4 0.3,119.1 				"/>
				<polygon fill="#171717" points="7.5,125.4 0.3,125.4 0.3,119.1 				"/>
			</g>
			<polygon fill="#3D3D3D" points="7.5,125.4 7.5,119.1 0.3,119.1 			"/>
			<polygon fill="#1E1E1E" points="7.5,112.8 7.5,119.1 0.3,119.1 			"/>
			<polygon fill="#121212" points="7.5,112.8 0.3,112.8 0.3,119.1 			"/>
			<polygon fill="#272727" points="0.3,119.1 0.3,112.8 -6.9,112.8 			"/>
			<polygon fill="#161616" points="-6.9,112.8 -6.9,119.1 0.3,119.1 			"/>
			<polygon fill="#191919" points="-6.9,125.4 0.3,119.1 -6.9,119.1 			"/>
		</g>
		<g>
			<g>
				<polygon fill="#1E1E1E" points="-6.9,112.8 0.3,112.8 0.3,106.6 				"/>
				<polygon fill="#333333" points="7.5,112.8 0.3,112.8 0.3,106.6 				"/>
			</g>
			<polygon fill="#1E1E1E" points="7.5,112.8 7.5,106.6 0.3,106.6 			"/>
			<polygon fill="#303030" points="7.5,100.3 7.5,106.6 0.3,106.6 			"/>
			<polygon fill="#141414" points="7.5,100.3 0.3,100.3 0.3,106.6 			"/>
			<polygon fill="#1E1E1E" points="0.3,106.6 0.3,100.3 -6.9,100.3 			"/>
			<polygon fill="#333333" points="-6.9,100.3 -6.9,106.5 0.3,106.6 			"/>
			<polygon fill="#242424" points="-6.9,112.8 0.3,106.6 -6.9,106.5 			"/>
		</g>
		<g>
			<g>
				<polygon fill="#1E1E1E" points="7.5,100.3 14.7,100.3 14.7,94 				"/>
				<polygon fill="#333333" points="21.9,100.3 14.7,100.3 14.7,94 				"/>
			</g>
			<polygon fill="#1E1E1E" points="21.9,100.3 21.9,94 14.7,94 			"/>
			<polygon fill="#303030" points="21.9,87.7 21.9,94 14.7,94 			"/>
			<polygon fill="#1C1C1C" points="21.9,87.7 14.7,87.7 14.7,94 			"/>
			<polygon fill="#1E1E1E" points="14.7,94 14.7,87.7 7.5,87.7 			"/>
			<polygon fill="#333333" points="7.5,87.7 7.5,94 14.7,94 			"/>
			<polygon fill="#2D2D2D" points="7.5,100.3 14.7,94 7.5,94 			"/>
		</g>
		<g>
			<g>
				<polygon fill="#1E1E1E" points="7.5,112.8 14.7,112.9 14.7,106.6 				"/>
				<polygon fill="#171717" points="21.8,112.9 14.7,112.9 14.7,106.6 				"/>
			</g>
			<polygon fill="#3D3D3D" points="21.8,112.9 21.8,106.6 14.7,106.6 			"/>
			<polygon fill="#1E1E1E" points="21.9,100.3 21.8,106.6 14.7,106.6 			"/>
			<polygon fill="#121212" points="21.9,100.3 14.7,100.3 14.7,106.6 			"/>
			<polygon fill="#272727" points="14.7,106.6 14.7,100.3 7.5,100.3 			"/>
			<polygon fill="#313131" points="7.5,100.3 7.5,106.6 14.7,106.6 			"/>
			<polygon fill="#191919" points="7.5,112.8 14.7,106.6 7.5,106.6 			"/>
		</g>
		<g>
			<g>
				<polygon fill="#1E1E1E" points="-6.9,100.3 0.3,100.3 0.3,94 				"/>
				<polygon fill="#171717" points="7.5,100.3 0.3,100.3 0.3,94 				"/>
			</g>
			<polygon fill="#282828" points="7.5,100.3 7.5,94 0.3,94 			"/>
			<polygon fill="#1E1E1E" points="7.5,87.7 7.5,94 0.3,94 			"/>
			<polygon fill="#121212" points="7.5,87.7 0.3,87.7 0.3,94 			"/>
			<polygon fill="#272727" points="0.3,94 0.3,87.7 -6.9,87.7 			"/>
			<polygon fill="#1B1B1B" points="-6.9,87.7 -6.9,94 0.3,94 			"/>
			<polygon fill="#191919" points="-6.9,100.3 0.3,94 -6.9,94 			"/>
		</g>
		<g>
			<g>
				<line fill="#1E1E1E" x1="-28.4" y1="112.8" x2="-28.4" y2="106.5"/>
				<polygon fill="#333333" points="-21.3,112.8 -28.4,112.8 -28.4,106.5 				"/>
			</g>
			<polygon fill="#1E1E1E" points="-21.3,112.8 -21.2,106.5 -28.4,106.5 			"/>
			<polygon fill="#303030" points="-21.2,100.2 -21.2,106.5 -28.4,106.5 			"/>
			<polygon fill="#373737" points="-21.2,100.2 -28.4,100.2 -28.4,106.5 			"/>
			<line fill="#1E1E1E" x1="-28.4" y1="106.5" x2="-28.4" y2="100.2"/>
			<path fill="#333333" d="M-28.4,106.5"/>
			<path fill="#2D2D2D" d="M-28.4,106.5"/>
		</g>
		<g>
			<g>
				<polygon fill="#1E1E1E" points="-21.2,100.2 -14.1,100.3 -14.1,94 				"/>
				<polygon fill="#333333" points="-6.9,100.3 -14.1,100.3 -14.1,94 				"/>
			</g>
			<polygon fill="#1E1E1E" points="-6.9,100.3 -6.9,94 -14.1,94 			"/>
			<polygon fill="#303030" points="-6.9,87.7 -6.9,94 -14.1,94 			"/>
			<polygon fill="#242424" points="-6.9,87.7 -14,87.7 -14.1,94 			"/>
			<polygon fill="#1E1E1E" points="-14.1,94 -14,87.7 -21.2,87.7 			"/>
			<polygon fill="#333333" points="-21.2,87.7 -21.2,94 -14.1,94 			"/>
			<polygon fill="#1B1B1B" points="-21.2,100.2 -14.1,94 -21.2,94 			"/>
		</g>
		<g>
			<g>
				<polygon fill="#1E1E1E" points="-21.3,112.8 -14.1,112.8 -14.1,106.5 				"/>
				<polygon fill="#171717" points="-6.9,112.8 -14.1,112.8 -14.1,106.5 				"/>
			</g>
			<polygon fill="#3D3D3D" points="-6.9,112.8 -6.9,106.5 -14.1,106.5 			"/>
			<polygon fill="#1E1E1E" points="-6.9,100.3 -6.9,106.5 -14.1,106.5 			"/>
			<polygon fill="#121212" points="-6.9,100.3 -14.1,100.3 -14.1,106.5 			"/>
			<polygon fill="#272727" points="-14.1,106.5 -14.1,100.3 -21.2,100.2 			"/>
			<polygon fill="#1A1A1A" points="-21.2,100.2 -21.2,106.5 -14.1,106.5 			"/>
			<polygon fill="#191919" points="-21.3,112.8 -14.1,106.5 -21.2,106.5 			"/>
		</g>
		<g>
			<g>
				<line fill="#1E1E1E" x1="-28.4" y1="100.2" x2="-28.4" y2="93.9"/>
				<polygon fill="#171717" points="-21.2,100.2 -28.4,100.2 -28.4,93.9 				"/>
			</g>
			<polygon fill="#3D3D3D" points="-21.2,100.2 -21.2,94 -28.4,93.9 			"/>
			<polygon fill="#1E1E1E" points="-21.2,87.7 -21.2,94 -28.4,93.9 			"/>
			<polygon fill="#383838" points="-21.2,87.7 -28.4,87.7 -28.4,93.9 			"/>
			<line fill="#272727" x1="-28.4" y1="93.9" x2="-28.4" y2="87.7"/>
			<path fill="#212121" d="M-28.4,93.9"/>
			<path fill="#191919" d="M-28.4,93.9"/>
		</g>
		<g>
			<g>
				<polygon fill="#1E1E1E" points="36.2,125.5 43.4,125.5 43.4,119.2 				"/>
				<polygon fill="#333333" points="50.6,125.5 43.4,125.5 43.4,119.2 				"/>
			</g>
			<polygon fill="#1E1E1E" points="50.6,125.5 50.6,119.2 43.4,119.2 			"/>
			<polygon fill="#303030" points="50.6,112.9 50.6,119.2 43.4,119.2 			"/>
			<polygon fill="#222222" points="50.6,112.9 43.4,112.9 43.4,119.2 			"/>
			<polygon fill="#1E1E1E" points="43.4,119.2 43.4,112.9 36.2,112.9 			"/>
			<polygon fill="#333333" points="36.2,112.9 36.2,119.2 43.4,119.2 			"/>
			<polygon fill="#0E0E0E" points="36.2,125.5 43.4,119.2 36.2,119.2 			"/>
		</g>
		<g>
			<g>
				<polygon fill="#1E1E1E" points="21.8,125.4 29,125.4 29,119.2 				"/>
				<polygon fill="#171717" points="36.2,125.5 29,125.4 29,119.2 				"/>
			</g>
			<polygon fill="#3D3D3D" points="36.2,125.5 36.2,119.2 29,119.2 			"/>
			<polygon fill="#1E1E1E" points="36.2,112.9 36.2,119.2 29,119.2 			"/>
			<polygon fill="#121212" points="36.2,112.9 29,112.9 29,119.2 			"/>
			<polygon fill="#272727" points="29,119.2 29,112.9 21.8,112.9 			"/>
			<polygon fill="#1F1F1F" points="21.8,112.9 21.8,119.1 29,119.2 			"/>
			<polygon fill="#191919" points="21.8,125.4 29,119.2 21.8,119.1 			"/>
		</g>
		<g>
			<g>
				<polygon fill="#1E1E1E" points="21.8,112.9 29,112.9 29,106.6 				"/>
				<polygon fill="#333333" points="36.2,112.9 29,112.9 29,106.6 				"/>
			</g>
			<polygon fill="#1E1E1E" points="36.2,112.9 36.2,106.6 29,106.6 			"/>
			<polygon fill="#303030" points="36.2,100.3 36.2,106.6 29,106.6 			"/>
			<polygon fill="#2C2C2C" points="36.2,100.3 29,100.3 29,106.6 			"/>
			<polygon fill="#1E1E1E" points="29,106.6 29,100.3 21.9,100.3 			"/>
			<polygon fill="#333333" points="21.9,100.3 21.8,106.6 29,106.6 			"/>
			<polygon fill="#191919" points="21.8,112.9 29,106.6 21.8,106.6 			"/>
		</g>
		<g>
			<g>
				<polygon fill="#1E1E1E" points="36.2,100.3 43.4,100.3 43.4,94 				"/>
				<polygon fill="#333333" points="50.6,100.3 43.4,100.3 43.4,94 				"/>
			</g>
			<polygon fill="#1E1E1E" points="50.6,100.3 50.6,94 43.4,94 			"/>
			<polygon fill="#303030" points="50.6,87.7 50.6,94 43.4,94 			"/>
			<polygon fill="#181818" points="50.6,87.7 43.4,87.7 43.4,94 			"/>
			<polygon fill="#1E1E1E" points="43.4,94 43.4,87.7 36.2,87.7 			"/>
			<polygon fill="#333333" points="36.2,87.7 36.2,94 43.4,94 			"/>
			<polygon fill="#3F3F3F" points="36.2,100.3 43.4,94 36.2,94 			"/>
		</g>
		<g>
			<g>
				<polygon fill="#1E1E1E" points="36.2,112.9 43.4,112.9 43.4,106.6 				"/>
				<polygon fill="#171717" points="50.6,112.9 43.4,112.9 43.4,106.6 				"/>
			</g>
			<polygon fill="#3D3D3D" points="50.6,112.9 50.6,106.6 43.4,106.6 			"/>
			<polygon fill="#1E1E1E" points="50.6,100.3 50.6,106.6 43.4,106.6 			"/>
			<polygon fill="#121212" points="50.6,100.3 43.4,100.3 43.4,106.6 			"/>
			<polygon fill="#272727" points="43.4,106.6 43.4,100.3 36.2,100.3 			"/>
			<polygon fill="#171717" points="36.2,100.3 36.2,106.6 43.4,106.6 			"/>
			<polygon fill="#191919" points="36.2,112.9 43.4,106.6 36.2,106.6 			"/>
		</g>
		<g>
			<g>
				<polygon fill="#1E1E1E" points="21.9,100.3 29,100.3 29,94 				"/>
				<polygon fill="#171717" points="36.2,100.3 29,100.3 29,94 				"/>
			</g>
			<polygon fill="#3D3D3D" points="36.2,100.3 36.2,94 29,94 			"/>
			<polygon fill="#1E1E1E" points="36.2,87.7 36.2,94 29,94 			"/>
			<polygon fill="#222222" points="36.2,87.7 29,87.7 29,94 			"/>
			<polygon fill="#272727" points="29,94 29,87.7 21.9,87.7 			"/>
			<polygon fill="#171717" points="21.9,87.7 21.9,94 29,94 			"/>
			<polygon fill="#191919" points="21.9,100.3 29,94 21.9,94 			"/>
		</g>
		<g>
			<g>
				<line fill="#1E1E1E" x1="-28.4" y1="75.1" x2="-28.4" y2="68.8"/>
				<polygon fill="#333333" points="-21.2,75.1 -28.4,75.1 -28.4,68.8 				"/>
			</g>
			<polygon fill="#252525" points="-21.2,75.1 -21.2,68.8 -28.4,68.8 			"/>
			<polygon fill="#1B1B1B" points="-21.2,62.5 -21.2,68.8 -28.4,68.8 			"/>
			<polygon fill="#2F2F2F" points="-21.2,62.5 -28.4,62.5 -28.4,68.8 			"/>
			<line fill="#1E1E1E" x1="-28.4" y1="68.8" x2="-28.4" y2="62.5"/>
			<path fill="#333333" d="M-28.4,68.8"/>
			<path fill="#141414" d="M-28.4,68.8"/>
		</g>
		<g>
			<g>
				<polygon fill="#2E2E2E" points="-21.2,62.5 -14,62.5 -14,56.2 				"/>
				<polygon fill="#333333" points="-6.8,62.5 -14,62.5 -14,56.2 				"/>
			</g>
			<polygon fill="#1E1E1E" points="-6.8,62.5 -6.8,56.2 -14,56.2 			"/>
			<polygon fill="#303030" points="-6.8,49.9 -6.8,56.2 -14,56.2 			"/>
			<polygon fill="#535353" points="-6.8,49.9 -14,49.9 -14,56.2 			"/>
			<polygon fill="#232323" points="-14,56.2 -14,49.9 -21.2,49.9 			"/>
			<polygon fill="#333333" points="-21.2,49.9 -21.2,56.2 -14,56.2 			"/>
			<polygon fill="#1B1B1B" points="-21.2,62.5 -14,56.2 -21.2,56.2 			"/>
		</g>
		<g>
			<g>
				<polygon fill="#1E1E1E" points="-21.2,75.1 -14,75.1 -14,68.8 				"/>
				<polygon fill="#0E0E0E" points="-6.9,75.1 -14,75.1 -14,68.8 				"/>
			</g>
			<polygon fill="#3D3D3D" points="-6.9,75.1 -6.8,68.8 -14,68.8 			"/>
			<polygon fill="#1E1E1E" points="-6.8,62.5 -6.8,68.8 -14,68.8 			"/>
			<polygon fill="#121212" points="-6.8,62.5 -14,62.5 -14,68.8 			"/>
			<polygon fill="#272727" points="-14,68.8 -14,62.5 -21.2,62.5 			"/>
			<polygon fill="#101010" points="-21.2,62.5 -21.2,68.8 -14,68.8 			"/>
			<polygon fill="#191919" points="-21.2,75.1 -14,68.8 -21.2,68.8 			"/>
		</g>
		<g>
			<g>
				<line fill="#1E1E1E" x1="-28.4" y1="62.5" x2="-28.4" y2="56.2"/>
				<polygon fill="#171717" points="-21.2,62.5 -28.4,62.5 -28.4,56.2 				"/>
			</g>
			<polygon fill="#161616" points="-21.2,62.5 -21.2,56.2 -28.4,56.2 			"/>
			<polygon fill="#1E1E1E" points="-21.2,49.9 -21.2,56.2 -28.4,56.2 			"/>
			<polygon fill="#121212" points="-21.2,49.9 -28.4,49.9 -28.4,56.2 			"/>
			<line fill="#272727" x1="-28.4" y1="56.2" x2="-28.4" y2="49.9"/>
			<path fill="#161616" d="M-28.4,56.2"/>
			<path fill="#191919" d="M-28.4,56.2"/>
		</g>
		<g>
			<g>
				<polygon fill="#1E1E1E" points="-6.9,75.1 0.3,75.1 0.3,68.8 				"/>
				<polygon fill="#333333" points="7.5,75.1 0.3,75.1 0.3,68.8 				"/>
			</g>
			<polygon fill="#1E1E1E" points="7.5,75.1 7.5,68.8 0.3,68.8 			"/>
			<polygon fill="#303030" points="7.5,62.5 7.5,68.8 0.3,68.8 			"/>
			<polygon fill="#323232" points="7.5,62.5 0.3,62.5 0.3,68.8 			"/>
			<polygon fill="#1E1E1E" points="0.3,68.8 0.3,62.5 -6.8,62.5 			"/>
			<polygon fill="#333333" points="-6.8,62.5 -6.8,68.8 0.3,68.8 			"/>
			<polygon fill="#1B1B1B" points="-6.9,75.1 0.3,68.8 -6.8,68.8 			"/>
		</g>
		<g>
			<g>
				<polygon fill="#1E1E1E" points="7.5,62.5 14.7,62.5 14.7,56.3 				"/>
				<polygon fill="#333333" points="21.9,62.6 14.7,62.5 14.7,56.3 				"/>
			</g>
			<polygon fill="#1E1E1E" points="21.9,62.6 21.9,56.3 14.7,56.3 			"/>
			<polygon fill="#303030" points="21.9,50 21.9,56.3 14.7,56.3 			"/>
			<polygon fill="#222222" points="21.9,50 14.7,50 14.7,56.3 			"/>
			<polygon fill="#1E1E1E" points="14.7,56.3 14.7,50 7.5,50 			"/>
			<polygon fill="#2C2C2C" points="7.5,50 7.5,56.3 14.7,56.3 			"/>
			<polygon fill="#383838" points="7.5,62.5 14.7,56.3 7.5,56.3 			"/>
		</g>
		<g>
			<g>
				<polygon fill="#1E1E1E" points="7.5,75.1 14.7,75.1 14.7,68.8 				"/>
				<polygon fill="#171717" points="21.9,75.1 14.7,75.1 14.7,68.8 				"/>
			</g>
			<polygon fill="#3D3D3D" points="21.9,75.1 21.9,68.8 14.7,68.8 			"/>
			<polygon fill="#1E1E1E" points="21.9,62.6 21.9,68.8 14.7,68.8 			"/>
			<polygon fill="#1C1C1C" points="21.9,62.6 14.7,62.5 14.7,68.8 			"/>
			<polygon fill="#272727" points="14.7,68.8 14.7,62.5 7.5,62.5 			"/>
			<polygon fill="#191919" points="7.5,62.5 7.5,68.8 14.7,68.8 			"/>
			<polygon fill="#191919" points="7.5,75.1 14.7,68.8 7.5,68.8 			"/>
		</g>
		<g>
			<g>
				<polygon fill="#1E1E1E" points="-6.8,62.5 0.3,62.5 0.3,56.2 				"/>
				<polygon fill="#171717" points="7.5,62.5 0.3,62.5 0.3,56.2 				"/>
			</g>
			<polygon fill="#141414" points="7.5,62.5 7.5,56.3 0.3,56.2 			"/>
			<polygon fill="#1E1E1E" points="7.5,50 7.5,56.3 0.3,56.2 			"/>
			<polygon fill="#121212" points="7.5,50 0.4,50 0.3,56.2 			"/>
			<polygon fill="#272727" points="0.3,56.2 0.4,50 -6.8,49.9 			"/>
			<polygon fill="#222222" points="-6.8,49.9 -6.8,56.2 0.3,56.2 			"/>
			<polygon fill="#191919" points="-6.8,62.5 0.3,56.2 -6.8,56.2 			"/>
		</g>
		<g>
			<g>
				<polygon fill="#1E1E1E" points="7.5,87.7 14.7,87.7 14.7,81.4 				"/>
				<polygon fill="#333333" points="21.9,87.7 14.7,87.7 14.7,81.4 				"/>
			</g>
			<polygon fill="#1E1E1E" points="21.9,87.7 21.9,81.4 14.7,81.4 			"/>
			<polygon fill="#303030" points="21.9,75.1 21.9,81.4 14.7,81.4 			"/>
			<polygon fill="#373737" points="21.9,75.1 14.7,75.1 14.7,81.4 			"/>
			<polygon fill="#1E1E1E" points="14.7,81.4 14.7,75.1 7.5,75.1 			"/>
			<polygon fill="#333333" points="7.5,75.1 7.5,81.4 14.7,81.4 			"/>
			<polygon fill="#151515" points="7.5,87.7 14.7,81.4 7.5,81.4 			"/>
		</g>
		<g>
			<g>
				<polygon fill="#1E1E1E" points="-6.9,87.7 0.3,87.7 0.3,81.4 				"/>
				<polygon fill="#3B3B3B" points="7.5,87.7 0.3,87.7 0.3,81.4 				"/>
			</g>
			<polygon fill="#3D3D3D" points="7.5,87.7 7.5,81.4 0.3,81.4 			"/>
			<polygon fill="#1E1E1E" points="7.5,75.1 7.5,81.4 0.3,81.4 			"/>
			<polygon fill="#3E3E3E" points="7.5,75.1 0.3,75.1 0.3,81.4 			"/>
			<polygon fill="#323232" points="0.3,81.4 0.3,75.1 -6.9,75.1 			"/>
			<polygon fill="#1B1B1B" points="-6.9,75.1 -6.9,81.4 0.3,81.4 			"/>
			<polygon fill="#191919" points="-6.9,87.7 0.3,81.4 -6.9,81.4 			"/>
		</g>
		<g>
			<g>
				<polygon fill="#1E1E1E" points="21.9,75.1 29.1,75.1 29.1,68.8 				"/>
				<polygon fill="#333333" points="36.2,75.1 29.1,75.1 29.1,68.8 				"/>
			</g>
			<polygon fill="#1E1E1E" points="36.2,75.1 36.2,68.9 29.1,68.8 			"/>
			<polygon fill="#303030" points="36.2,62.6 36.2,68.9 29.1,68.8 			"/>
			<polygon fill="#2B2B2B" points="36.2,62.6 29.1,62.6 29.1,68.8 			"/>
			<polygon fill="#1E1E1E" points="29.1,68.8 29.1,62.6 21.9,62.6 			"/>
			<polygon fill="#333333" points="21.9,62.6 21.9,68.8 29.1,68.8 			"/>
			<polygon fill="#141414" points="21.9,75.1 29.1,68.8 21.9,68.8 			"/>
		</g>
		<g>
			<g>
				<polygon fill="#1E1E1E" points="36.2,62.6 43.4,62.6 43.4,56.3 				"/>
				<polygon fill="#333333" points="50.6,62.6 43.4,62.6 43.4,56.3 				"/>
			</g>
			<polygon fill="#1E1E1E" points="50.6,62.6 50.6,56.3 43.4,56.3 			"/>
			<polygon fill="#303030" points="50.6,50 50.6,56.3 43.4,56.3 			"/>
			<polygon fill="#151515" points="50.6,50 43.4,50 43.4,56.3 			"/>
			<polygon fill="#1E1E1E" points="43.4,56.3 43.4,50 36.3,50 			"/>
			<polygon fill="#333333" points="36.3,50 36.3,56.3 43.4,56.3 			"/>
			<polygon fill="#1E1E1E" points="36.2,62.6 43.4,56.3 36.3,56.3 			"/>
		</g>
		<g>
			<g>
				<polygon fill="#1E1E1E" points="36.2,75.1 43.4,75.1 43.4,68.9 				"/>
				<polygon fill="#171717" points="50.6,75.2 43.4,75.1 43.4,68.9 				"/>
			</g>
			<polygon fill="#333333" points="50.6,75.2 50.6,68.9 43.4,68.9 			"/>
			<polygon fill="#1E1E1E" points="50.6,62.6 50.6,68.9 43.4,68.9 			"/>
			<polygon fill="#2A2A2A" points="50.6,62.6 43.4,62.6 43.4,68.9 			"/>
			<polygon fill="#272727" points="43.4,68.9 43.4,62.6 36.2,62.6 			"/>
			<polygon fill="#3E3E3E" points="36.2,62.6 36.2,68.9 43.4,68.9 			"/>
			<polygon fill="#232323" points="36.2,75.1 43.4,68.9 36.2,68.9 			"/>
		</g>
		<g>
			<g>
				<polygon fill="#1E1E1E" points="21.9,62.6 29.1,62.6 29.1,56.3 				"/>
				<polygon fill="#171717" points="36.2,62.6 29.1,62.6 29.1,56.3 				"/>
			</g>
			<polygon fill="#2D2D2D" points="36.2,62.6 36.3,56.3 29.1,56.3 			"/>
			<polygon fill="#1E1E1E" points="36.3,50 36.3,56.3 29.1,56.3 			"/>
			<polygon fill="#121212" points="36.3,50 29.1,50 29.1,56.3 			"/>
			<polygon fill="#272727" points="29.1,56.3 29.1,50 21.9,50 			"/>
			<polygon fill="#323232" points="21.9,50 21.9,56.3 29.1,56.3 			"/>
			<polygon fill="#191919" points="21.9,62.6 29.1,56.3 21.9,56.3 			"/>
		</g>
		<g>
			<g>
				<polygon fill="#1E1E1E" points="36.2,87.7 43.4,87.7 43.4,81.4 				"/>
				<polygon fill="#333333" points="50.6,87.7 43.4,87.7 43.4,81.4 				"/>
			</g>
			<polygon fill="#1E1E1E" points="50.6,87.7 50.6,81.4 43.4,81.4 			"/>
			<polygon fill="#303030" points="50.6,75.2 50.6,81.4 43.4,81.4 			"/>
			<polygon fill="#2A2A2A" points="50.6,75.2 43.4,75.1 43.4,81.4 			"/>
			<polygon fill="#1E1E1E" points="43.4,81.4 43.4,75.1 36.2,75.1 			"/>
			<polygon fill="#333333" points="36.2,75.1 36.2,81.4 43.4,81.4 			"/>
			<polygon fill="#1F1F1F" points="36.2,87.7 43.4,81.4 36.2,81.4 			"/>
		</g>
		<g>
			<g>
				<polygon fill="#1E1E1E" points="21.9,87.7 29,87.7 29.1,81.4 				"/>
				<polygon fill="#171717" points="36.2,87.7 29,87.7 29.1,81.4 				"/>
			</g>
			<polygon fill="#3D3D3D" points="36.2,87.7 36.2,81.4 29.1,81.4 			"/>
			<polygon fill="#232323" points="36.2,75.1 36.2,81.4 29.1,81.4 			"/>
			<polygon fill="#111111" points="36.2,75.1 29.1,75.1 29.1,81.4 			"/>
			<polygon fill="#272727" points="29.1,81.4 29.1,75.1 21.9,75.1 			"/>
			<polygon fill="#343434" points="21.9,75.1 21.9,81.4 29.1,81.4 			"/>
			<polygon fill="#191919" points="21.9,87.7 29.1,81.4 21.9,81.4 			"/>
		</g>
		<g>
			<g>
				<polygon fill="#1E1E1E" points="-21.2,87.7 -14,87.7 -14,81.4 				"/>
				<polygon fill="#333333" points="-6.9,87.7 -14,87.7 -14,81.4 				"/>
			</g>
			<polygon fill="#1E1E1E" points="-6.9,87.7 -6.9,81.4 -14,81.4 			"/>
			<polygon fill="#1B1B1B" points="-6.9,75.1 -6.9,81.4 -14,81.4 			"/>
			<polygon fill="#141414" points="-6.9,75.1 -14,75.1 -14,81.4 			"/>
			<polygon fill="#222222" points="-14,81.4 -14,75.1 -21.2,75.1 			"/>
			<polygon fill="#313131" points="-21.2,75.1 -21.2,81.4 -14,81.4 			"/>
			<polygon fill="#1C1C1C" points="-21.2,87.7 -14,81.4 -21.2,81.4 			"/>
		</g>
		<g>
			<g>
				<line fill="#1E1E1E" x1="-28.4" y1="87.7" x2="-28.4" y2="81.4"/>
				<polygon fill="#171717" points="-21.2,87.7 -28.4,87.7 -28.4,81.4 				"/>
			</g>
			<polygon fill="#282828" points="-21.2,87.7 -21.2,81.4 -28.4,81.4 			"/>
			<polygon fill="#1E1E1E" points="-21.2,75.1 -21.2,81.4 -28.4,81.4 			"/>
			<polygon fill="#292929" points="-21.2,75.1 -28.4,75.1 -28.4,81.4 			"/>
			<line fill="#272727" x1="-28.4" y1="81.4" x2="-28.4" y2="75.1"/>
			<path fill="#222222" d="M-28.4,81.4"/>
			<path fill="#191919" d="M-28.4,81.4"/>
		</g>
		<g>
			<g>
				<polygon fill="#1E1E1E" points="-21.2,49.9 -14,49.9 -14,43.7 				"/>
				<polygon fill="#333333" points="-6.8,49.9 -14,49.9 -14,43.7 				"/>
			</g>
			<polygon fill="#1E1E1E" points="-6.8,49.9 -6.8,43.7 -14,43.7 			"/>
			<polygon fill="#303030" points="-6.8,37.4 -6.8,43.7 -14,43.7 			"/>
			<polygon fill="#3F3F3F" points="-6.8,37.4 -14,37.4 -14,43.7 			"/>
			<polygon fill="#1E1E1E" points="-14,43.7 -14,37.4 -21.2,37.4 			"/>
			<polygon fill="#333333" points="-21.2,37.4 -21.2,43.6 -14,43.7 			"/>
			<polygon fill="#2E2E2E" points="-21.2,49.9 -14,43.7 -21.2,43.6 			"/>
		</g>
		<g>
			<g>
				<line fill="#1E1E1E" x1="-28.4" y1="49.9" x2="-28.4" y2="43.6"/>
				<polygon fill="#171717" points="-21.2,49.9 -28.4,49.9 -28.4,43.6 				"/>
			</g>
			<polygon fill="#3D3D3D" points="-21.2,49.9 -21.2,43.6 -28.4,43.6 			"/>
			<polygon fill="#1E1E1E" points="-21.2,37.4 -21.2,43.6 -28.4,43.6 			"/>
			<polygon fill="#121212" points="-21.2,37.4 -28.4,37.4 -28.4,43.6 			"/>
			<line fill="#272727" x1="-28.4" y1="43.6" x2="-28.4" y2="37.4"/>
			<path fill="#444444" d="M-28.4,43.6"/>
			<path fill="#191919" d="M-28.4,43.6"/>
		</g>
		<g>
			<g>
				<polygon fill="#1E1E1E" points="7.5,50 14.7,50 14.7,43.7 				"/>
				<polygon fill="#333333" points="21.9,50 14.7,50 14.7,43.7 				"/>
			</g>
			<polygon fill="#1E1E1E" points="21.9,50 21.9,43.7 14.7,43.7 			"/>
			<polygon fill="#303030" points="21.9,37.4 21.9,43.7 14.7,43.7 			"/>
			<polygon fill="#212121" points="21.9,37.4 14.7,37.4 14.7,43.7 			"/>
			<polygon fill="#1E1E1E" points="14.7,43.7 14.7,37.4 7.5,37.4 			"/>
			<polygon fill="#333333" points="7.5,37.4 7.5,43.7 14.7,43.7 			"/>
			<polygon fill="#323232" points="7.5,50 14.7,43.7 7.5,43.7 			"/>
		</g>
		<g>
			<g>
				<polygon fill="#1E1E1E" points="-6.8,49.9 0.4,50 0.4,43.7 				"/>
				<polygon fill="#171717" points="7.5,50 0.4,50 0.4,43.7 				"/>
			</g>
			<polygon fill="#3D3D3D" points="7.5,50 7.5,43.7 0.4,43.7 			"/>
			<polygon fill="#1E1E1E" points="7.5,37.4 7.5,43.7 0.4,43.7 			"/>
			<polygon fill="#222222" points="7.5,37.4 0.4,37.4 0.4,43.7 			"/>
			<polygon fill="#272727" points="0.4,43.7 0.4,37.4 -6.8,37.4 			"/>
			<polygon fill="#161616" points="-6.8,37.4 -6.8,43.7 0.4,43.7 			"/>
			<polygon fill="#191919" points="-6.8,49.9 0.4,43.7 -6.8,43.7 			"/>
		</g>
		<g>
			<g>
				<polygon fill="#1E1E1E" points="86.5,37.5 93.7,37.5 93.7,31.2 				"/>
				<polygon fill="#333333" points="100.9,37.5 93.7,37.5 93.7,31.2 				"/>
			</g>
			<polygon fill="#1E1E1E" points="100.9,37.5 100.9,31.2 93.7,31.2 			"/>
			<polygon fill="#303030" points="100.9,24.9 100.9,31.2 93.7,31.2 			"/>
			<polygon fill="#202020" points="100.9,24.9 93.7,24.9 93.7,31.2 			"/>
			<polygon fill="#1E1E1E" points="93.7,31.2 93.7,24.9 86.6,24.9 			"/>
			<polygon fill="#333333" points="86.6,24.9 86.6,31.2 93.7,31.2 			"/>
			<polygon fill="#242424" points="86.5,37.5 93.7,31.2 86.6,31.2 			"/>
		</g>
		<g>
			<g>
				<polygon fill="#1E1E1E" points="100.9,24.9 108.1,24.9 108.1,18.6 				"/>
				<polygon fill="#333333" points="115.3,24.9 108.1,24.9 108.1,18.6 				"/>
			</g>
			<polygon fill="#1E1E1E" points="115.3,24.9 115.3,18.6 108.1,18.6 			"/>
			<polygon fill="#303030" points="115.3,12.3 115.3,18.6 108.1,18.6 			"/>
			<polygon fill="#1C1C1C" points="115.3,12.3 108.1,12.3 108.1,18.6 			"/>
			<polygon fill="#1E1E1E" points="108.1,18.6 108.1,12.3 100.9,12.3 			"/>
			<polygon fill="#333333" points="100.9,12.3 100.9,18.6 108.1,18.6 			"/>
			<polygon fill="#2D2D2D" points="100.9,24.9 108.1,18.6 100.9,18.6 			"/>
		</g>
		<g>
			<g>
				<polygon fill="#1E1E1E" points="100.9,37.5 108.1,37.5 108.1,31.2 				"/>
				<polygon fill="#171717" points="115.3,37.5 108.1,37.5 108.1,31.2 				"/>
			</g>
			<polygon fill="#2F2F2F" points="115.3,37.5 115.3,31.2 108.1,31.2 			"/>
			<polygon fill="#1E1E1E" points="115.3,24.9 115.3,31.2 108.1,31.2 			"/>
			<polygon fill="#121212" points="115.3,24.9 108.1,24.9 108.1,31.2 			"/>
			<polygon fill="#272727" points="108.1,31.2 108.1,24.9 100.9,24.9 			"/>
			<polygon fill="#313131" points="100.9,24.9 100.9,31.2 108.1,31.2 			"/>
			<polygon fill="#191919" points="100.9,37.5 108.1,31.2 100.9,31.2 			"/>
		</g>
		<g>
			<g>
				<polygon fill="#1E1E1E" points="86.6,24.9 93.7,24.9 93.7,18.6 				"/>
				<polygon fill="#171717" points="100.9,24.9 93.7,24.9 93.7,18.6 				"/>
			</g>
			<polygon fill="#282828" points="100.9,24.9 100.9,18.6 93.7,18.6 			"/>
			<polygon fill="#1E1E1E" points="100.9,12.3 100.9,18.6 93.7,18.6 			"/>
			<polygon fill="#323232" points="100.9,12.3 93.8,12.3 93.7,18.6 			"/>
			<polygon fill="#272727" points="93.7,18.6 93.8,12.3 86.6,12.3 			"/>
			<polygon fill="#1B1B1B" points="86.6,12.3 86.6,18.6 93.7,18.6 			"/>
			<polygon fill="#191919" points="86.6,24.9 93.7,18.6 86.6,18.6 			"/>
		</g>
		<g>
			<g>
				<line fill="#1E1E1E" x1="65" y1="37.4" x2="65" y2="31.1"/>
				<polygon fill="#333333" points="72.2,37.4 65,37.4 65,31.1 				"/>
			</g>
			<polygon fill="#1E1E1E" points="72.2,37.4 72.2,31.2 65,31.1 			"/>
			<polygon fill="#303030" points="72.2,24.9 72.2,31.2 65,31.1 			"/>
			<polygon fill="#373737" points="72.2,24.9 65,24.9 65,31.1 			"/>
			<line fill="#1E1E1E" x1="65" y1="31.1" x2="65" y2="24.9"/>
			<path fill="#333333" d="M65,31.1"/>
			<path fill="#2D2D2D" d="M65,31.1"/>
		</g>
		<g>
			<g>
				<polygon fill="#1E1E1E" points="72.2,24.9 79.4,24.9 79.4,18.6 				"/>
				<polygon fill="#333333" points="86.6,24.9 79.4,24.9 79.4,18.6 				"/>
			</g>
			<polygon fill="#1E1E1E" points="86.6,24.9 86.6,18.6 79.4,18.6 			"/>
			<polygon fill="#303030" points="86.6,12.3 86.6,18.6 79.4,18.6 			"/>
			<polygon fill="#242424" points="86.6,12.3 79.4,12.3 79.4,18.6 			"/>
			<polygon fill="#1E1E1E" points="79.4,18.6 79.4,12.3 72.2,12.3 			"/>
			<polygon fill="#333333" points="72.2,12.3 72.2,18.6 79.4,18.6 			"/>
			<polygon fill="#1B1B1B" points="72.2,24.9 79.4,18.6 72.2,18.6 			"/>
		</g>
		<g>
			<g>
				<polygon fill="#1E1E1E" points="72.2,37.4 79.4,37.4 79.4,31.2 				"/>
				<polygon fill="#171717" points="86.5,37.5 79.4,37.4 79.4,31.2 				"/>
			</g>
			<polygon fill="#3D3D3D" points="86.5,37.5 86.6,31.2 79.4,31.2 			"/>
			<polygon fill="#1E1E1E" points="86.6,24.9 86.6,31.2 79.4,31.2 			"/>
			<polygon fill="#191919" points="86.6,24.9 79.4,24.9 79.4,31.2 			"/>
			<polygon fill="#272727" points="79.4,31.2 79.4,24.9 72.2,24.9 			"/>
			<polygon fill="#1A1A1A" points="72.2,24.9 72.2,31.2 79.4,31.2 			"/>
			<polygon fill="#191919" points="72.2,37.4 79.4,31.2 72.2,31.2 			"/>
		</g>
		<g>
			<g>
				<line fill="#1E1E1E" x1="65" y1="24.9" x2="65" y2="18.6"/>
				<polygon fill="#171717" points="72.2,24.9 65,24.9 65,18.6 				"/>
			</g>
			<polygon fill="#2B2B2B" points="72.2,24.9 72.2,18.6 65,18.6 			"/>
			<polygon fill="#1E1E1E" points="72.2,12.3 72.2,18.6 65,18.6 			"/>
			<polygon fill="#383838" points="72.2,12.3 65,12.3 65,18.6 			"/>
			<line fill="#272727" x1="65" y1="18.6" x2="65" y2="12.3"/>
			<path fill="#212121" d="M65,18.6"/>
			<path fill="#191919" d="M65,18.6"/>
		</g>
		<g>
			<g>
				<polygon fill="#1E1E1E" points="36.3,50 43.4,50 43.4,43.7 				"/>
				<polygon fill="#333333" points="50.6,50 43.4,50 43.4,43.7 				"/>
			</g>
			<polygon fill="#1E1E1E" points="50.6,50 50.6,43.7 43.4,43.7 			"/>
			<polygon fill="#303030" points="50.6,37.4 50.6,43.7 43.4,43.7 			"/>
			<polygon fill="#202020" points="50.6,37.4 43.5,37.4 43.4,43.7 			"/>
			<polygon fill="#1E1E1E" points="43.4,43.7 43.5,37.4 36.3,37.4 			"/>
			<polygon fill="#333333" points="36.3,37.4 36.3,43.7 43.4,43.7 			"/>
			<polygon fill="#171717" points="36.3,50 43.4,43.7 36.3,43.7 			"/>
		</g>
		<g>
			<g>
				<polygon fill="#1E1E1E" points="21.9,50 29.1,50 29.1,43.7 				"/>
				<polygon fill="#171717" points="36.3,50 29.1,50 29.1,43.7 				"/>
			</g>
			<polygon fill="#3D3D3D" points="36.3,50 36.3,43.7 29.1,43.7 			"/>
			<polygon fill="#212121" points="36.3,37.4 36.3,43.7 29.1,43.7 			"/>
			<polygon fill="#121212" points="36.3,37.4 29.1,37.4 29.1,43.7 			"/>
			<polygon fill="#272727" points="29.1,43.7 29.1,37.4 21.9,37.4 			"/>
			<polygon fill="#1F1F1F" points="21.9,37.4 21.9,43.7 29.1,43.7 			"/>
			<polygon fill="#191919" points="21.9,50 29.1,43.7 21.9,43.7 			"/>
		</g>
		<g>
			<g>
				<polygon fill="#1E1E1E" points="115.3,37.5 122.5,37.5 122.5,31.2 				"/>
				<polygon fill="#333333" points="129.6,37.5 122.5,37.5 122.5,31.2 				"/>
			</g>
			<polygon fill="#1E1E1E" points="129.6,37.5 129.6,31.2 122.5,31.2 			"/>
			<polygon fill="#303030" points="129.6,24.9 129.6,31.2 122.5,31.2 			"/>
			<polygon fill="#1E1E1E" points="129.6,24.9 122.5,24.9 122.5,31.2 			"/>
			<polygon fill="#1E1E1E" points="122.5,31.2 122.5,24.9 115.3,24.9 			"/>
			<polygon fill="#333333" points="115.3,24.9 115.3,31.2 122.5,31.2 			"/>
			<polygon fill="#1E1E1E" points="115.3,37.5 122.5,31.2 115.3,31.2 			"/>
		</g>
		<g>
			<g>
				<polygon fill="#1E1E1E" points="-28.4,24.8 -21.2,24.8 -21.2,18.5 				"/>
				<polygon fill="#333333" points="-14,24.8 -21.2,24.8 -21.2,18.5 				"/>
			</g>
			<polygon fill="#1E1E1E" points="-14,24.8 -14,18.5 -21.2,18.5 			"/>
			<polygon fill="#303030" points="-14,12.2 -14,18.5 -21.2,18.5 			"/>
			<polygon fill="#565656" points="-14,12.2 -21.2,12.2 -21.2,18.5 			"/>
			<polygon fill="#1E1E1E" points="-21.2,18.5 -21.2,12.2 -28.3,12.2 			"/>
			<polygon fill="#333333" points="-28.3,12.2 -28.3,18.5 -21.2,18.5 			"/>
			<polygon fill="#1B1B1B" points="-28.4,24.8 -21.2,18.5 -28.3,18.5 			"/>
		</g>
		<g>
			<g>
				<polygon fill="#1E1E1E" points="-28.4,37.4 -21.2,37.4 -21.2,31.1 				"/>
				<polygon fill="#171717" points="-14,37.4 -21.2,37.4 -21.2,31.1 				"/>
			</g>
			<polygon fill="#3D3D3D" points="-14,37.4 -14,31.1 -21.2,31.1 			"/>
			<polygon fill="#1E1E1E" points="-14,24.8 -14,31.1 -21.2,31.1 			"/>
			<polygon fill="#121212" points="-14,24.8 -21.2,24.8 -21.2,31.1 			"/>
			<polygon fill="#272727" points="-21.2,31.1 -21.2,24.8 -28.4,24.8 			"/>
			<polygon fill="#171717" points="-28.4,24.8 -28.4,31.1 -21.2,31.1 			"/>
			<polygon fill="#191919" points="-28.4,37.4 -21.2,31.1 -28.4,31.1 			"/>
		</g>
		<g>
			<g>
				<polygon fill="#1E1E1E" points="115.3,24.9 122.5,24.9 122.5,18.6 				"/>
				<polygon fill="#171717" points="129.6,24.9 122.5,24.9 122.5,18.6 				"/>
			</g>
			<polygon fill="#3D3D3D" points="129.6,24.9 129.7,18.6 122.5,18.6 			"/>
			<polygon fill="#1E1E1E" points="129.7,12.3 129.7,18.6 122.5,18.6 			"/>
			<polygon fill="#121212" points="129.7,12.3 122.5,12.3 122.5,18.6 			"/>
			<polygon fill="#272727" points="122.5,18.6 122.5,12.3 115.3,12.3 			"/>
			<polygon fill="#171717" points="115.3,12.3 115.3,18.6 122.5,18.6 			"/>
			<polygon fill="#191919" points="115.3,24.9 122.5,18.6 115.3,18.6 			"/>
		</g>
		<g>
			<g>
				<line fill="#1E1E1E" x1="65" y1="-0.3" x2="65" y2="-6.6"/>
				<polygon fill="#333333" points="72.2,-0.3 65,-0.3 65,-6.6 				"/>
			</g>
			<polygon fill="#252525" points="72.2,-0.3 72.2,-6.6 65,-6.6 			"/>
			<polygon fill="#1B1B1B" points="72.2,-12.9 72.2,-6.6 65,-6.6 			"/>
			<polygon fill="#2F2F2F" points="72.2,-12.9 65,-12.9 65,-6.6 			"/>
			<line fill="#1E1E1E" x1="65" y1="-6.6" x2="65" y2="-12.9"/>
			<path fill="#333333" d="M65-6.6"/>
			<path fill="#141414" d="M65-6.6"/>
		</g>
		<g>
			<g>
				<polygon fill="#2E2E2E" points="-21.1,-13 -14,-12.9 -13.9,-19.2 				"/>
				<polygon fill="#333333" points="-6.8,-12.9 -14,-12.9 -13.9,-19.2 				"/>
			</g>
			<polygon fill="#1E1E1E" points="-6.8,-12.9 -6.8,-19.2 -13.9,-19.2 			"/>
			<polygon fill="#303030" points="-6.8,-25.5 -6.8,-19.2 -13.9,-19.2 			"/>
			<polygon fill="#242424" points="-6.8,-25.5 -13.9,-25.5 -13.9,-19.2 			"/>
			<polygon fill="#1E1E1E" points="-13.9,-19.2 -13.9,-25.5 -21.1,-25.5 			"/>
			<polygon fill="#333333" points="-21.1,-25.5 -21.1,-19.2 -13.9,-19.2 			"/>
			<polygon fill="#1B1B1B" points="-21.1,-13 -13.9,-19.2 -21.1,-19.2 			"/>
		</g>
		<g>
			<g>
				<polygon fill="#1E1E1E" points="72.2,-0.3 79.4,-0.3 79.4,-6.6 				"/>
				<polygon fill="#1C1C1C" points="86.6,-0.3 79.4,-0.3 79.4,-6.6 				"/>
			</g>
			<polygon fill="#292929" points="86.6,-0.3 86.6,-6.6 79.4,-6.6 			"/>
			<polygon fill="#1E1E1E" points="86.6,-12.9 86.6,-6.6 79.4,-6.6 			"/>
			<polygon fill="#141414" points="86.6,-12.9 79.4,-12.9 79.4,-6.6 			"/>
			<polygon fill="#272727" points="79.4,-6.6 79.4,-12.9 72.2,-12.9 			"/>
			<polygon fill="#212121" points="72.2,-12.9 72.2,-6.6 79.4,-6.6 			"/>
			<polygon fill="#191919" points="72.2,-0.3 79.4,-6.6 72.2,-6.6 			"/>
		</g>
		<g>
			<g>
				<line fill="#1E1E1E" x1="-28.3" y1="-13" x2="-28.3" y2="-19.2"/>
				<polygon fill="#171717" points="-21.1,-13 -28.3,-13 -28.3,-19.2 				"/>
			</g>
			<polygon fill="#161616" points="-21.1,-13 -21.1,-19.2 -28.3,-19.2 			"/>
			<polygon fill="#1E1E1E" points="-21.1,-25.5 -21.1,-19.2 -28.3,-19.2 			"/>
			<polygon fill="#121212" points="-21.1,-25.5 -28.3,-25.5 -28.3,-19.2 			"/>
			<line fill="#272727" x1="-28.3" y1="-19.2" x2="-28.3" y2="-25.5"/>
			<path fill="#161616" d="M-28.3-19.2"/>
			<path fill="#191919" d="M-28.3-19.2"/>
		</g>
		<g>
			<g>
				<polygon fill="#1E1E1E" points="86.6,-0.3 93.8,-0.3 93.8,-6.6 				"/>
				<polygon fill="#333333" points="100.9,-0.3 93.8,-0.3 93.8,-6.6 				"/>
			</g>
			<polygon fill="#1E1E1E" points="100.9,-0.3 100.9,-6.6 93.8,-6.6 			"/>
			<polygon fill="#303030" points="101,-12.8 100.9,-6.6 93.8,-6.6 			"/>
			<polygon fill="#323232" points="101,-12.8 93.8,-12.8 93.8,-6.6 			"/>
			<polygon fill="#1E1E1E" points="93.8,-6.6 93.8,-12.8 86.6,-12.9 			"/>
			<polygon fill="#333333" points="86.6,-12.9 86.6,-6.6 93.8,-6.6 			"/>
			<polygon fill="#1B1B1B" points="86.6,-0.3 93.8,-6.6 86.6,-6.6 			"/>
		</g>
		<g>
			<g>
				<polygon fill="#1E1E1E" points="7.6,-12.9 14.8,-12.9 14.8,-19.2 				"/>
				<polygon fill="#333333" points="22,-12.9 14.8,-12.9 14.8,-19.2 				"/>
			</g>
			<polygon fill="#1E1E1E" points="22,-12.9 22,-19.2 14.8,-19.2 			"/>
			<polygon fill="#303030" points="22,-25.5 22,-19.2 14.8,-19.2 			"/>
			<polygon fill="#181818" points="22,-25.5 14.8,-25.5 14.8,-19.2 			"/>
			<polygon fill="#1E1E1E" points="14.8,-19.2 14.8,-25.5 7.6,-25.5 			"/>
			<polygon fill="#444444" points="7.6,-25.5 7.6,-19.2 14.8,-19.2 			"/>
			<polygon fill="#383838" points="7.6,-12.9 14.8,-19.2 7.6,-19.2 			"/>
		</g>
		<g>
			<g>
				<polygon fill="#1E1E1E" points="100.9,-0.3 108.1,-0.3 108.1,-6.5 				"/>
				<polygon fill="#171717" points="115.3,-0.2 108.1,-0.3 108.1,-6.5 				"/>
			</g>
			<polygon fill="#3D3D3D" points="115.3,-0.2 115.3,-6.5 108.1,-6.5 			"/>
			<polygon fill="#1E1E1E" points="115.3,-12.8 115.3,-6.5 108.1,-6.5 			"/>
			<polygon fill="#121212" points="115.3,-12.8 108.1,-12.8 108.1,-6.5 			"/>
			<polygon fill="#272727" points="108.1,-6.5 108.1,-12.8 101,-12.8 			"/>
			<polygon fill="#191919" points="101,-12.8 100.9,-6.6 108.1,-6.5 			"/>
			<polygon fill="#191919" points="100.9,-0.3 108.1,-6.5 100.9,-6.6 			"/>
		</g>
		<g>
			<g>
				<polygon fill="#1E1E1E" points="-6.8,-12.9 0.4,-12.9 0.4,-19.2 				"/>
				<polygon fill="#171717" points="7.6,-12.9 0.4,-12.9 0.4,-19.2 				"/>
			</g>
			<polygon fill="#141414" points="7.6,-12.9 7.6,-19.2 0.4,-19.2 			"/>
			<polygon fill="#1E1E1E" points="7.6,-25.5 7.6,-19.2 0.4,-19.2 			"/>
			<polygon fill="#121212" points="7.6,-25.5 0.4,-25.5 0.4,-19.2 			"/>
			<polygon fill="#272727" points="0.4,-19.2 0.4,-25.5 -6.8,-25.5 			"/>
			<polygon fill="#222222" points="-6.8,-25.5 -6.8,-19.2 0.4,-19.2 			"/>
			<polygon fill="#191919" points="-6.8,-12.9 0.4,-19.2 -6.8,-19.2 			"/>
		</g>
		<g>
			<g>
				<polygon fill="#1E1E1E" points="100.9,12.3 108.1,12.3 108.1,6 				"/>
				<polygon fill="#333333" points="115.3,12.3 108.1,12.3 108.1,6 				"/>
			</g>
			<polygon fill="#1E1E1E" points="115.3,12.3 115.3,6 108.1,6 			"/>
			<polygon fill="#303030" points="115.3,-0.2 115.3,6 108.1,6 			"/>
			<polygon fill="#373737" points="115.3,-0.2 108.1,-0.3 108.1,6 			"/>
			<polygon fill="#1E1E1E" points="108.1,6 108.1,-0.3 100.9,-0.3 			"/>
			<polygon fill="#333333" points="100.9,-0.3 100.9,6 108.1,6 			"/>
			<polygon fill="#151515" points="100.9,12.3 108.1,6 100.9,6 			"/>
		</g>
		<g>
			<g>
				<polygon fill="#1E1E1E" points="86.6,12.3 93.8,12.3 93.8,6 				"/>
				<polygon fill="#3B3B3B" points="100.9,12.3 93.8,12.3 93.8,6 				"/>
			</g>
			<polygon fill="#3D3D3D" points="100.9,12.3 100.9,6 93.8,6 			"/>
			<polygon fill="#1E1E1E" points="100.9,-0.3 100.9,6 93.8,6 			"/>
			<polygon fill="#3E3E3E" points="100.9,-0.3 93.8,-0.3 93.8,6 			"/>
			<polygon fill="#323232" points="93.8,6 93.8,-0.3 86.6,-0.3 			"/>
			<polygon fill="#1B1B1B" points="86.6,-0.3 86.6,6 93.8,6 			"/>
			<polygon fill="#191919" points="86.6,12.3 93.8,6 86.6,6 			"/>
		</g>
		<g>
			<g>
				<polygon fill="#1E1E1E" points="115.3,-0.2 122.5,-0.2 122.5,-6.5 				"/>
				<polygon fill="#333333" points="129.7,-0.2 122.5,-0.2 122.5,-6.5 				"/>
			</g>
			<polygon fill="#1E1E1E" points="129.7,-0.2 129.7,-6.5 122.5,-6.5 			"/>
			<polygon fill="#303030" points="129.7,-12.8 129.7,-6.5 122.5,-6.5 			"/>
			<polygon fill="#2B2B2B" points="129.7,-12.8 122.5,-12.8 122.5,-6.5 			"/>
			<polygon fill="#1E1E1E" points="122.5,-6.5 122.5,-12.8 115.3,-12.8 			"/>
			<polygon fill="#333333" points="115.3,-12.8 115.3,-6.5 122.5,-6.5 			"/>
			<polygon fill="#141414" points="115.3,-0.2 122.5,-6.5 115.3,-6.5 			"/>
		</g>
		<g>
			<g>
				<polygon fill="#1E1E1E" points="36.3,-12.9 43.5,-12.9 43.5,-19.2 				"/>
				<polygon fill="#333333" points="50.7,-12.9 43.5,-12.9 43.5,-19.2 				"/>
			</g>
			<polygon fill="#1E1E1E" points="50.7,-12.9 50.7,-19.2 43.5,-19.2 			"/>
			<polygon fill="#303030" points="50.7,-25.5 50.7,-19.2 43.5,-19.2 			"/>
			<polygon fill="#272727" points="50.7,-25.5 43.5,-25.5 43.5,-19.2 			"/>
			<polygon fill="#1E1E1E" points="43.5,-19.2 43.5,-25.5 36.3,-25.5 			"/>
			<polygon fill="#333333" points="36.3,-25.5 36.3,-19.2 43.5,-19.2 			"/>
			<polygon fill="#1F1F1F" points="36.3,-12.9 43.5,-19.2 36.3,-19.2 			"/>
		</g>
		<g>
			<g>
				<polygon fill="#1E1E1E" points="-28.3,-0.4 -21.1,-0.4 -21.1,-6.7 				"/>
				<polygon fill="#171717" points="-14,-0.4 -21.1,-0.4 -21.1,-6.7 				"/>
			</g>
			<polygon fill="#3D3D3D" points="-14,-0.4 -14,-6.7 -21.1,-6.7 			"/>
			<polygon fill="#1E1E1E" points="-14,-12.9 -14,-6.7 -21.1,-6.7 			"/>
			<polygon fill="#121212" points="-14,-12.9 -21.1,-13 -21.1,-6.7 			"/>
			<polygon fill="#272727" points="-21.1,-6.7 -21.1,-13 -28.3,-13 			"/>
			<polygon fill="#3E3E3E" points="-28.3,-13 -28.3,-6.7 -21.1,-6.7 			"/>
			<polygon fill="#232323" points="-28.3,-0.4 -21.1,-6.7 -28.3,-6.7 			"/>
		</g>
		<g>
			<g>
				<polygon fill="#1E1E1E" points="22,-12.9 29.1,-12.9 29.1,-19.2 				"/>
				<polygon fill="#171717" points="36.3,-12.9 29.1,-12.9 29.1,-19.2 				"/>
			</g>
			<polygon fill="#3D3D3D" points="36.3,-12.9 36.3,-19.2 29.1,-19.2 			"/>
			<polygon fill="#1E1E1E" points="36.3,-25.5 36.3,-19.2 29.1,-19.2 			"/>
			<polygon fill="#121212" points="36.3,-25.5 29.1,-25.5 29.1,-19.2 			"/>
			<polygon fill="#272727" points="29.1,-19.2 29.1,-25.5 22,-25.5 			"/>
			<polygon fill="#323232" points="22,-25.5 22,-19.2 29.1,-19.2 			"/>
			<polygon fill="#191919" points="22,-12.9 29.1,-19.2 22,-19.2 			"/>
		</g>
		<g>
			<g>
				<polygon fill="#1E1E1E" points="-28.3,12.2 -21.2,12.2 -21.2,5.9 				"/>
				<polygon fill="#333333" points="-14,12.2 -21.2,12.2 -21.2,5.9 				"/>
			</g>
			<polygon fill="#1E1E1E" points="-14,12.2 -14,5.9 -21.2,5.9 			"/>
			<polygon fill="#303030" points="-14,-0.4 -14,5.9 -21.2,5.9 			"/>
			<polygon fill="#252525" points="-14,-0.4 -21.1,-0.4 -21.2,5.9 			"/>
			<polygon fill="#1E1E1E" points="-21.2,5.9 -21.1,-0.4 -28.3,-0.4 			"/>
			<polygon fill="#333333" points="-28.3,-0.4 -28.3,5.9 -21.2,5.9 			"/>
			<polygon fill="#1F1F1F" points="-28.3,12.2 -21.2,5.9 -28.3,5.9 			"/>
		</g>
		<g>
			<g>
				<polygon fill="#1E1E1E" points="115.3,12.3 122.5,12.3 122.5,6 				"/>
				<polygon fill="#171717" points="129.7,12.3 122.5,12.3 122.5,6 				"/>
			</g>
			<polygon fill="#3D3D3D" points="129.7,12.3 129.7,6.1 122.5,6 			"/>
			<polygon fill="#141414" points="129.7,-0.2 129.7,6.1 122.5,6 			"/>
			<polygon fill="#121212" points="129.7,-0.2 122.5,-0.2 122.5,6 			"/>
			<polygon fill="#272727" points="122.5,6 122.5,-0.2 115.3,-0.2 			"/>
			<polygon fill="#343434" points="115.3,-0.2 115.3,6 122.5,6 			"/>
			<polygon fill="#191919" points="115.3,12.3 122.5,6 115.3,6 			"/>
		</g>
		<g>
			<g>
				<polygon fill="#1E1E1E" points="72.2,12.3 79.4,12.3 79.4,6 				"/>
				<polygon fill="#333333" points="86.6,12.3 79.4,12.3 79.4,6 				"/>
			</g>
			<polygon fill="#1E1E1E" points="86.6,12.3 86.6,6 79.4,6 			"/>
			<polygon fill="#1B1B1B" points="86.6,-0.3 86.6,6 79.4,6 			"/>
			<polygon fill="#202020" points="86.6,-0.3 79.4,-0.3 79.4,6 			"/>
			<polygon fill="#222222" points="79.4,6 79.4,-0.3 72.2,-0.3 			"/>
			<polygon fill="#313131" points="72.2,-0.3 72.2,6 79.4,6 			"/>
			<polygon fill="#1C1C1C" points="72.2,12.3 79.4,6 72.2,6 			"/>
		</g>
		<g>
			<g>
				<line fill="#1E1E1E" x1="65" y1="12.3" x2="65" y2="6"/>
				<polygon fill="#171717" points="72.2,12.3 65,12.3 65,6 				"/>
			</g>
			<polygon fill="#282828" points="72.2,12.3 72.2,6 65,6 			"/>
			<polygon fill="#1E1E1E" points="72.2,-0.3 72.2,6 65,6 			"/>
			<polygon fill="#292929" points="72.2,-0.3 65,-0.3 65,6 			"/>
			<line fill="#272727" x1="65" y1="6" x2="65" y2="-0.3"/>
			<path fill="#222222" d="M65,6"/>
			<path fill="#191919" d="M65,6"/>
		</g>
		<g>
			<g>
				<polygon fill="#1E1E1E" points="50.6,125.5 57.7,125.5 57.7,119.2 				"/>
				<polygon fill="#333333" points="64.9,125.5 57.7,125.5 57.7,119.2 				"/>
			</g>
			<polygon fill="#1E1E1E" points="64.9,125.5 64.9,119.2 57.7,119.2 			"/>
			<polygon fill="#303030" points="64.9,112.9 64.9,119.2 57.7,119.2 			"/>
			<polygon fill="#292929" points="64.9,112.9 57.7,112.9 57.7,119.2 			"/>
			<polygon fill="#1E1E1E" points="57.7,119.2 57.7,112.9 50.6,112.9 			"/>
			<polygon fill="#333333" points="50.6,112.9 50.6,119.2 57.7,119.2 			"/>
			<polygon fill="#292929" points="50.6,125.5 57.7,119.2 50.6,119.2 			"/>
		</g>
		<g>
			<g>
				<polygon fill="#1E1E1E" points="50.6,100.3 57.8,100.3 57.8,94 				"/>
				<polygon fill="#333333" points="64.9,100.3 57.8,100.3 57.8,94 				"/>
			</g>
			<polygon fill="#1E1E1E" points="64.9,100.3 64.9,94 57.8,94 			"/>
			<polygon fill="#303030" points="65,87.7 64.9,94 57.8,94 			"/>
			<polygon fill="#161616" points="65,87.7 57.8,87.7 57.8,94 			"/>
			<polygon fill="#1E1E1E" points="57.8,94 57.8,87.7 50.6,87.7 			"/>
			<polygon fill="#333333" points="50.6,87.7 50.6,94 57.8,94 			"/>
			<polygon fill="#1B1B1B" points="50.6,100.3 57.8,94 50.6,94 			"/>
		</g>
		<g>
			<g>
				<polygon fill="#1E1E1E" points="50.6,112.9 57.7,112.9 57.8,106.6 				"/>
				<polygon fill="#171717" points="64.9,112.9 57.7,112.9 57.8,106.6 				"/>
			</g>
			<polygon fill="#3D3D3D" points="64.9,112.9 64.9,106.6 57.8,106.6 			"/>
			<polygon fill="#1E1E1E" points="64.9,100.3 64.9,106.6 57.8,106.6 			"/>
			<polygon fill="#121212" points="64.9,100.3 57.8,100.3 57.8,106.6 			"/>
			<polygon fill="#272727" points="57.8,106.6 57.8,100.3 50.6,100.3 			"/>
			<polygon fill="#141414" points="50.6,100.3 50.6,106.6 57.8,106.6 			"/>
			<polygon fill="#141414" points="50.6,112.9 57.8,106.6 50.6,106.6 			"/>
		</g>
		<g>
			<g>
				<polygon fill="#1E1E1E" points="79.3,125.5 86.5,125.5 86.5,119.2 				"/>
				<polygon fill="#333333" points="93.6,125.5 86.5,125.5 86.5,119.2 				"/>
			</g>
			<polygon fill="#1E1E1E" points="93.6,125.5 93.7,119.2 86.5,119.2 			"/>
			<polygon fill="#303030" points="93.7,112.9 93.7,119.2 86.5,119.2 			"/>
			<polygon fill="#3F3F3F" points="93.7,112.9 86.5,112.9 86.5,119.2 			"/>
			<polygon fill="#1E1E1E" points="86.5,119.2 86.5,112.9 79.3,112.9 			"/>
			<polygon fill="#333333" points="79.3,112.9 79.3,119.2 86.5,119.2 			"/>
			<polygon fill="#0C0C0C" points="79.3,125.5 86.5,119.2 79.3,119.2 			"/>
		</g>
		<g>
			<g>
				<polygon fill="#1E1E1E" points="64.9,125.5 72.1,125.5 72.1,119.2 				"/>
				<polygon fill="#171717" points="79.3,125.5 72.1,125.5 72.1,119.2 				"/>
			</g>
			<polygon fill="#3D3D3D" points="79.3,125.5 79.3,119.2 72.1,119.2 			"/>
			<polygon fill="#1E1E1E" points="79.3,112.9 79.3,119.2 72.1,119.2 			"/>
			<polygon fill="#121212" points="79.3,112.9 72.1,112.9 72.1,119.2 			"/>
			<polygon fill="#272727" points="72.1,119.2 72.1,112.9 64.9,112.9 			"/>
			<polygon fill="#444444" points="64.9,112.9 64.9,119.2 72.1,119.2 			"/>
			<polygon fill="#191919" points="64.9,125.5 72.1,119.2 64.9,119.2 			"/>
		</g>
		<g>
			<g>
				<polygon fill="#1E1E1E" points="108,125.5 115.2,125.5 115.2,119.2 				"/>
				<polygon fill="#333333" points="122.4,125.5 115.2,125.5 115.2,119.2 				"/>
			</g>
			<polygon fill="#1E1E1E" points="122.4,125.5 122.4,119.2 115.2,119.2 			"/>
			<polygon fill="#303030" points="122.4,113 122.4,119.2 115.2,119.2 			"/>
			<polygon fill="#212121" points="122.4,113 115.2,112.9 115.2,119.2 			"/>
			<polygon fill="#1E1E1E" points="115.2,119.2 115.2,112.9 108,112.9 			"/>
			<polygon fill="#333333" points="108,112.9 108,119.2 115.2,119.2 			"/>
			<polygon fill="#222222" points="108,125.5 115.2,119.2 108,119.2 			"/>
		</g>
		<g>
			<g>
				<polygon fill="#1E1E1E" points="93.6,125.5 100.8,125.5 100.8,119.2 				"/>
				<polygon fill="#171717" points="108,125.5 100.8,125.5 100.8,119.2 				"/>
			</g>
			<polygon fill="#3D3D3D" points="108,125.5 108,119.2 100.8,119.2 			"/>
			<polygon fill="#1E1E1E" points="108,112.9 108,119.2 100.8,119.2 			"/>
			<polygon fill="#121212" points="108,112.9 100.8,112.9 100.8,119.2 			"/>
			<polygon fill="#272727" points="100.8,119.2 100.8,112.9 93.7,112.9 			"/>
			<polygon fill="#161616" points="93.7,112.9 93.7,119.2 100.8,119.2 			"/>
			<polygon fill="#191919" points="93.6,125.5 100.8,119.2 93.7,119.2 			"/>
		</g>
		<g>
			<g>
				<polygon fill="#1E1E1E" points="93.7,112.9 100.8,112.9 100.8,106.6 				"/>
				<polygon fill="#333333" points="108,112.9 100.8,112.9 100.8,106.6 				"/>
			</g>
			<polygon fill="#1E1E1E" points="108,112.9 108,106.7 100.8,106.6 			"/>
			<polygon fill="#303030" points="108,100.4 108,106.7 100.8,106.6 			"/>
			<polygon fill="#141414" points="108,100.4 100.9,100.4 100.8,106.6 			"/>
			<polygon fill="#1E1E1E" points="100.8,106.6 100.9,100.4 93.7,100.3 			"/>
			<polygon fill="#333333" points="93.7,100.3 93.7,106.6 100.8,106.6 			"/>
			<polygon fill="#242424" points="93.7,112.9 100.8,106.6 93.7,106.6 			"/>
		</g>
		<g>
			<g>
				<polygon fill="#1E1E1E" points="108,100.4 115.2,100.4 115.2,94.1 				"/>
				<polygon fill="#333333" points="122.4,100.4 115.2,100.4 115.2,94.1 				"/>
			</g>
			<polygon fill="#1E1E1E" points="122.4,100.4 122.4,94.1 115.2,94.1 			"/>
			<polygon fill="#303030" points="122.4,87.8 122.4,94.1 115.2,94.1 			"/>
			<polygon fill="#1C1C1C" points="122.4,87.8 115.2,87.8 115.2,94.1 			"/>
			<polygon fill="#1E1E1E" points="115.2,94.1 115.2,87.8 108,87.8 			"/>
			<polygon fill="#333333" points="108,87.8 108,94.1 115.2,94.1 			"/>
			<polygon fill="#2D2D2D" points="108,100.4 115.2,94.1 108,94.1 			"/>
		</g>
		<g>
			<g>
				<polygon fill="#1E1E1E" points="108,112.9 115.2,112.9 115.2,106.7 				"/>
				<polygon fill="#171717" points="122.4,113 115.2,112.9 115.2,106.7 				"/>
			</g>
			<polygon fill="#3D3D3D" points="122.4,113 122.4,106.7 115.2,106.7 			"/>
			<polygon fill="#1E1E1E" points="122.4,100.4 122.4,106.7 115.2,106.7 			"/>
			<polygon fill="#121212" points="122.4,100.4 115.2,100.4 115.2,106.7 			"/>
			<polygon fill="#272727" points="115.2,106.7 115.2,100.4 108,100.4 			"/>
			<polygon fill="#313131" points="108,100.4 108,106.7 115.2,106.7 			"/>
			<polygon fill="#191919" points="108,112.9 115.2,106.7 108,106.7 			"/>
		</g>
		<g>
			<g>
				<polygon fill="#1E1E1E" points="93.7,100.3 100.9,100.4 100.9,94.1 				"/>
				<polygon fill="#171717" points="108,100.4 100.9,100.4 100.9,94.1 				"/>
			</g>
			<polygon fill="#282828" points="108,100.4 108,94.1 100.9,94.1 			"/>
			<polygon fill="#1E1E1E" points="108,87.8 108,94.1 100.9,94.1 			"/>
			<polygon fill="#121212" points="108,87.8 100.9,87.8 100.9,94.1 			"/>
			<polygon fill="#272727" points="100.9,94.1 100.9,87.8 93.7,87.8 			"/>
			<polygon fill="#1B1B1B" points="93.7,87.8 93.7,94.1 100.9,94.1 			"/>
			<polygon fill="#191919" points="93.7,100.3 100.9,94.1 93.7,94.1 			"/>
		</g>
		<g>
			<g>
				<polygon fill="#1E1E1E" points="64.9,112.9 72.1,112.9 72.1,106.6 				"/>
				<polygon fill="#333333" points="79.3,112.9 72.1,112.9 72.1,106.6 				"/>
			</g>
			<polygon fill="#1E1E1E" points="79.3,112.9 79.3,106.6 72.1,106.6 			"/>
			<polygon fill="#303030" points="79.3,100.3 79.3,106.6 72.1,106.6 			"/>
			<polygon fill="#373737" points="79.3,100.3 72.1,100.3 72.1,106.6 			"/>
			<polygon fill="#1E1E1E" points="72.1,106.6 72.1,100.3 64.9,100.3 			"/>
			<polygon fill="#333333" points="64.9,100.3 64.9,106.6 72.1,106.6 			"/>
			<polygon fill="#2D2D2D" points="64.9,112.9 72.1,106.6 64.9,106.6 			"/>
		</g>
		<g>
			<g>
				<polygon fill="#1E1E1E" points="79.3,100.3 86.5,100.3 86.5,94.1 				"/>
				<polygon fill="#333333" points="93.7,100.3 86.5,100.3 86.5,94.1 				"/>
			</g>
			<polygon fill="#1E1E1E" points="93.7,100.3 93.7,94.1 86.5,94.1 			"/>
			<polygon fill="#303030" points="93.7,87.8 93.7,94.1 86.5,94.1 			"/>
			<polygon fill="#242424" points="93.7,87.8 86.5,87.8 86.5,94.1 			"/>
			<polygon fill="#1E1E1E" points="86.5,94.1 86.5,87.8 79.3,87.8 			"/>
			<polygon fill="#333333" points="79.3,87.8 79.3,94 86.5,94.1 			"/>
			<polygon fill="#1B1B1B" points="79.3,100.3 86.5,94.1 79.3,94 			"/>
		</g>
		<g>
			<g>
				<polygon fill="#1E1E1E" points="79.3,112.9 86.5,112.9 86.5,106.6 				"/>
				<polygon fill="#171717" points="93.7,112.9 86.5,112.9 86.5,106.6 				"/>
			</g>
			<polygon fill="#3D3D3D" points="93.7,112.9 93.7,106.6 86.5,106.6 			"/>
			<polygon fill="#1E1E1E" points="93.7,100.3 93.7,106.6 86.5,106.6 			"/>
			<polygon fill="#121212" points="93.7,100.3 86.5,100.3 86.5,106.6 			"/>
			<polygon fill="#272727" points="86.5,106.6 86.5,100.3 79.3,100.3 			"/>
			<polygon fill="#1A1A1A" points="79.3,100.3 79.3,106.6 86.5,106.6 			"/>
			<polygon fill="#191919" points="79.3,112.9 86.5,106.6 79.3,106.6 			"/>
		</g>
		<g>
			<g>
				<polygon fill="#1E1E1E" points="64.9,100.3 72.1,100.3 72.1,94 				"/>
				<polygon fill="#171717" points="79.3,100.3 72.1,100.3 72.1,94 				"/>
			</g>
			<polygon fill="#3D3D3D" points="79.3,100.3 79.3,94 72.1,94 			"/>
			<polygon fill="#1E1E1E" points="79.3,87.8 79.3,94 72.1,94 			"/>
			<polygon fill="#383838" points="79.3,87.8 72.1,87.8 72.1,94 			"/>
			<polygon fill="#272727" points="72.1,94 72.1,87.8 65,87.7 			"/>
			<polygon fill="#212121" points="65,87.7 64.9,94 72.1,94 			"/>
			<polygon fill="#191919" points="64.9,100.3 72.1,94 64.9,94 			"/>
		</g>
		<g>
			<g>
				<polygon fill="#1E1E1E" points="122.4,125.5 129.6,125.5 129.6,119.2 				"/>
				<line fill="#171717" x1="129.6" y1="125.5" x2="129.6" y2="119.2"/>
			</g>
			<path fill="#3D3D3D" d="M129.6,119.2"/>
			<path fill="#1E1E1E" d="M129.6,119.2"/>
			<line fill="#121212" x1="129.6" y1="113" x2="129.6" y2="119.2"/>
			<polygon fill="#272727" points="129.6,119.2 129.6,113 122.4,113 			"/>
			<polygon fill="#1F1F1F" points="122.4,113 122.4,119.2 129.6,119.2 			"/>
			<polygon fill="#191919" points="122.4,125.5 129.6,119.2 122.4,119.2 			"/>
		</g>
		<g>
			<g>
				<polygon fill="#1E1E1E" points="122.4,113 129.6,113 129.6,106.7 				"/>
				<line fill="#333333" x1="129.6" y1="113" x2="129.6" y2="106.7"/>
			</g>
			<path fill="#1E1E1E" d="M129.6,106.7"/>
			<path fill="#303030" d="M129.6,106.7"/>
			<line fill="#565656" x1="129.6" y1="100.4" x2="129.6" y2="106.7"/>
			<polygon fill="#1E1E1E" points="129.6,106.7 129.6,100.4 122.4,100.4 			"/>
			<polygon fill="#333333" points="122.4,100.4 122.4,106.7 129.6,106.7 			"/>
			<polygon fill="#282828" points="122.4,113 129.6,106.7 122.4,106.7 			"/>
		</g>
		<g>
			<g>
				<polygon fill="#1E1E1E" points="122.4,100.4 129.6,100.4 129.6,94.1 				"/>
				<line fill="#171717" x1="129.6" y1="100.4" x2="129.6" y2="94.1"/>
			</g>
			<path fill="#3D3D3D" d="M129.6,94.1"/>
			<path fill="#1E1E1E" d="M129.6,94.1"/>
			<line fill="#121212" x1="129.6" y1="87.8" x2="129.6" y2="94.1"/>
			<polygon fill="#272727" points="129.6,94.1 129.6,87.8 122.4,87.8 			"/>
			<polygon fill="#171717" points="122.4,87.8 122.4,94.1 129.6,94.1 			"/>
			<polygon fill="#191919" points="122.4,100.4 129.6,94.1 122.4,94.1 			"/>
		</g>
		<g>
			<g>
				<polygon fill="#2B2B2B" points="50.6,87.7 57.8,87.7 57.8,81.5 				"/>
				<polygon fill="#333333" points="65,87.7 57.8,87.7 57.8,81.5 				"/>
			</g>
			<polygon fill="#1E1E1E" points="65,87.7 65,81.5 57.8,81.5 			"/>
			<polygon fill="#303030" points="65,75.2 65,81.5 57.8,81.5 			"/>
			<polygon fill="#1B1B1B" points="65,75.2 57.8,75.2 57.8,81.5 			"/>
			<polygon fill="#1E1E1E" points="57.8,81.5 57.8,75.2 50.6,75.2 			"/>
			<polygon fill="#333333" points="50.6,75.2 50.6,81.4 57.8,81.5 			"/>
			<polygon fill="#383838" points="50.6,87.7 57.8,81.5 50.6,81.4 			"/>
		</g>
		<g>
			<g>
				<polygon fill="#1E1E1E" points="50.6,62.6 57.8,62.6 57.8,56.3 				"/>
				<polygon fill="#333333" points="65,62.6 57.8,62.6 57.8,56.3 				"/>
			</g>
			<polygon fill="#1B1B1B" points="65,62.6 65,56.3 57.8,56.3 			"/>
			<polygon fill="#303030" points="65,50 65,56.3 57.8,56.3 			"/>
			<polygon fill="#232323" points="65,50 57.8,50 57.8,56.3 			"/>
			<polygon fill="#1E1E1E" points="57.8,56.3 57.8,50 50.6,50 			"/>
			<polygon fill="#333333" points="50.6,50 50.6,56.3 57.8,56.3 			"/>
			<polygon fill="#2C2C2C" points="50.6,62.6 57.8,56.3 50.6,56.3 			"/>
		</g>
		<g>
			<g>
				<polygon fill="#1E1E1E" points="50.6,75.2 57.8,75.2 57.8,68.9 				"/>
				<polygon fill="#171717" points="65,75.2 57.8,75.2 57.8,68.9 				"/>
			</g>
			<polygon fill="#252525" points="65,75.2 65,68.9 57.8,68.9 			"/>
			<polygon fill="#1E1E1E" points="65,62.6 65,68.9 57.8,68.9 			"/>
			<polygon fill="#141414" points="65,62.6 57.8,62.6 57.8,68.9 			"/>
			<polygon fill="#272727" points="57.8,68.9 57.8,62.6 50.6,62.6 			"/>
			<polygon fill="#191919" points="50.6,62.6 50.6,68.9 57.8,68.9 			"/>
			<polygon fill="#191919" points="50.6,75.2 57.8,68.9 50.6,68.9 			"/>
		</g>
		<g>
			<g>
				<polygon fill="#1E1E1E" points="65,75.2 72.1,75.2 72.2,68.9 				"/>
				<polygon fill="#333333" points="79.3,75.2 72.1,75.2 72.2,68.9 				"/>
			</g>
			<polygon fill="#252525" points="79.3,75.2 79.3,68.9 72.2,68.9 			"/>
			<polygon fill="#1B1B1B" points="79.3,62.6 79.3,68.9 72.2,68.9 			"/>
			<polygon fill="#2F2F2F" points="79.3,62.6 72.2,62.6 72.2,68.9 			"/>
			<polygon fill="#1E1E1E" points="72.2,68.9 72.2,62.6 65,62.6 			"/>
			<polygon fill="#333333" points="65,62.6 65,68.9 72.2,68.9 			"/>
			<polygon fill="#141414" points="65,75.2 72.2,68.9 65,68.9 			"/>
		</g>
		<g>
			<g>
				<polygon fill="#2E2E2E" points="79.3,62.6 86.5,62.6 86.5,56.3 				"/>
				<polygon fill="#333333" points="93.7,62.6 86.5,62.6 86.5,56.3 				"/>
			</g>
			<polygon fill="#1E1E1E" points="93.7,62.6 93.7,56.3 86.5,56.3 			"/>
			<polygon fill="#303030" points="93.7,50 93.7,56.3 86.5,56.3 			"/>
			<polygon fill="#161616" points="93.7,50 86.5,50 86.5,56.3 			"/>
			<polygon fill="#1E1E1E" points="86.5,56.3 86.5,50 79.4,50 			"/>
			<polygon fill="#333333" points="79.4,50 79.3,56.3 86.5,56.3 			"/>
			<polygon fill="#1B1B1B" points="79.3,62.6 86.5,56.3 79.3,56.3 			"/>
		</g>
		<g>
			<g>
				<polygon fill="#1E1E1E" points="79.3,75.2 86.5,75.2 86.5,68.9 				"/>
				<polygon fill="#222222" points="93.7,75.2 86.5,75.2 86.5,68.9 				"/>
			</g>
			<polygon fill="#3D3D3D" points="93.7,75.2 93.7,68.9 86.5,68.9 			"/>
			<polygon fill="#1E1E1E" points="93.7,62.6 93.7,68.9 86.5,68.9 			"/>
			<polygon fill="#121212" points="93.7,62.6 86.5,62.6 86.5,68.9 			"/>
			<polygon fill="#272727" points="86.5,68.9 86.5,62.6 79.3,62.6 			"/>
			<polygon fill="#101010" points="79.3,62.6 79.3,68.9 86.5,68.9 			"/>
			<polygon fill="#191919" points="79.3,75.2 86.5,68.9 79.3,68.9 			"/>
		</g>
		<g>
			<g>
				<polygon fill="#1E1E1E" points="65,62.6 72.2,62.6 72.2,56.3 				"/>
				<polygon fill="#171717" points="79.3,62.6 72.2,62.6 72.2,56.3 				"/>
			</g>
			<polygon fill="#161616" points="79.3,62.6 79.3,56.3 72.2,56.3 			"/>
			<polygon fill="#1E1E1E" points="79.4,50 79.3,56.3 72.2,56.3 			"/>
			<polygon fill="#121212" points="79.4,50 72.2,50 72.2,56.3 			"/>
			<polygon fill="#272727" points="72.2,56.3 72.2,50 65,50 			"/>
			<polygon fill="#161616" points="65,50 65,56.3 72.2,56.3 			"/>
			<polygon fill="#191919" points="65,62.6 72.2,56.3 65,56.3 			"/>
		</g>
		<g>
			<g>
				<polygon fill="#1E1E1E" points="93.7,75.2 100.9,75.2 100.9,68.9 				"/>
				<polygon fill="#333333" points="108.1,75.2 100.9,75.2 100.9,68.9 				"/>
			</g>
			<polygon fill="#1E1E1E" points="108.1,75.2 108.1,68.9 100.9,68.9 			"/>
			<polygon fill="#303030" points="108.1,62.6 108.1,68.9 100.9,68.9 			"/>
			<polygon fill="#323232" points="108.1,62.6 100.9,62.6 100.9,68.9 			"/>
			<polygon fill="#1E1E1E" points="100.9,68.9 100.9,62.6 93.7,62.6 			"/>
			<polygon fill="#333333" points="93.7,62.6 93.7,68.9 100.9,68.9 			"/>
			<polygon fill="#1B1B1B" points="93.7,75.2 100.9,68.9 93.7,68.9 			"/>
		</g>
		<g>
			<g>
				<polygon fill="#1E1E1E" points="108.1,62.6 115.2,62.6 115.3,56.3 				"/>
				<polygon fill="#333333" points="122.4,62.6 115.2,62.6 115.3,56.3 				"/>
			</g>
			<polygon fill="#1E1E1E" points="122.4,62.6 122.4,56.4 115.3,56.3 			"/>
			<polygon fill="#303030" points="122.4,50.1 122.4,56.4 115.3,56.3 			"/>
			<polygon fill="#1A1A1A" points="122.4,50.1 115.3,50.1 115.3,56.3 			"/>
			<polygon fill="#1E1E1E" points="115.3,56.3 115.3,50.1 108.1,50.1 			"/>
			<polygon fill="#121212" points="108.1,50.1 108.1,56.3 115.3,56.3 			"/>
			<polygon fill="#383838" points="108.1,62.6 115.3,56.3 108.1,56.3 			"/>
		</g>
		<g>
			<g>
				<polygon fill="#1E1E1E" points="108.1,75.2 115.2,75.2 115.2,68.9 				"/>
				<polygon fill="#171717" points="122.4,75.2 115.2,75.2 115.2,68.9 				"/>
			</g>
			<polygon fill="#3D3D3D" points="122.4,75.2 122.4,68.9 115.2,68.9 			"/>
			<polygon fill="#1E1E1E" points="122.4,62.6 122.4,68.9 115.2,68.9 			"/>
			<polygon fill="#121212" points="122.4,62.6 115.2,62.6 115.2,68.9 			"/>
			<polygon fill="#272727" points="115.2,68.9 115.2,62.6 108.1,62.6 			"/>
			<polygon fill="#191919" points="108.1,62.6 108.1,68.9 115.2,68.9 			"/>
			<polygon fill="#191919" points="108.1,75.2 115.2,68.9 108.1,68.9 			"/>
		</g>
		<g>
			<g>
				<polygon fill="#1E1E1E" points="93.7,62.6 100.9,62.6 100.9,56.3 				"/>
				<polygon fill="#171717" points="108.1,62.6 100.9,62.6 100.9,56.3 				"/>
			</g>
			<polygon fill="#141414" points="108.1,62.6 108.1,56.3 100.9,56.3 			"/>
			<polygon fill="#1E1E1E" points="108.1,50.1 108.1,56.3 100.9,56.3 			"/>
			<polygon fill="#121212" points="108.1,50.1 100.9,50 100.9,56.3 			"/>
			<polygon fill="#272727" points="100.9,56.3 100.9,50 93.7,50 			"/>
			<polygon fill="#222222" points="93.7,50 93.7,56.3 100.9,56.3 			"/>
			<polygon fill="#191919" points="93.7,62.6 100.9,56.3 93.7,56.3 			"/>
		</g>
		<g>
			<g>
				<polygon fill="#1E1E1E" points="108,87.8 115.2,87.8 115.2,81.5 				"/>
				<polygon fill="#333333" points="122.4,87.8 115.2,87.8 115.2,81.5 				"/>
			</g>
			<polygon fill="#1E1E1E" points="122.4,87.8 122.4,81.5 115.2,81.5 			"/>
			<polygon fill="#303030" points="122.4,75.2 122.4,81.5 115.2,81.5 			"/>
			<polygon fill="#373737" points="122.4,75.2 115.2,75.2 115.2,81.5 			"/>
			<polygon fill="#1E1E1E" points="115.2,81.5 115.2,75.2 108.1,75.2 			"/>
			<polygon fill="#333333" points="108.1,75.2 108.1,81.5 115.2,81.5 			"/>
			<polygon fill="#151515" points="108,87.8 115.2,81.5 108.1,81.5 			"/>
		</g>
		<g>
			<g>
				<polygon fill="#1E1E1E" points="93.7,87.8 100.9,87.8 100.9,81.5 				"/>
				<polygon fill="#3B3B3B" points="108,87.8 100.9,87.8 100.9,81.5 				"/>
			</g>
			<polygon fill="#3D3D3D" points="108,87.8 108.1,81.5 100.9,81.5 			"/>
			<polygon fill="#1E1E1E" points="108.1,75.2 108.1,81.5 100.9,81.5 			"/>
			<polygon fill="#3E3E3E" points="108.1,75.2 100.9,75.2 100.9,81.5 			"/>
			<polygon fill="#323232" points="100.9,81.5 100.9,75.2 93.7,75.2 			"/>
			<polygon fill="#1B1B1B" points="93.7,75.2 93.7,81.5 100.9,81.5 			"/>
			<polygon fill="#191919" points="93.7,87.8 100.9,81.5 93.7,81.5 			"/>
		</g>
		<g>
			<g>
				<polygon fill="#1E1E1E" points="122.4,75.2 129.6,75.2 129.6,68.9 				"/>
				<line fill="#333333" x1="129.6" y1="75.2" x2="129.6" y2="68.9"/>
			</g>
			<path fill="#1E1E1E" d="M129.6,68.9"/>
			<path fill="#303030" d="M129.6,68.9"/>
			<line fill="#2B2B2B" x1="129.6" y1="62.6" x2="129.6" y2="68.9"/>
			<polygon fill="#1E1E1E" points="129.6,68.9 129.6,62.6 122.4,62.6 			"/>
			<polygon fill="#333333" points="122.4,62.6 122.4,68.9 129.6,68.9 			"/>
			<polygon fill="#141414" points="122.4,75.2 129.6,68.9 122.4,68.9 			"/>
		</g>
		<g>
			<g>
				<polygon fill="#1E1E1E" points="122.4,62.6 129.6,62.6 129.6,56.4 				"/>
				<line fill="#171717" x1="129.6" y1="62.6" x2="129.6" y2="56.4"/>
			</g>
			<path fill="#3D3D3D" d="M129.6,56.4"/>
			<path fill="#1E1E1E" d="M129.6,56.4"/>
			<line fill="#121212" x1="129.6" y1="50.1" x2="129.6" y2="56.4"/>
			<polygon fill="#272727" points="129.6,56.4 129.6,50.1 122.4,50.1 			"/>
			<polygon fill="#323232" points="122.4,50.1 122.4,56.4 129.6,56.4 			"/>
			<polygon fill="#191919" points="122.4,62.6 129.6,56.4 122.4,56.4 			"/>
		</g>
		<g>
			<g>
				<polygon fill="#1E1E1E" points="122.4,87.8 129.6,87.8 129.6,81.5 				"/>
				<line fill="#171717" x1="129.6" y1="87.8" x2="129.6" y2="81.5"/>
			</g>
			<path fill="#3D3D3D" d="M129.6,81.5"/>
			<path fill="#141414" d="M129.6,81.5"/>
			<line fill="#121212" x1="129.6" y1="75.2" x2="129.6" y2="81.5"/>
			<polygon fill="#272727" points="129.6,81.5 129.6,75.2 122.4,75.2 			"/>
			<polygon fill="#343434" points="122.4,75.2 122.4,81.5 129.6,81.5 			"/>
			<polygon fill="#191919" points="122.4,87.8 129.6,81.5 122.4,81.5 			"/>
		</g>
		<g>
			<g>
				<polygon fill="#1E1E1E" points="79.3,87.8 86.5,87.8 86.5,81.5 				"/>
				<polygon fill="#333333" points="93.7,87.8 86.5,87.8 86.5,81.5 				"/>
			</g>
			<polygon fill="#1E1E1E" points="93.7,87.8 93.7,81.5 86.5,81.5 			"/>
			<polygon fill="#1B1B1B" points="93.7,75.2 93.7,81.5 86.5,81.5 			"/>
			<polygon fill="#141414" points="93.7,75.2 86.5,75.2 86.5,81.5 			"/>
			<polygon fill="#222222" points="86.5,81.5 86.5,75.2 79.3,75.2 			"/>
			<polygon fill="#313131" points="79.3,75.2 79.3,81.5 86.5,81.5 			"/>
			<polygon fill="#1C1C1C" points="79.3,87.8 86.5,81.5 79.3,81.5 			"/>
		</g>
		<g>
			<g>
				<polygon fill="#1E1E1E" points="65,87.7 72.1,87.8 72.1,81.5 				"/>
				<polygon fill="#171717" points="79.3,87.8 72.1,87.8 72.1,81.5 				"/>
			</g>
			<polygon fill="#282828" points="79.3,87.8 79.3,81.5 72.1,81.5 			"/>
			<polygon fill="#1E1E1E" points="79.3,75.2 79.3,81.5 72.1,81.5 			"/>
			<polygon fill="#292929" points="79.3,75.2 72.1,75.2 72.1,81.5 			"/>
			<polygon fill="#272727" points="72.1,81.5 72.1,75.2 65,75.2 			"/>
			<polygon fill="#222222" points="65,75.2 65,81.5 72.1,81.5 			"/>
			<polygon fill="#191919" points="65,87.7 72.1,81.5 65,81.5 			"/>
		</g>
		<g>
			<g>
				<polygon fill="#1E1E1E" points="50.6,50 57.8,50 57.8,43.7 				"/>
				<polygon fill="#333333" points="65,50 57.8,50 57.8,43.7 				"/>
			</g>
			<polygon fill="#1E1E1E" points="65,50 65,43.7 57.8,43.7 			"/>
			<polygon fill="#303030" points="65,37.4 65,43.7 57.8,43.7 			"/>
			<polygon fill="#292929" points="65,37.4 57.8,37.4 57.8,43.7 			"/>
			<polygon fill="#1E1E1E" points="57.8,43.7 57.8,37.4 50.6,37.4 			"/>
			<polygon fill="#333333" points="50.6,37.4 50.6,43.7 57.8,43.7 			"/>
			<polygon fill="#292929" points="50.6,50 57.8,43.7 50.6,43.7 			"/>
		</g>
		<g>
			<g>
				<polygon fill="#1E1E1E" points="-14,24.8 -6.8,24.8 -6.8,18.5 				"/>
				<polygon fill="#333333" points="0.4,24.8 -6.8,24.8 -6.8,18.5 				"/>
			</g>
			<polygon fill="#1E1E1E" points="0.4,24.8 0.4,18.5 -6.8,18.5 			"/>
			<polygon fill="#303030" points="0.4,12.2 0.4,18.5 -6.8,18.5 			"/>
			<polygon fill="#161616" points="0.4,12.2 -6.8,12.2 -6.8,18.5 			"/>
			<polygon fill="#1E1E1E" points="-6.8,18.5 -6.8,12.2 -14,12.2 			"/>
			<polygon fill="#333333" points="-14,12.2 -14,18.5 -6.8,18.5 			"/>
			<polygon fill="#1B1B1B" points="-14,24.8 -6.8,18.5 -14,18.5 			"/>
		</g>
		<g>
			<g>
				<polygon fill="#1E1E1E" points="-14,37.4 -6.8,37.4 -6.8,31.1 				"/>
				<polygon fill="#171717" points="0.4,37.4 -6.8,37.4 -6.8,31.1 				"/>
			</g>
			<polygon fill="#3D3D3D" points="0.4,37.4 0.4,31.1 -6.8,31.1 			"/>
			<polygon fill="#1E1E1E" points="0.4,24.8 0.4,31.1 -6.8,31.1 			"/>
			<polygon fill="#191919" points="0.4,24.8 -6.8,24.8 -6.8,31.1 			"/>
			<polygon fill="#272727" points="-6.8,31.1 -6.8,24.8 -14,24.8 			"/>
			<polygon fill="#141414" points="-14,24.8 -14,31.1 -6.8,31.1 			"/>
			<polygon fill="#141414" points="-14,37.4 -6.8,31.1 -14,31.1 			"/>
		</g>
		<g>
			<g>
				<polygon fill="#1E1E1E" points="79.4,50 86.5,50 86.5,43.7 				"/>
				<polygon fill="#333333" points="93.7,50 86.5,50 86.5,43.7 				"/>
			</g>
			<polygon fill="#1E1E1E" points="93.7,50 93.7,43.8 86.5,43.7 			"/>
			<polygon fill="#303030" points="93.7,37.5 93.7,43.8 86.5,43.7 			"/>
			<polygon fill="#3F3F3F" points="93.7,37.5 86.5,37.5 86.5,43.7 			"/>
			<polygon fill="#1E1E1E" points="86.5,43.7 86.5,37.5 79.4,37.4 			"/>
			<polygon fill="#333333" points="79.4,37.4 79.4,43.7 86.5,43.7 			"/>
			<polygon fill="#1A1A1A" points="79.4,50 86.5,43.7 79.4,43.7 			"/>
		</g>
		<g>
			<g>
				<polygon fill="#1E1E1E" points="65,50 72.2,50 72.2,43.7 				"/>
				<polygon fill="#171717" points="79.4,50 72.2,50 72.2,43.7 				"/>
			</g>
			<polygon fill="#3D3D3D" points="79.4,50 79.4,43.7 72.2,43.7 			"/>
			<polygon fill="#1E1E1E" points="79.4,37.4 79.4,43.7 72.2,43.7 			"/>
			<polygon fill="#363636" points="79.4,37.4 72.2,37.4 72.2,43.7 			"/>
			<polygon fill="#272727" points="72.2,43.7 72.2,37.4 65,37.4 			"/>
			<polygon fill="#2B2B2B" points="65,37.4 65,43.7 72.2,43.7 			"/>
			<polygon fill="#222222" points="65,50 72.2,43.7 65,43.7 			"/>
		</g>
		<g>
			<g>
				<polygon fill="#1E1E1E" points="108.1,50.1 115.3,50.1 115.3,43.8 				"/>
				<polygon fill="#333333" points="122.4,50.1 115.3,50.1 115.3,43.8 				"/>
			</g>
			<polygon fill="#1E1E1E" points="122.4,50.1 122.4,43.8 115.3,43.8 			"/>
			<polygon fill="#303030" points="122.5,37.5 122.4,43.8 115.3,43.8 			"/>
			<polygon fill="#212121" points="122.5,37.5 115.3,37.5 115.3,43.8 			"/>
			<polygon fill="#1E1E1E" points="115.3,43.8 115.3,37.5 108.1,37.5 			"/>
			<polygon fill="#333333" points="108.1,37.5 108.1,43.8 115.3,43.8 			"/>
			<polygon fill="#1B1B1B" points="108.1,50.1 115.3,43.8 108.1,43.8 			"/>
		</g>
		<g>
			<g>
				<polygon fill="#1E1E1E" points="93.7,50 100.9,50 100.9,43.8 				"/>
				<polygon fill="#171717" points="108.1,50.1 100.9,50 100.9,43.8 				"/>
			</g>
			<polygon fill="#2A2A2A" points="108.1,50.1 108.1,43.8 100.9,43.8 			"/>
			<polygon fill="#1E1E1E" points="108.1,37.5 108.1,43.8 100.9,43.8 			"/>
			<polygon fill="#121212" points="108.1,37.5 100.9,37.5 100.9,43.8 			"/>
			<polygon fill="#272727" points="100.9,43.8 100.9,37.5 93.7,37.5 			"/>
			<polygon fill="#161616" points="93.7,37.5 93.7,43.8 100.9,43.8 			"/>
			<polygon fill="#191919" points="93.7,50 100.9,43.8 93.7,43.8 			"/>
		</g>
		<g>
			<g>
				<polygon fill="#1E1E1E" points="29.1,37.4 36.3,37.4 36.3,31.1 				"/>
				<polygon fill="#333333" points="43.5,37.4 36.3,37.4 36.3,31.1 				"/>
			</g>
			<polygon fill="#1E1E1E" points="43.5,37.4 43.5,31.1 36.3,31.1 			"/>
			<polygon fill="#303030" points="43.5,24.8 43.5,31.1 36.3,31.1 			"/>
			<polygon fill="#141414" points="43.5,24.8 36.3,24.8 36.3,31.1 			"/>
			<polygon fill="#1E1E1E" points="36.3,31.1 36.3,24.8 29.1,24.8 			"/>
			<polygon fill="#333333" points="29.1,24.8 29.1,31.1 36.3,31.1 			"/>
			<polygon fill="#242424" points="29.1,37.4 36.3,31.1 29.1,31.1 			"/>
		</g>
		<g>
			<g>
				<polygon fill="#1E1E1E" points="43.5,24.8 50.6,24.8 50.7,18.6 				"/>
				<polygon fill="#333333" points="57.8,24.9 50.6,24.8 50.7,18.6 				"/>
			</g>
			<polygon fill="#1E1E1E" points="57.8,24.9 57.8,18.6 50.7,18.6 			"/>
			<polygon fill="#303030" points="57.8,12.3 57.8,18.6 50.7,18.6 			"/>
			<polygon fill="#1C1C1C" points="57.8,12.3 50.7,12.3 50.7,18.6 			"/>
			<polygon fill="#1E1E1E" points="50.7,18.6 50.7,12.3 43.5,12.3 			"/>
			<polygon fill="#333333" points="43.5,12.3 43.5,18.6 50.7,18.6 			"/>
			<polygon fill="#2D2D2D" points="43.5,24.8 50.7,18.6 43.5,18.6 			"/>
		</g>
		<g>
			<g>
				<polygon fill="#1E1E1E" points="43.5,37.4 50.6,37.4 50.6,31.1 				"/>
				<polygon fill="#171717" points="57.8,37.4 50.6,37.4 50.6,31.1 				"/>
			</g>
			<polygon fill="#3D3D3D" points="57.8,37.4 57.8,31.1 50.6,31.1 			"/>
			<polygon fill="#1E1E1E" points="57.8,24.9 57.8,31.1 50.6,31.1 			"/>
			<polygon fill="#3F3F3F" points="57.8,24.9 50.6,24.8 50.6,31.1 			"/>
			<polygon fill="#272727" points="50.6,31.1 50.6,24.8 43.5,24.8 			"/>
			<polygon fill="#313131" points="43.5,24.8 43.5,31.1 50.6,31.1 			"/>
			<polygon fill="#191919" points="43.5,37.4 50.6,31.1 43.5,31.1 			"/>
		</g>
		<g>
			<g>
				<polygon fill="#1E1E1E" points="29.1,24.8 36.3,24.8 36.3,18.5 				"/>
				<polygon fill="#171717" points="43.5,24.8 36.3,24.8 36.3,18.5 				"/>
			</g>
			<polygon fill="#282828" points="43.5,24.8 43.5,18.6 36.3,18.5 			"/>
			<polygon fill="#1E1E1E" points="43.5,12.3 43.5,18.6 36.3,18.5 			"/>
			<polygon fill="#282828" points="43.5,12.3 36.3,12.3 36.3,18.5 			"/>
			<polygon fill="#272727" points="36.3,18.5 36.3,12.3 29.1,12.2 			"/>
			<polygon fill="#1B1B1B" points="29.1,12.2 29.1,18.5 36.3,18.5 			"/>
			<polygon fill="#191919" points="29.1,24.8 36.3,18.5 29.1,18.5 			"/>
		</g>
		<g>
			<g>
				<polygon fill="#1E1E1E" points="0.4,37.4 7.5,37.4 7.6,31.1 				"/>
				<polygon fill="#333333" points="14.7,37.4 7.5,37.4 7.6,31.1 				"/>
			</g>
			<polygon fill="#1E1E1E" points="14.7,37.4 14.7,31.1 7.6,31.1 			"/>
			<polygon fill="#303030" points="14.7,24.8 14.7,31.1 7.6,31.1 			"/>
			<polygon fill="#373737" points="14.7,24.8 7.6,24.8 7.6,31.1 			"/>
			<polygon fill="#1E1E1E" points="7.6,31.1 7.6,24.8 0.4,24.8 			"/>
			<polygon fill="#333333" points="0.4,24.8 0.4,31.1 7.6,31.1 			"/>
			<polygon fill="#2D2D2D" points="0.4,37.4 7.6,31.1 0.4,31.1 			"/>
		</g>
		<g>
			<g>
				<polygon fill="#1E1E1E" points="14.7,24.8 21.9,24.8 21.9,18.5 				"/>
				<polygon fill="#333333" points="29.1,24.8 21.9,24.8 21.9,18.5 				"/>
			</g>
			<polygon fill="#1E1E1E" points="29.1,24.8 29.1,18.5 21.9,18.5 			"/>
			<polygon fill="#303030" points="29.1,12.2 29.1,18.5 21.9,18.5 			"/>
			<polygon fill="#242424" points="29.1,12.2 21.9,12.2 21.9,18.5 			"/>
			<polygon fill="#1E1E1E" points="21.9,18.5 21.9,12.2 14.8,12.2 			"/>
			<polygon fill="#333333" points="14.8,12.2 14.7,18.5 21.9,18.5 			"/>
			<polygon fill="#1B1B1B" points="14.7,24.8 21.9,18.5 14.7,18.5 			"/>
		</g>
		<g>
			<g>
				<polygon fill="#1E1E1E" points="14.7,37.4 21.9,37.4 21.9,31.1 				"/>
				<polygon fill="#171717" points="29.1,37.4 21.9,37.4 21.9,31.1 				"/>
			</g>
			<polygon fill="#3D3D3D" points="29.1,37.4 29.1,31.1 21.9,31.1 			"/>
			<polygon fill="#1E1E1E" points="29.1,24.8 29.1,31.1 21.9,31.1 			"/>
			<polygon fill="#222222" points="29.1,24.8 21.9,24.8 21.9,31.1 			"/>
			<polygon fill="#272727" points="21.9,31.1 21.9,24.8 14.7,24.8 			"/>
			<polygon fill="#1A1A1A" points="14.7,24.8 14.7,31.1 21.9,31.1 			"/>
			<polygon fill="#191919" points="14.7,37.4 21.9,31.1 14.7,31.1 			"/>
		</g>
		<g>
			<g>
				<polygon fill="#1E1E1E" points="0.4,24.8 7.6,24.8 7.6,18.5 				"/>
				<polygon fill="#171717" points="14.7,24.8 7.6,24.8 7.6,18.5 				"/>
			</g>
			<polygon fill="#202020" points="14.7,24.8 14.7,18.5 7.6,18.5 			"/>
			<polygon fill="#1E1E1E" points="14.8,12.2 14.7,18.5 7.6,18.5 			"/>
			<polygon fill="#383838" points="14.8,12.2 7.6,12.2 7.6,18.5 			"/>
			<polygon fill="#272727" points="7.6,18.5 7.6,12.2 0.4,12.2 			"/>
			<polygon fill="#212121" points="0.4,12.2 0.4,18.5 7.6,18.5 			"/>
			<polygon fill="#191919" points="0.4,24.8 7.6,18.5 0.4,18.5 			"/>
		</g>
		<g>
			<g>
				<polygon fill="#1E1E1E" points="122.4,50.1 129.6,50.1 129.6,43.8 				"/>
				<line fill="#171717" x1="129.6" y1="50.1" x2="129.6" y2="43.8"/>
			</g>
			<path fill="#3D3D3D" d="M129.6,43.8"/>
			<path fill="#1E1E1E" d="M129.6,43.8"/>
			<line fill="#121212" x1="129.6" y1="37.5" x2="129.6" y2="43.8"/>
			<polygon fill="#272727" points="129.6,43.8 129.6,37.5 122.5,37.5 			"/>
			<polygon fill="#1F1F1F" points="122.5,37.5 122.4,43.8 129.6,43.8 			"/>
			<polygon fill="#191919" points="122.4,50.1 129.6,43.8 122.4,43.8 			"/>
		</g>
		<g>
			<g>
				<polygon fill="#1E1E1E" points="57.8,37.4 65,37.4 65,31.1 				"/>
				<line fill="#333333" x1="65" y1="37.4" x2="65" y2="31.1"/>
			</g>
			<path fill="#1E1E1E" d="M65,31.1"/>
			<path fill="#303030" d="M65,31.1"/>
			<line fill="#565656" x1="65" y1="24.9" x2="65" y2="31.1"/>
			<polygon fill="#1E1E1E" points="65,31.1 65,24.9 57.8,24.9 			"/>
			<polygon fill="#333333" points="57.8,24.9 57.8,31.1 65,31.1 			"/>
			<polygon fill="#202020" points="57.8,37.4 65,31.1 57.8,31.1 			"/>
		</g>
		<g>
			<g>
				<polygon fill="#1E1E1E" points="57.8,24.9 65,24.9 65,18.6 				"/>
				<line fill="#171717" x1="65" y1="24.9" x2="65" y2="18.6"/>
			</g>
			<path fill="#3D3D3D" d="M65,18.6"/>
			<path fill="#1E1E1E" d="M65,18.6"/>
			<line fill="#121212" x1="65" y1="12.3" x2="65" y2="18.6"/>
			<polygon fill="#272727" points="65,18.6 65,12.3 57.8,12.3 			"/>
			<polygon fill="#171717" points="57.8,12.3 57.8,18.6 65,18.6 			"/>
			<polygon fill="#191919" points="57.8,24.9 65,18.6 57.8,18.6 			"/>
		</g>
		<g>
			<g>
				<polygon fill="#2B2B2B" points="-14,12.2 -6.8,12.2 -6.8,5.9 				"/>
				<polygon fill="#333333" points="0.4,12.2 -6.8,12.2 -6.8,5.9 				"/>
			</g>
			<polygon fill="#1E1E1E" points="0.4,12.2 0.4,5.9 -6.8,5.9 			"/>
			<polygon fill="#303030" points="0.4,-0.4 0.4,5.9 -6.8,5.9 			"/>
			<polygon fill="#1B1B1B" points="0.4,-0.4 -6.8,-0.4 -6.8,5.9 			"/>
			<polygon fill="#1E1E1E" points="-6.8,5.9 -6.8,-0.4 -14,-0.4 			"/>
			<polygon fill="#333333" points="-14,-0.4 -14,5.9 -6.8,5.9 			"/>
			<polygon fill="#292929" points="-14,12.2 -6.8,5.9 -14,5.9 			"/>
		</g>
		<g>
			<g>
				<polygon fill="#1E1E1E" points="50.7,-12.9 57.9,-12.9 57.9,-19.2 				"/>
				<polygon fill="#333333" points="65,-12.9 57.9,-12.9 57.9,-19.2 				"/>
			</g>
			<polygon fill="#1B1B1B" points="65,-12.9 65.1,-19.2 57.9,-19.2 			"/>
			<polygon fill="#303030" points="65.1,-25.4 65.1,-19.2 57.9,-19.2 			"/>
			<polygon fill="#141414" points="65.1,-25.4 57.9,-25.5 57.9,-19.2 			"/>
			<polygon fill="#1E1E1E" points="57.9,-19.2 57.9,-25.5 50.7,-25.5 			"/>
			<polygon fill="#333333" points="50.7,-25.5 50.7,-19.2 57.9,-19.2 			"/>
			<polygon fill="#202020" points="50.7,-12.9 57.9,-19.2 50.7,-19.2 			"/>
		</g>
		<g>
			<g>
				<polygon fill="#1E1E1E" points="-14,-0.4 -6.8,-0.4 -6.8,-6.6 				"/>
				<polygon fill="#171717" points="0.4,-0.4 -6.8,-0.4 -6.8,-6.6 				"/>
			</g>
			<polygon fill="#3D3D3D" points="0.4,-0.4 0.4,-6.6 -6.8,-6.6 			"/>
			<polygon fill="#1E1E1E" points="0.4,-12.9 0.4,-6.6 -6.8,-6.6 			"/>
			<polygon fill="#141414" points="0.4,-12.9 -6.8,-12.9 -6.8,-6.6 			"/>
			<polygon fill="#272727" points="-6.8,-6.6 -6.8,-12.9 -14,-12.9 			"/>
			<polygon fill="#191919" points="-14,-12.9 -14,-6.7 -6.8,-6.6 			"/>
			<polygon fill="#191919" points="-14,-0.4 -6.8,-6.6 -14,-6.7 			"/>
		</g>
		<g>
			<g>
				<polygon fill="#1E1E1E" points="0.4,-0.4 7.6,-0.3 7.6,-6.6 				"/>
				<polygon fill="#333333" points="14.8,-0.3 7.6,-0.3 7.6,-6.6 				"/>
			</g>
			<polygon fill="#252525" points="14.8,-0.3 14.8,-6.6 7.6,-6.6 			"/>
			<polygon fill="#1B1B1B" points="14.8,-12.9 14.8,-6.6 7.6,-6.6 			"/>
			<polygon fill="#2F2F2F" points="14.8,-12.9 7.6,-12.9 7.6,-6.6 			"/>
			<polygon fill="#1E1E1E" points="7.6,-6.6 7.6,-12.9 0.4,-12.9 			"/>
			<polygon fill="#333333" points="0.4,-12.9 0.4,-6.6 7.6,-6.6 			"/>
			<polygon fill="#141414" points="0.4,-0.4 7.6,-6.6 0.4,-6.6 			"/>
		</g>
		<g>
			<g>
				<polygon fill="#2E2E2E" points="79.4,-12.9 86.6,-12.9 86.6,-19.1 				"/>
				<polygon fill="#333333" points="93.8,-12.8 86.6,-12.9 86.6,-19.1 				"/>
			</g>
			<polygon fill="#1E1E1E" points="93.8,-12.8 93.8,-19.1 86.6,-19.1 			"/>
			<polygon fill="#303030" points="93.8,-25.4 93.8,-19.1 86.6,-19.1 			"/>
			<polygon fill="#181818" points="93.8,-25.4 86.6,-25.4 86.6,-19.1 			"/>
			<polygon fill="#1E1E1E" points="86.6,-19.1 86.6,-25.4 79.4,-25.4 			"/>
			<polygon fill="#333333" points="79.4,-25.4 79.4,-19.1 86.6,-19.1 			"/>
			<polygon fill="#1B1B1B" points="79.4,-12.9 86.6,-19.1 79.4,-19.1 			"/>
		</g>
		<g>
			<g>
				<polygon fill="#1E1E1E" points="14.8,-0.3 21.9,-0.3 21.9,-6.6 				"/>
				<polygon fill="#0E0E0E" points="29.1,-0.3 21.9,-0.3 21.9,-6.6 				"/>
			</g>
			<polygon fill="#3D3D3D" points="29.1,-0.3 29.1,-6.6 21.9,-6.6 			"/>
			<polygon fill="#1E1E1E" points="29.1,-12.9 29.1,-6.6 21.9,-6.6 			"/>
			<polygon fill="#121212" points="29.1,-12.9 22,-12.9 21.9,-6.6 			"/>
			<polygon fill="#272727" points="21.9,-6.6 22,-12.9 14.8,-12.9 			"/>
			<polygon fill="#101010" points="14.8,-12.9 14.8,-6.6 21.9,-6.6 			"/>
			<polygon fill="#191919" points="14.8,-0.3 21.9,-6.6 14.8,-6.6 			"/>
		</g>
		<g>
			<g>
				<polygon fill="#1E1E1E" points="65,-12.9 72.2,-12.9 72.2,-19.2 				"/>
				<polygon fill="#171717" points="79.4,-12.9 72.2,-12.9 72.2,-19.2 				"/>
			</g>
			<polygon fill="#161616" points="79.4,-12.9 79.4,-19.1 72.2,-19.2 			"/>
			<polygon fill="#1E1E1E" points="79.4,-25.4 79.4,-19.1 72.2,-19.2 			"/>
			<polygon fill="#121212" points="79.4,-25.4 72.2,-25.4 72.2,-19.2 			"/>
			<polygon fill="#272727" points="72.2,-19.2 72.2,-25.4 65.1,-25.4 			"/>
			<polygon fill="#161616" points="65.1,-25.4 65.1,-19.2 72.2,-19.2 			"/>
			<polygon fill="#191919" points="65,-12.9 72.2,-19.2 65.1,-19.2 			"/>
		</g>
		<g>
			<g>
				<polygon fill="#1E1E1E" points="29.1,-0.3 36.3,-0.3 36.3,-6.6 				"/>
				<polygon fill="#333333" points="43.5,-0.3 36.3,-0.3 36.3,-6.6 				"/>
			</g>
			<polygon fill="#1E1E1E" points="43.5,-0.3 43.5,-6.6 36.3,-6.6 			"/>
			<polygon fill="#303030" points="43.5,-12.9 43.5,-6.6 36.3,-6.6 			"/>
			<polygon fill="#323232" points="43.5,-12.9 36.3,-12.9 36.3,-6.6 			"/>
			<polygon fill="#1E1E1E" points="36.3,-6.6 36.3,-12.9 29.1,-12.9 			"/>
			<polygon fill="#333333" points="29.1,-12.9 29.1,-6.6 36.3,-6.6 			"/>
			<polygon fill="#1B1B1B" points="29.1,-0.3 36.3,-6.6 29.1,-6.6 			"/>
		</g>
		<g>
			<g>
				<polygon fill="#1E1E1E" points="108.1,-12.8 115.3,-12.8 115.3,-19.1 				"/>
				<polygon fill="#333333" points="122.5,-12.8 115.3,-12.8 115.3,-19.1 				"/>
			</g>
			<polygon fill="#1E1E1E" points="122.5,-12.8 122.5,-19.1 115.3,-19.1 			"/>
			<polygon fill="#303030" points="122.5,-25.4 122.5,-19.1 115.3,-19.1 			"/>
			<polygon fill="#4F4F4F" points="122.5,-25.4 115.3,-25.4 115.3,-19.1 			"/>
			<polygon fill="#1E1E1E" points="115.3,-19.1 115.3,-25.4 108.1,-25.4 			"/>
			<polygon fill="#444444" points="108.1,-25.4 108.1,-19.1 115.3,-19.1 			"/>
			<polygon fill="#383838" points="108.1,-12.8 115.3,-19.1 108.1,-19.1 			"/>
		</g>
		<g>
			<g>
				<polygon fill="#1E1E1E" points="43.5,-0.3 50.7,-0.3 50.7,-6.6 				"/>
				<polygon fill="#171717" points="57.9,-0.3 50.7,-0.3 50.7,-6.6 				"/>
			</g>
			<polygon fill="#3D3D3D" points="57.9,-0.3 57.9,-6.6 50.7,-6.6 			"/>
			<polygon fill="#1E1E1E" points="57.9,-12.9 57.9,-6.6 50.7,-6.6 			"/>
			<polygon fill="#121212" points="57.9,-12.9 50.7,-12.9 50.7,-6.6 			"/>
			<polygon fill="#272727" points="50.7,-6.6 50.7,-12.9 43.5,-12.9 			"/>
			<polygon fill="#191919" points="43.5,-12.9 43.5,-6.6 50.7,-6.6 			"/>
			<polygon fill="#191919" points="43.5,-0.3 50.7,-6.6 43.5,-6.6 			"/>
		</g>
		<g>
			<g>
				<polygon fill="#1E1E1E" points="93.8,-12.8 101,-12.8 101,-19.1 				"/>
				<polygon fill="#171717" points="108.1,-12.8 101,-12.8 101,-19.1 				"/>
			</g>
			<polygon fill="#141414" points="108.1,-12.8 108.1,-19.1 101,-19.1 			"/>
			<polygon fill="#1E1E1E" points="108.1,-25.4 108.1,-19.1 101,-19.1 			"/>
			<polygon fill="#121212" points="108.1,-25.4 101,-25.4 101,-19.1 			"/>
			<polygon fill="#272727" points="101,-19.1 101,-25.4 93.8,-25.4 			"/>
			<polygon fill="#222222" points="93.8,-25.4 93.8,-19.1 101,-19.1 			"/>
			<polygon fill="#191919" points="93.8,-12.8 101,-19.1 93.8,-19.1 			"/>
		</g>
		<g>
			<g>
				<polygon fill="#1E1E1E" points="43.5,12.3 50.7,12.3 50.7,6 				"/>
				<polygon fill="#333333" points="57.8,12.3 50.7,12.3 50.7,6 				"/>
			</g>
			<polygon fill="#1E1E1E" points="57.8,12.3 57.8,6 50.7,6 			"/>
			<polygon fill="#303030" points="57.9,-0.3 57.8,6 50.7,6 			"/>
			<polygon fill="#373737" points="57.9,-0.3 50.7,-0.3 50.7,6 			"/>
			<polygon fill="#1E1E1E" points="50.7,6 50.7,-0.3 43.5,-0.3 			"/>
			<polygon fill="#333333" points="43.5,-0.3 43.5,6 50.7,6 			"/>
			<polygon fill="#1C1C1C" points="43.5,12.3 50.7,6 43.5,6 			"/>
		</g>
		<g>
			<g>
				<polygon fill="#1E1E1E" points="29.1,12.2 36.3,12.3 36.3,6 				"/>
				<polygon fill="#3B3B3B" points="43.5,12.3 36.3,12.3 36.3,6 				"/>
			</g>
			<polygon fill="#3D3D3D" points="43.5,12.3 43.5,6 36.3,6 			"/>
			<polygon fill="#1E1E1E" points="43.5,-0.3 43.5,6 36.3,6 			"/>
			<polygon fill="#3E3E3E" points="43.5,-0.3 36.3,-0.3 36.3,6 			"/>
			<polygon fill="#323232" points="36.3,6 36.3,-0.3 29.1,-0.3 			"/>
			<polygon fill="#1B1B1B" points="29.1,-0.3 29.1,6 36.3,6 			"/>
			<polygon fill="#191919" points="29.1,12.2 36.3,6 29.1,6 			"/>
		</g>
		<g>
			<g>
				<polygon fill="#1E1E1E" points="57.9,-0.3 65,-0.3 65,-6.6 				"/>
				<line fill="#333333" x1="65" y1="-0.3" x2="65" y2="-6.6"/>
			</g>
			<path fill="#1E1E1E" d="M65-6.6"/>
			<path fill="#303030" d="M65-6.6"/>
			<line fill="#2B2B2B" x1="65" y1="-12.9" x2="65" y2="-6.6"/>
			<polygon fill="#1E1E1E" points="65,-6.6 65,-12.9 57.9,-12.9 			"/>
			<polygon fill="#333333" points="57.9,-12.9 57.9,-6.6 65,-6.6 			"/>
			<polygon fill="#2D2D2D" points="57.9,-0.3 65,-6.6 57.9,-6.6 			"/>
		</g>
		<g>
			<g>
				<polygon fill="#1E1E1E" points="122.5,-12.8 129.7,-12.8 129.7,-19.1 				"/>
				<line fill="#171717" x1="129.7" y1="-12.8" x2="129.7" y2="-19.1"/>
			</g>
			<path fill="#3D3D3D" d="M129.7-19.1"/>
			<path fill="#1E1E1E" d="M129.7-19.1"/>
			<line fill="#121212" x1="129.7" y1="-25.4" x2="129.7" y2="-19.1"/>
			<polygon fill="#272727" points="129.7,-19.1 129.7,-25.4 122.5,-25.4 			"/>
			<polygon fill="#323232" points="122.5,-25.4 122.5,-19.1 129.7,-19.1 			"/>
			<polygon fill="#191919" points="122.5,-12.8 129.7,-19.1 122.5,-19.1 			"/>
		</g>
		<g>
			<g>
				<polygon fill="#1E1E1E" points="57.8,12.3 65,12.3 65,6 				"/>
				<line fill="#171717" x1="65" y1="12.3" x2="65" y2="6"/>
			</g>
			<path fill="#3D3D3D" d="M65,6"/>
			<path fill="#141414" d="M65,6"/>
			<line fill="#121212" x1="65" y1="-0.3" x2="65" y2="6"/>
			<polygon fill="#272727" points="65,6 65,-0.3 57.9,-0.3 			"/>
			<polygon fill="#343434" points="57.9,-0.3 57.8,6 65,6 			"/>
			<polygon fill="#191919" points="57.8,12.3 65,6 57.8,6 			"/>
		</g>
		<g>
			<g>
				<polygon fill="#1E1E1E" points="14.8,12.2 21.9,12.2 21.9,6 				"/>
				<polygon fill="#333333" points="29.1,12.2 21.9,12.2 21.9,6 				"/>
			</g>
			<polygon fill="#1E1E1E" points="29.1,12.2 29.1,6 21.9,6 			"/>
			<polygon fill="#1B1B1B" points="29.1,-0.3 29.1,6 21.9,6 			"/>
			<polygon fill="#141414" points="29.1,-0.3 21.9,-0.3 21.9,6 			"/>
			<polygon fill="#222222" points="21.9,6 21.9,-0.3 14.8,-0.3 			"/>
			<polygon fill="#313131" points="14.8,-0.3 14.8,5.9 21.9,6 			"/>
			<polygon fill="#1C1C1C" points="14.8,12.2 21.9,6 14.8,5.9 			"/>
		</g>
		<g>
			<g>
				<polygon fill="#1E1E1E" points="0.4,12.2 7.6,12.2 7.6,5.9 				"/>
				<polygon fill="#171717" points="14.8,12.2 7.6,12.2 7.6,5.9 				"/>
			</g>
			<polygon fill="#282828" points="14.8,12.2 14.8,5.9 7.6,5.9 			"/>
			<polygon fill="#1E1E1E" points="14.8,-0.3 14.8,5.9 7.6,5.9 			"/>
			<polygon fill="#292929" points="14.8,-0.3 7.6,-0.3 7.6,5.9 			"/>
			<polygon fill="#272727" points="7.6,5.9 7.6,-0.3 0.4,-0.4 			"/>
			<polygon fill="#222222" points="0.4,-0.4 0.4,5.9 7.6,5.9 			"/>
			<polygon fill="#191919" points="0.4,12.2 7.6,5.9 0.4,5.9 			"/>
		</g>
	</g>
</g>
</svg>
