<svg xmlns="http://www.w3.org/2000/svg" width="320.654" height="37.718" viewBox="0 0 320.654 37.718">
  <defs>
    <style>
      .cls-1 {
        fill: #fff;
        fill-rule: evenodd;
      }
    </style>
  </defs>
  <path id="logo.svg" class="cls-1" d="M774.05,325.826h-9.208l-6.608,22.892-6.763-22.892h-9.053l10.926,36.419h9.781Zm39.209,0h-8.845a7.648,7.648,0,0,1-15.3,0h-8.844a16.5,16.5,0,0,0,12.07,15.92v20.5h8.9v-20.5A16.557,16.557,0,0,0,813.259,325.826Zm20.426,36.939c7.648,0,13.475-5.671,13.475-12.07,0-12.123-17.585-10.354-17.585-14.308,0-.676,0-2.757,4.058-2.757,5.41,0,5.1,4.942,5.1,4.942l8.221-2.5s-1.925-10.769-13.319-10.769c-3.382,0-13.007,1.768-13.007,11.081,0,12.487,17.117,9.677,17.117,14.308,0,2.081-1.509,3.329-4.058,3.329-5.1,0-5.1-5.827-5.1-5.827l-9.105,2.706S821.458,362.765,833.685,362.765Zm60.177-.52-15.348-36.367v-0.052h-9.781v0.052l-15.348,36.367h9.781l3.173-7.648,7.284,7.648,7.284-7.648,3.174,7.648h9.781Zm-20.239-10.354-4.318-4.526,4.318-10.405,4.318,10.405Zm44.306-11.238v7.284h5.827s-0.312.573-.468,0.833a10.492,10.492,0,0,1-9.573,5.306,10.015,10.015,0,0,1,0-20.03,9.865,9.865,0,0,1,6.711,2.549l8.48-3.746a18.86,18.86,0,1,0-15.191,30.072A19.006,19.006,0,0,0,932.6,345.076v-4.423H917.929Zm44.824-14.827v11.862H947.665V325.826h-8.844v36.419h8.844v-5.671h15.088v5.671H971.6V325.826h-8.845Zm0,22.944H947.665v-3.33h15.088v3.33Zm15.068,8.948a4.526,4.526,0,1,0,4.526-4.526A4.53,4.53,0,0,0,977.821,357.718Zm48.589-31.892-12.23,13.215-12.23-13.215h-8.842v36.419h8.842v-22.32L1014.18,352l12.23-12.07v22.32h8.84V325.826h-8.84Zm36.65,7.8v-7.8h-21.59v36.419h21.59v-7.8h-12.75v-2.5h12.75v-7.8h-12.75V333.63h12.75Z" transform="translate(-742.406 -325.188)"/>
</svg>
