<?xml version="1.0" standalone="no"?>
<!DOCTYPE svg PUBLIC "-//W3C//DTD SVG 1.1//EN" "http://www.w3.org/Graphics/SVG/1.1/DTD/svg11.dtd" >
<svg xmlns="http://www.w3.org/2000/svg">
<metadata>
Created by FontPrep 20130207 at Mon Oct 28 22:20:02 2013
 By Jim Tattersall
Copyright (c) 2010 by The Entente (AS &#38; EH). All rights reserved. wf-rip
</metadata>
<defs>
<font id="8a0beb9850cb2881c456fff7b793d9a9" horiz-adv-x='1024' >
  <font-face 
    font-family="Monosten-E"
    font-weight="400"
    font-stretch="normal"
    units-per-em="2048"
    panose-1="2 0 5 9 4 0 0 2 0 4"
    ascent="1536"
    descent="-512"
    x-height="1024"
    cap-height="1434"
    bbox="0 -522 1241 2021"
    underline-thickness="102"
    underline-position="-102"
    unicode-range="U+0020-FB02"
  />
<missing-glyph 
d="M952 1294h-614v-1155h614v1155zM1104 1337v-1241q0 -45 -27.5 -70.5t-72.5 -25.5h-717q-45 0 -73 25.5t-28 70.5v1241q0 45 28 71t73 26h717q45 0 72.5 -26t27.5 -71z" />
    <glyph glyph-name=".notdef" 
d="M952 1294h-614v-1155h614v1155zM1104 1337v-1241q0 -45 -27.5 -70.5t-72.5 -25.5h-717q-45 0 -73 25.5t-28 70.5v1241q0 45 28 71t73 26h717q45 0 72.5 -26t27.5 -71z" />
    <glyph glyph-name=".null" horiz-adv-x="0" 
 />
    <glyph glyph-name="nonmarkingreturn" horiz-adv-x="0" 
 />
    <glyph glyph-name="space" unicode=" " 
 />
    <glyph glyph-name="exclam" unicode="!" 
d="M487 147.5q0 63.5 42 105.5t105.5 42t105.5 -42t42 -105.5t-42 -105.5t-105.5 -42t-105.5 42t-42 105.5zM635 1454q49 0 76.5 -31.5t29.5 -85.5l-30 -778q-4 -109 -76 -109t-76 109l-31 778q2 53 30 85t77 32z" />
    <glyph glyph-name="quotedbl" unicode="&#x22;" 
d="M713 1298q0 156 104.5 156t104.5 -156q0 -113 -34 -268.5t-71 -155.5t-70.5 155.5t-33.5 268.5zM365 1298q0 156 104 156t104 -156q0 -113 -33.5 -268.5t-70.5 -155.5t-70.5 155.5t-33.5 268.5z" />
    <glyph glyph-name="numbersign" unicode="#" 
d="M475 872l-51 -311h307l51 311h-307zM653 68v14l56 340h-308l-55 -340q-12 -82 -80 -82q-29 0 -46 19.5t-17 48.5v14l55 340h-135q-35 0 -55.5 18.5t-20.5 51t20.5 51t55.5 18.5h158l51 311h-209q-35 0 -55.5 18.5t-20.5 51.5t20.5 51.5t55.5 18.5h231l56 340q12 82 79 82
q29 0 46.5 -19.5t17.5 -48.5v-14l-55 -340h307l55 340q12 82 80 82q29 0 45 -18.5t16 -49.5v-14l-53 -340h135q35 0 55.5 -18.5t20.5 -51.5t-20.5 -51.5t-55.5 -18.5h-157l-52 -311h211q35 0 55.5 -18.5t20.5 -51t-20.5 -51t-55.5 -18.5h-233l-55 -340q-12 -82 -80 -82
q-29 0 -46.5 19.5t-17.5 48.5z" />
    <glyph glyph-name="dollar" unicode="$" 
d="M305 1075q0 -84 67.5 -135t194.5 -96v469q-262 -17 -262 -238zM963 386q0 112 -69 169t-204 102v-536q129 14 201 83.5t72 181.5zM174 399q39 0 72 -49q70 -109 139.5 -163t181.5 -66v573q-197 59 -307 144.5t-110 247.5t119.5 259t297.5 107v88q0 78 61.5 78t61.5 -78
v-92q229 -27 352 -221q23 -37 23 -70t-20.5 -53.5t-60.5 -20.5t-69 54q-78 147 -225 172v-506q102 -33 162.5 -58.5t163 -91.5t102.5 -252t-119.5 -295.5t-308.5 -123.5v-88q0 -78 -61.5 -78t-61.5 78v88q-307 24 -454 284q-40 73 -9 103t70 30z" />
    <glyph glyph-name="percent" unicode="%" 
d="M1070 1071q20 0 35 -18.5t15 -44.5t-33 -50l-860 -602q-23 -14 -43 -14t-35.5 19t-15.5 45t33 49l860 600q24 16 44 16zM719 295q0 -94 52 -152.5t142.5 -58.5t144.5 58.5t54 152.5t-54 154.5t-144.5 60.5t-142.5 -60.5t-52 -154.5zM598 296q0 134 89 226t227 92
t228.5 -92t90.5 -226t-90.5 -225t-228.5 -91t-227 91t-89 225zM166 1134.5q0 -94.5 52 -152.5t142.5 -58t144.5 58t54 152.5t-54 155t-144.5 60.5t-142.5 -60.5t-52 -155zM45 1136q0 134 89 226t227 92t228.5 -92t90.5 -226t-90 -225.5t-228 -91.5t-227.5 91.5t-89.5 225.5z
" />
    <glyph glyph-name="ampersand" unicode="&#x26;" 
d="M317 1128q0 -117 138 -270q147 74 197 134.5t50 145.5t-54 131t-138 46t-138.5 -52.5t-54.5 -134.5zM483 119q207 0 332 141l-399 434q-197 -113 -197 -301q0 -131 75.5 -202.5t188.5 -71.5zM1151 70q0 -70 -67 -70q-32 0 -64 35l-115 121q-164 -176 -428 -176
q-178 0 -296 113.5t-118 293.5q0 262 261 408l-15 16q-143 159 -143 311t95 242t252 90t249 -89.5t92 -236.5q0 -213 -307 -362l348 -387q63 129 76 336q6 76 67 76q66 0 66 -76q0 -250 -113 -439l131 -141q29 -31 29 -65z" />
    <glyph glyph-name="quotesingle" unicode="'" 
d="M528 1298q0 156 104.5 156t104.5 -156q0 -113 -33.5 -268.5t-70.5 -155.5t-71 155.5t-34 268.5z" />
    <glyph glyph-name="parenleft" unicode="(" 
d="M756 1532q71 0 71 -62q0 -33 -26 -67q-139 -176 -192.5 -356.5t-53.5 -432.5t53.5 -432t192.5 -356q27 -35 27 -66q-1 -63 -64 -63q-45 0 -80 43q-145 184 -208.5 395t-63.5 479.5t63.5 479.5t208.5 395q35 43 72 43z" />
    <glyph glyph-name="parenright" unicode=")" 
d="M829 614.5q0 -268.5 -63.5 -479.5t-208.5 -395q-35 -43 -72 -43q-71 0 -71 61q0 33 26 68q139 176 192.5 356t53.5 432t-53 432.5t-193 356.5q-26 35 -26 65t18 47t54 17t71 -43q145 -184 208.5 -395t63.5 -479.5z" />
    <glyph glyph-name="asterisk" unicode="*" 
d="M215 707q0 39 55 69l252 146l-252 145q-55 31 -55 70q0 13 12 35t40 22t65 -20l252 -146v291q0 90 61.5 90t61.5 -90v-291l251 146q37 20 65 20t40 -22t12 -35q0 -39 -55 -70l-252 -145l252 -146q55 -31 55 -69q0 -14 -12 -36t-40 -22t-65 21l-251 145v-291
q0 -90 -61.5 -90t-61.5 90v291l-252 -145q-80 -44 -105 0q-12 22 -12 37z" />
    <glyph glyph-name="plus" unicode="+" 
d="M721 985v-305h305q88 0 88 -63.5t-88 -63.5h-305v-305q0 -88 -63.5 -88t-63.5 88v305h-305q-88 0 -88 63.5t88 63.5h305v305q0 88 63.5 88t63.5 -88z" />
    <glyph glyph-name="comma" unicode="," 
d="M534 -223q-57 0 -57 55q0 26 33 50t43 51.5t10 84.5q-76 39 -76 129q0 61 41.5 104.5t105.5 43.5t106 -43t42 -105v-14q-4 -141 -182 -319q-37 -37 -66 -37z" />
    <glyph glyph-name="hyphen" unicode="-" 
d="M311 680h647q88 0 88.5 -63.5t-88.5 -63.5h-647q-88 0 -88 63.5t88 63.5z" />
    <glyph glyph-name="period" unicode="." 
d="M487 147.5q0 63.5 42 105.5t105.5 42t105.5 -42t42 -105.5t-42 -105.5t-105.5 -42t-105.5 42t-42 105.5z" />
    <glyph glyph-name="slash" unicode="/" 
d="M113 0q-63 0 -64 63q0 29 23 58l987 1278q29 35 63 35q63 0 64 -64q0 -28 -23 -57l-987 -1278q-29 -35 -63 -35z" />
    <glyph glyph-name="zero" unicode="0" 
d="M637 106q154 0 227.5 87.5t73.5 228.5v569l-578 -710q62 -175 277 -175zM336 1012v-570l577 711q-61 174 -276 174q-154 0 -227.5 -87t-73.5 -228zM188 471v492q0 221 117 356t332 135t331.5 -135t116.5 -356v-492q0 -221 -116.5 -356t-331.5 -135t-332 135t-117 356z
" />
    <glyph glyph-name="one" unicode="1" 
d="M762 127h285q94 0 94 -63.5t-94 -63.5h-717q-94 0 -94 63.5t94 63.5h284v1087l-260 -167q-63 -35 -93 -6.5t-30 63.5t35 57l377 246q43 27 64 27q55 0 55 -80v-1227z" />
    <glyph glyph-name="two" unicode="2" 
d="M987 0h-694q-47 0 -72.5 27.5t-25.5 72.5v58q0 156 110.5 294t272.5 235t237.5 182t75.5 198t-61.5 186.5t-184.5 73.5t-190.5 -76.5t-75.5 -191.5q-4 -53 -18.5 -78t-53.5 -25q-72 0 -71 101q0 176 118.5 286.5t292.5 110.5t282.5 -105t108.5 -263t-95 -272t-279 -230
q-322 -203 -322 -457h645q94 0 94 -63.5t-94 -63.5z" />
    <glyph glyph-name="three" unicode="3" 
d="M932 420q0 137 -85 212t-226 75h-74q-94 0 -94 63.5t94 63.5h61q123 0 197 66t74 182t-71.5 180.5t-189.5 64.5t-192 -69.5t-82 -186.5q-2 -33 -23.5 -50t-51.5 -17t-50 21.5t-20 57.5q0 147 117.5 259t297.5 112t296 -101.5t116 -275.5q0 -104 -63.5 -188t-139.5 -107
q119 -41 187.5 -131t68.5 -211q0 -217 -127 -338.5t-337 -121.5t-341 124.5t-131 325.5q0 88 70 88q35 0 54.5 -19.5t23.5 -70.5q12 -145 88.5 -233.5t236.5 -88.5t238 88.5t78 225.5z" />
    <glyph glyph-name="four" unicode="4" 
d="M741 492v682l-465 -682h465zM815 0q-74 0 -74 100v265h-565q-35 0 -58.5 21.5t-23.5 49.5t15 51l630 926q27 41 76 41q74 0 74 -92v-870h158q94 0 94 -63.5t-94 -63.5h-158v-265q0 -100 -74 -100z" />
    <glyph glyph-name="five" unicode="5" 
d="M172 393q0 37 20.5 58.5t48.5 21.5t49 -20.5t25 -61.5q12 -129 88 -207t227 -78t225.5 101.5t74.5 265.5t-81 255t-228 91q-86 0 -150.5 -31.5t-148.5 -103.5q-23 -18 -50 -18q-72 0 -71 77l80 600q12 90 98 91h549q94 0 94 -63.5t-94 -63.5h-516l-66 -457
q45 37 126 66.5t153 29.5q203 0 327.5 -118t124.5 -344t-120.5 -365t-328.5 -139t-332 121.5t-124 291.5z" />
    <glyph glyph-name="six" unicode="6" 
d="M324 465q0 -166 82.5 -262.5t246.5 -96.5t247 96.5t83 262.5t-83 262t-247 96t-246.5 -96t-82.5 -262zM176 500v409q0 248 134 396.5t356 148.5q289 0 417 -219q38 -74 9 -101.5t-56 -27.5q-49 0 -78 53q-90 168 -292 168q-168 0 -255 -126t-87 -312v-98q25 55 123 107
t206 52q221 0 349 -129t128 -352t-134 -356t-349 -133t-343 135t-128 385z" />
    <glyph glyph-name="seven" unicode="7" 
d="M227 1307q-94 0 -94 63.5t94 63.5h770q45 0 70 -20t25 -46t-9 -45l-503 -1266q-25 -57 -78 -57q-27 0 -47.5 19.5t-20.5 48.5t10 49l492 1190h-709z" />
    <glyph glyph-name="eight" unicode="8" 
d="M356 1077.5q0 -104.5 74 -178.5t205 -74t204.5 74t73.5 178.5t-73.5 177t-204.5 72.5t-205 -72.5t-74 -177zM319 414q0 -133 84 -220.5t231.5 -87.5t231.5 87.5t84 220.5t-84 216t-231.5 83t-231.5 -83t-84 -216zM1098 414q0 -211 -132 -322.5t-331 -111.5t-331 111.5
t-132 322.5q0 246 207 360q-74 47 -120 133t-46 168q0 178 116.5 278.5t305 100.5t305.5 -100.5t117 -278.5q0 -82 -46 -168t-120 -133q207 -114 207 -360z" />
    <glyph glyph-name="nine" unicode="9" 
d="M1004 969q0 166 -83 262t-247 96t-247 -96t-83 -262t83 -262.5t247 -96.5t247 96.5t83 262.5zM1151 934v-410q0 -248 -134 -396t-355 -148q-289 0 -418 219q-38 74 -9 101.5t56 27.5q49 0 78 -54q90 -168 293 -168q168 0 255 126t87 313v98q-25 -55 -123.5 -107.5
t-206.5 -52.5q-221 0 -349 128.5t-128 352.5t134 357t349 133t343 -135t128 -385z" />
    <glyph glyph-name="colon" unicode=":" 
d="M487 897.5q0 63.5 42 105t105.5 41.5t105.5 -41.5t42 -105t-42 -105.5t-105.5 -42t-105.5 42t-42 105.5zM487 147.5q0 63.5 42 105.5t105.5 42t105.5 -42t42 -105.5t-42 -105.5t-105.5 -42t-105.5 42t-42 105.5z" />
    <glyph glyph-name="semicolon" unicode=";" 
d="M487 897.5q0 63.5 42 105t105.5 41.5t105.5 -41.5t42 -105t-42 -105.5t-105.5 -42t-105.5 42t-42 105.5zM534 -223q-57 0 -57 55q0 26 33 50t43 51.5t10 84.5q-76 39 -76 129q0 61 41.5 104.5t105.5 43.5t106 -43t42 -105v-14q-4 -141 -182 -319q-37 -37 -66 -37z" />
    <glyph glyph-name="less" unicode="&#x3c;" 
d="M918 1036q22 0 37.5 -15t15.5 -43t-39 -56l-582 -398l582 -397q39 -29 39 -57t-15.5 -43t-37.5 -15t-58 21l-643 436q-31 23 -31 55.5t31 55.5l643 436q36 20 58 20z" />
    <glyph glyph-name="equal" unicode="=" 
d="M289 537h737q88 0 88 -63.5t-88 -63.5h-737q-88 0 -88 63.5t88 63.5zM289 926h737q88 0 88 -63.5t-88 -63.5h-737q-88 0 -88 63.5t88 63.5z" />
    <glyph glyph-name="greater" unicode="&#x3e;" 
d="M1073 524.5q0 -32.5 -31 -55.5l-643 -436q-65 -37 -87.5 -14t-22.5 51t39 57l581 397l-581 398q-39 29 -39 56t15.5 42.5t37.5 15.5t57 -20l643 -436q31 -23 31 -55.5z" />
    <glyph glyph-name="question" unicode="?" 
d="M487 147.5q0 63.5 42 105.5t105.5 42t105.5 -42t42 -105.5t-42 -105.5t-105.5 -42t-105.5 42t-42 105.5zM883 1120q0 100 -63.5 155.5t-175.5 55.5t-177.5 -65.5t-69.5 -151.5t-71 -86q-72 0 -72 84q0 135 105.5 238.5t280.5 103.5t280.5 -87t105.5 -245
q0 -68 -31.5 -131t-66.5 -99t-97 -89q-125 -111 -124 -248q0 -104 -72 -103.5t-72 108.5t50.5 189.5t138.5 157.5q131 113 131 213z" />
    <glyph glyph-name="at" unicode="@" 
d="M590 546.5q0 -112.5 57.5 -185t160.5 -72.5t154.5 69.5t51.5 187.5t-51.5 188.5t-154.5 70.5t-160.5 -73t-57.5 -185.5zM801 166q-164 0 -259.5 100.5t-95.5 276.5t96.5 280.5t258.5 104.5q66 0 125 -23.5t88 -60.5v30q0 152 -88 221.5t-226 69.5q-229 0 -356 -164.5
t-127 -450.5t137.5 -454t405.5 -168q143 0 260 68q20 12 43 12t39 -16.5t16 -40.5q0 -45 -51 -70q-145 -76 -307 -76q-313 0 -499.5 203t-186.5 540t170 538.5t456 201.5q209 0 333 -109.5t124 -304.5v-606q0 -88 -67 -88q-59 0 -70 92q-31 -49 -92 -77.5t-127 -28.5z" />
    <glyph glyph-name="A" unicode="A" 
d="M635 1147l-205 -576h410zM172 0q-33 0 -52.5 21t-19.5 47t6 49l467 1259q20 57 61.5 57.5t61.5 -57.5l467 -1259q6 -23 6 -49t-19.5 -47t-51.5 -21q-54 0 -74 57l-135 375h-508l-135 -375q-20 -57 -74 -57z" />
    <glyph glyph-name="B" unicode="B" 
d="M721 1294h-361v-499h361q106 0 164.5 70.5t58.5 179t-58.5 179t-164.5 70.5zM766 655h-406v-516h412q117 0 176.5 69.5t59.5 185.5t-58.5 188.5t-183.5 72.5zM915 743q248 -77 248 -365q0 -150 -99 -264t-276 -114h-479q-45 0 -72.5 25.5t-27.5 70.5v1241q0 45 27.5 71
t72.5 26h396q184 0 289.5 -100.5t105.5 -272.5q0 -123 -53.5 -203t-131.5 -115z" />
    <glyph glyph-name="C" unicode="C" 
d="M125 717q0 332 147.5 534.5t423.5 202.5q133 0 230.5 -38t208.5 -150q35 -35 35 -69t-22 -54.5t-54 -20.5t-64 33q-76 90 -155.5 125t-178.5 35q-143 0 -240.5 -92.5t-136 -221.5t-38.5 -284.5t38.5 -284.5t136 -221t240.5 -92q98 0 178 34.5t156 125.5q31 33 64 33
t54 -21t21 -55t-34 -68q-111 -113 -208.5 -150.5t-230.5 -37.5q-276 0 -423.5 202.5t-147.5 534.5z" />
    <glyph glyph-name="D" unicode="D" 
d="M344 1294v-1155h291q127 0 214 86t122 211t35 280.5t-35 280.5t-122 211t-214 86h-291zM629 0h-336q-45 0 -72.5 25.5t-27.5 70.5v1241q0 45 27.5 71t72.5 26h336q254 0 393 -207t139 -510t-139 -510t-393 -207z" />
    <glyph glyph-name="E" unicode="E" 
d="M264 1434h725q92 0 92 -70t-92 -70h-674v-487h498q92 0 92 -69.5t-92 -69.5h-498v-529h703q92 0 92 -69.5t-92 -69.5h-754q-45 0 -72.5 25.5t-27.5 70.5v1241q0 45 27.5 71t72.5 26z" />
    <glyph glyph-name="F" unicode="F" 
d="M264 1434h740q92 0 92 -70t-92 -70h-689v-506h514q92 0 92.5 -69.5t-92.5 -69.5h-514v-549q0 -100 -75.5 -100t-75.5 100v1237q0 45 27.5 71t72.5 26z" />
    <glyph glyph-name="G" unicode="G" 
d="M651 1454q266 0 439 -188q36 -39 36 -77t-21 -58.5t-55 -20.5t-59 33q-139 172 -340 172q-109 0 -194.5 -56.5t-160.5 -193t-75 -349.5t68.5 -349t153.5 -192t196 -56q233 0 348 151v359h-297q-92 0 -92 69.5t92 69.5h348q45 0 73 -25.5t28 -70.5v-572q0 -100 -76 -100
t-76 100q-63 -57 -162.5 -88.5t-183.5 -31.5q-145 0 -257 60t-213 216.5t-101 462.5q0 432 194 583.5t387 151.5z" />
    <glyph glyph-name="H" unicode="H" 
d="M956 1333q0 100 76 100.5t76 -100.5v-1233q0 -100 -76 -100t-76 100v562h-647v-562q0 -100 -75.5 -100t-75.5 100v1233q0 100 75.5 100.5t75.5 -100.5v-532h647v532z" />
    <glyph glyph-name="I" unicode="I" 
d="M319 139h240v1155h-240q-92 0 -92 70t92 70h631q92 0 92 -70t-92 -70h-239v-1155h239q92 0 92 -69.5t-92 -69.5h-631q-92 0 -92 69.5t92 69.5z" />
    <glyph glyph-name="J" unicode="J" 
d="M854 586v747q0 100 76 100.5t76 -100.5v-790q0 -563 -443 -563q-145 0 -233 40.5t-180 139.5q-23 26 -23 62t21.5 57.5t57.5 21.5t72 -44t62.5 -68.5t83.5 -47t139 -22.5q291 0 291 467z" />
    <glyph glyph-name="K" unicode="K" 
d="M1169 64q0 -30 -20.5 -47t-56.5 -17t-70 49l-459 711l-233 -281v-379q0 -100 -76 -100t-76 100v1233q0 100 76 100.5t76 -100.5v-639l567 701q31 39 65 39t54 -18t20 -48t-26 -63l-346 -420l487 -760q18 -31 18 -61z" />
    <glyph glyph-name="L" unicode="L" 
d="M268 1333q0 100 76 100.5t76 -100.5v-1194h674q92 0 92 -69.5t-92 -69.5h-725q-45 0 -73 25.5t-28 70.5v1237z" />
    <glyph glyph-name="M" unicode="M" 
d="M1128 1339v-1239q0 -100 -75.5 -100t-75.5 100v959l-264 -531q-29 -51 -78 -51t-78 51l-264 531v-959q0 -100 -76 -100t-76 100v1239q0 94 72 95q47 0 72 -45l350 -717l350 717q25 45 72 45q71 -1 71 -95z" />
    <glyph glyph-name="N" unicode="N" 
d="M162 100v1233q0 43 21.5 72t67.5 29t83 -52l622 -1071v1022q0 100 76 100.5t76 -100.5v-1233q0 -43 -21.5 -71.5t-67.5 -28.5t-83 51l-623 1071v-1022q0 -100 -75.5 -100t-75.5 100z" />
    <glyph glyph-name="O" unicode="O" 
d="M1044 717q0 268 -106.5 433t-303 165t-303 -165t-106.5 -433t106.5 -433t303 -165t303 165t106.5 433zM1200 716.5q0 -325.5 -146.5 -531t-419 -205.5t-418.5 205.5t-146 531t146 531.5t418.5 206t419 -206t146.5 -531.5z" />
    <glyph glyph-name="P" unicode="P" 
d="M756 1294h-404v-585h404q129 0 195.5 78.5t66.5 212.5t-66.5 214t-195.5 80zM301 1434h418q217 0 336 -117t119 -321t-117 -315.5t-338 -111.5h-367v-469q0 -100 -75.5 -100t-75.5 100v1237q0 45 27.5 71t72.5 26z" />
    <glyph glyph-name="Q" unicode="Q" 
d="M1044 717q0 268 -106.5 433t-303 165t-303 -165t-106.5 -433t106.5 -433t303.5 -165q160 0 260 110l-107 107q-72 72 -33 109.5t69 37.5t71 -41l84 -84q65 150 65 359zM635 -20q-272 0 -418.5 205.5t-146.5 531t146 531.5t418.5 206t419 -206t146.5 -509t-108 -495
l98 -97q41 -41 41 -71t-22.5 -53t-53.5 -23t-72 41l-84 82q-143 -143 -364 -143z" />
    <glyph glyph-name="R" unicode="R" 
d="M717 1294h-381v-569h381q131 0 206.5 81t75.5 204t-75.5 203.5t-206.5 80.5zM285 1434h415q213 0 334 -114t121 -310q0 -147 -80 -255t-221 -153l307 -481q40 -68 11 -94.5t-58 -26.5q-51 0 -82 51l-346 535h-350v-486q0 -100 -76 -100t-76 100v1237q0 45 28 71t73 26z
" />
    <glyph glyph-name="S" unicode="S" 
d="M86 329q0 30 20.5 50t59.5 20t72 -49q80 -121 160.5 -176t231.5 -55t237.5 70.5t86.5 211.5t-117 194t-288 103q-172 49 -290 135.5t-118 239.5q0 188 134.5 284.5t326.5 96.5q289 0 432 -227q23 -37 23 -70t-20.5 -53.5t-60.5 -20.5t-69 54q-51 96 -124.5 137t-199.5 41
t-206 -59.5t-80 -180.5q0 -73 59.5 -127.5t146.5 -84t168 -55.5t184 -65t179 -119t76 -214q0 -211 -138 -320.5t-349 -109.5q-353 -1 -519 286q-18 33 -18 63z" />
    <glyph glyph-name="T" unicode="T" 
d="M152 1434h966q92 0 92 -70t-92 -70h-407v-1194q0 -100 -76 -100t-76 100v1194h-407q-92 0 -92 70t92 70z" />
    <glyph glyph-name="U" unicode="U" 
d="M139 522v811q0 100 76 100.5t76 -100.5v-805q0 -215 90 -312t267 -97t266.5 97t89.5 312v805q0 100 75.5 100.5t75.5 -100.5v-805q0 -262 -132 -405t-373.5 -143t-376 143t-134.5 399z" />
    <glyph glyph-name="V" unicode="V" 
d="M96 1372q0 23 21.5 42.5t52.5 19.5q57 0 78 -60l389 -1091l389 1091q20 59 78 60q31 0 52.5 -20t21.5 -42t-7 -41l-462 -1274q-20 -57 -72 -57t-72 57l-463 1274q-6 18 -6 41z" />
    <glyph glyph-name="W" unicode="W" 
d="M301 0q-59 0 -70 66l-168 1249q-2 12 -2 24q0 95 69 95t79 -72l117 -975l229 807q20 70 79.5 70t80.5 -70l229 -807l117 975q10 72 76 72q72 0 71 -95q0 -12 -2 -24l-168 -1249q-10 -66 -69 -66q-50 0 -70 66l-264 931l-264 -931q-20 -66 -70 -66z" />
    <glyph glyph-name="X" unicode="X" 
d="M158 0q-34 0 -53 19.5t-19 47.5t18 52l433 614l-408 582q-18 25 -18 53.5t19.5 47t53.5 18.5t60 -39l377 -539l376 539q27 39 61 39t53 -19.5t19 -47.5t-18 -52l-407 -582l432 -614q18 -25 18 -53.5t-19.5 -47t-53.5 -18.5t-60 39l-401 573l-402 -573q-27 -39 -61 -39z
" />
    <glyph glyph-name="Y" unicode="Y" 
d="M559 100v541l-444 659q-20 29 -20.5 60t21 52.5t60.5 21.5t68 -45l391 -598l391 598q29 45 68 45t60.5 -21.5t21.5 -52.5t-21 -60l-444 -659v-541q0 -100 -76 -100t-76 100z" />
    <glyph glyph-name="Z" unicode="Z" 
d="M1057 0h-858q-41 0 -63.5 23.5t-22.5 54.5t16 57l797 1159h-701q-53 0 -76.5 12.5t-23.5 55.5t24.5 57.5t75.5 14.5h801q45 0 72.5 -22.5t27.5 -53.5t-18 -60l-789 -1159h738q51 0 76.5 -14t25.5 -55t-25.5 -55.5t-76.5 -14.5z" />
    <glyph glyph-name="bracketleft" unicode="[" 
d="M864 1376h-303v-1581h303q80 0 80 -61.5t-80 -61.5h-381q-66 0 -65 62v1704q0 61 65 61h381q80 0 80 -61.5t-80 -61.5z" />
    <glyph glyph-name="backslash" unicode="\" 
d="M49 1370q0 63 64 64q35 0 63 -35l987 -1278q23 -29 23 -58q0 -63 -64 -63q-34 0 -63 35l-987 1278q-23 29 -23 57z" />
    <glyph glyph-name="bracketright" unicode="]" 
d="M801 1376h-303q-80 0 -80 61.5t80 61.5h381q66 0 65 -61v-1704q0 -61 -65 -62h-381q-80 0 -80 61.5t80 61.5h303v1581z" />
    <glyph glyph-name="asciicircum" unicode="^" 
d="M1163 722q0 -22 -15 -37t-43 -15t-56 39l-414 581l-414 -581q-29 -39 -56 -39t-43 15t-16 37t21 58l453 643q23 31 55 31t55 -31l453 -643q20 -36 20 -58z" />
    <glyph glyph-name="underscore" unicode="_" 
d="M289 0h737q88 0 88 -63.5t-88 -63.5h-737q-88 0 -88 63.5t88 63.5z" />
    <glyph glyph-name="grave" unicode="`" 
d="M410 1855q0 70 63 70q14 0 39 -10l252 -129q51 -25 51 -72q0 -27 -16.5 -44t-38.5 -17t-47 10l-252 129q-51 27 -51 63z" />
    <glyph glyph-name="a" unicode="a" 
d="M295 512q0 -184 88 -297t239.5 -113t239.5 113t88 297t-88 297t-239.5 113t-239.5 -113t-88 -297zM618 -20q-215 0 -340.5 139t-125.5 381t119.5 393t346.5 151q106 0 194.5 -44t137.5 -113v47q0 90 72 90t72 -90v-844q0 -90 -72 -90t-72 90v43q-41 -63 -133.5 -108
t-198.5 -45z" />
    <glyph glyph-name="b" unicode="b" 
d="M997 512q0 184 -81.5 297t-231 113t-232.5 -113t-83 -297t83 -297t232.5 -113t231 113t81.5 297zM688 -20q-102 0 -190 44t-129 109v-43q0 -90 -72 -90t-72 90v1253q0 90 72 90.5t72 -90.5v-456q117 157 331 157t327.5 -150t113.5 -394t-120 -382t-333 -138z" />
    <glyph glyph-name="c" unicode="c" 
d="M649 1044q129 0 206 -36t130 -92t53 -95q0 -61 -61 -61q-35 0 -64 37q-100 125 -269 125t-259 -114t-90 -296t90 -296t259 -114t269 125q29 37 64 37q61 0 61 -61q0 -39 -54 -95t-130 -92t-205 -36q-238 0 -367.5 149.5t-129.5 382.5t129.5 382.5t367.5 149.5z" />
    <glyph glyph-name="d" unicode="d" 
d="M313 512q0 -184 82 -297t231.5 -113t232.5 113t83 297t-83 297t-232.5 113t-231.5 -113t-82 -297zM623 -20q-213 0 -333 138t-120 382t114 394t328 150t330 -157v456q0 90 71.5 90.5t71.5 -90.5v-1253q0 -90 -71.5 -90t-71.5 90v43q-41 -66 -129 -109.5t-190 -43.5z" />
    <glyph glyph-name="e" unicode="e" 
d="M652 922q-144 0 -238.5 -102.5t-110.5 -237.5h684q-23 150 -107 245t-228 95zM152 509q0 220 139 377.5t354 157.5t350 -143t135 -360q0 -82 -90 -82h-745q6 -141 102.5 -249t243.5 -108q215 0 340 142q33 35 65 35t50 -19.5t18 -52.5t-31 -62q-96 -94 -198.5 -129.5
t-235.5 -35.5q-227 0 -362 154.5t-135 374.5z" />
    <glyph glyph-name="f" unicode="f" 
d="M487 90v811h-276q-88 0 -88 61.5t88 61.5h276v70q0 172 89.5 266t239.5 94t271 -90q37 -24 37 -56t-17 -48.5t-44 -16.5t-51 19q-90 70 -195 69q-186 0 -186 -256v-51h395q88 0 88 -61.5t-88 -61.5h-395v-811q0 -90 -72 -90t-72 90z" />
    <glyph glyph-name="g" unicode="g" 
d="M270 512q0 -182 87 -296t238 -114t233.5 113t82.5 297t-83.5 297t-233.5 113t-237 -114t-87 -296zM592 1044q111 0 193.5 -43t125.5 -110v43q0 90 72 90t72 -90v-830q0 -254 -107.5 -394t-331.5 -140q-309 0 -440 256q-12 28 -12 54t19 43.5t53 17.5t63 -50
q55 -100 129 -149t188 -49q295 0 295 383v61q-117 -157 -331 -157t-333.5 151t-119.5 393t125 381t340 139z" />
    <glyph glyph-name="h" unicode="h" 
d="M233 90v1253q0 90 72 90.5t72 -90.5v-479q41 72 133 126t195 54q180 0 269 -98t89 -311v-545q0 -90 -71.5 -90t-71.5 90v522q0 164 -51.5 237t-187.5 73t-220 -126t-84 -335v-371q0 -90 -72 -90t-72 90z" />
    <glyph glyph-name="i" unicode="i" 
d="M803 1319q0 -47 -34 -81t-81 -34t-81 34t-34 81t34 81t81 34t81 -34t34 -81zM313 123h322v778h-244q-88 0 -88 61.5t88 61.5h322q66 0 65 -61v-840h309q88 0 88.5 -61.5t-88.5 -61.5h-774q-88 0 -88 61.5t88 61.5z" />
    <glyph glyph-name="j" unicode="j" 
d="M901 1304.5q0 -53.5 -38 -91t-91 -37.5t-91 37.5t-38 91t38 91.5t91 38t91 -38t38 -91.5zM856 -102q0 -328 -318 -328q-150 0 -270 84q-45 33 -45 66t19.5 51t47.5 18t56 -22q92 -74 190 -74t137.5 47t39.5 156v1005h-254q-88 0 -88 61.5t88 61.5h332q66 0 65 -61v-1065z
" />
    <glyph glyph-name="k" unicode="k" 
d="M992 0q-34 0 -64 45l-330 490l-172 -179v-266q0 -90 -71.5 -90t-71.5 90v1253q0 90 71.5 90.5t71.5 -90.5v-796l422 444q28 33 60 33t50.5 -18t18.5 -46t-27 -57l-256 -266l348 -514q20 -29 21 -57q0 -66 -71 -66z" />
    <glyph glyph-name="l" unicode="l" 
d="M313 123h322v1188h-244q-88 0 -88 61.5t88 61.5h322q66 0 65 -62v-1249h309q88 0 88.5 -61.5t-88.5 -61.5h-774q-88 0 -88 61.5t88 61.5z" />
    <glyph glyph-name="m" unicode="m" 
d="M111 90v844q0 90 71.5 90t71.5 -90v-31q63 141 217 141q180 0 236 -159q61 160 227 159q125 0 188.5 -78.5t63.5 -207.5v-668q0 -90 -72 -90t-72 90v617q0 111 -32.5 163t-110.5 52t-127 -93.5t-49 -236.5v-502q0 -90 -71.5 -90t-71.5 90v623q0 209 -144 209
q-90 0 -136 -104.5t-46 -252.5v-475q0 -90 -71.5 -90t-71.5 90z" />
    <glyph glyph-name="n" unicode="n" 
d="M233 90v844q0 90 72 90t72 -90v-70q41 72 133 126t195 54q180 0 269 -98t89 -311v-545q0 -90 -71.5 -90t-71.5 90v522q0 164 -51.5 237t-187.5 73t-220 -126t-84 -335v-371q0 -90 -72 -90t-72 90z" />
    <glyph glyph-name="o" unicode="o" 
d="M303 512q0 -184 91 -297t238.5 -113t239 113t91.5 297t-91.5 297t-239 113t-238.5 -113t-91 -297zM633 -20q-223 0 -348 150.5t-125 381.5t125 381.5t348 150.5t348 -150.5t125 -381.5t-125 -381.5t-348 -150.5z" />
    <glyph glyph-name="p" unicode="p" 
d="M997 512q0 184 -81.5 297t-231 113t-232.5 -113t-83 -297t83 -297t232.5 -113t231 113t81.5 297zM688 1044q213 0 333 -138t120 -382t-114 -394t-328 -150t-330 157v-456q0 -90 -72 -90.5t-72 90.5v1253q0 90 72 90t72 -90v-43q41 66 129 109.5t190 43.5z" />
    <glyph glyph-name="q" unicode="q" 
d="M313 512q0 -184 82 -297t231.5 -113t232.5 113t83 297t-83 297t-232.5 113t-231.5 -113t-82 -297zM623 1044q102 0 190 -44t129 -109v43q0 90 71.5 90t71.5 -90v-1253q0 -90 -71.5 -90.5t-71.5 90.5v456q-116 -157 -330 -157t-328 150t-114 394t120 382t333 138z" />
    <glyph glyph-name="r" unicode="r" 
d="M324 90v844q0 90 71.5 90t71.5 -90v-70q35 66 128 123t202 57q236 0 325 -194q10 -25 11 -41q0 -74 -74 -74q-49 0 -76 60q-55 127 -199 127t-230.5 -125t-86.5 -297v-410q0 -90 -71.5 -90t-71.5 90z" />
    <glyph glyph-name="s" unicode="s" 
d="M223 234q0 31 21.5 49t58.5 18t68 -44t60.5 -73.5t92 -55.5t148.5 -26q274 0 274 193q0 41 -22.5 69.5t-92 52.5t-178.5 41q-108 17 -162.5 33.5t-139.5 61.5t-85 187t114 223t253 81t224 -35.5t151 -123.5q23 -29 22.5 -59.5t-19.5 -49t-55 -18.5t-67 47
q-78 117 -240 117q-113 0 -176 -52.5t-63 -120.5t42.5 -99t109 -46t140.5 -27q147 -23 267.5 -80.5t120.5 -185.5q0 -156 -112 -243.5t-306 -87.5q-283 0 -422 188q-27 35 -27 66z" />
    <glyph glyph-name="t" unicode="t" 
d="M487 1364q0 90 72 90t72 -90v-340h395q88 0 88 -61.5t-88 -61.5h-395v-598q0 -201 178 -201q74 0 115 17t79 45q37 28 61 28t40 -17t16 -48t-39 -59q-68 -47 -131 -67.5t-157 -20.5q-141 0 -223.5 77.5t-82.5 227.5v616h-276q-88 0 -88 61.5t88 61.5h276v340z" />
    <glyph glyph-name="u" unicode="u" 
d="M1067 934v-844q0 -90 -71.5 -90t-71.5 90v70q-41 -72 -133.5 -126t-194.5 -54q-180 0 -269 98t-89 311v545q0 90 71.5 90t71.5 -90v-522q0 -164 51 -237t187 -73t220.5 126t84.5 335v371q0 90 71.5 90t71.5 -90z" />
    <glyph glyph-name="v" unicode="v" 
d="M645 0q-43 0 -61 41l-398 870q-10 20 -10 47t20.5 46.5t49.5 19.5q55 0 82 -61l317 -721l318 721q27 61 81 61q29 0 49.5 -19.5t20.5 -46.5t-10 -47l-397 -870q-19 -41 -62 -41z" />
    <glyph glyph-name="w" unicode="w" 
d="M366 0q-54 0 -71 66l-215 847q-4 20 -4 44t22.5 45.5t53.5 21.5q57 0 71 -68l158 -690l182 514q23 59 72 59.5t72 -59.5l182 -514l158 690q14 68 71 68q31 0 53.5 -21t22.5 -45t-4 -45l-215 -847q-17 -66 -71 -66t-77 63l-192 551l-193 -551q-22 -63 -76 -63z" />
    <glyph glyph-name="x" unicode="x" 
d="M1053 65.5q0 -28.5 -17.5 -47t-52.5 -18.5t-63 37l-291 362l-291 -362q-29 -37 -64 -37t-52 18.5t-17 47t24 59.5l310 387l-310 387q-49 61 -19 93t64 32t64 -37l291 -364l291 364q30 37 64 37t51.5 -18.5t17.5 -47t-25 -59.5l-309 -387l309 -387q25 -31 25 -59.5z" />
    <glyph glyph-name="y" unicode="y" 
d="M166 953q0 26 21.5 48.5t59.5 22.5t64 -57l332 -760l324 758q27 59 80 59q29 0 49 -19t20 -45t-12 -55l-379 -848q-141 -318 -236 -402.5t-240 -84.5t-145 80q0 31 19 47t39 16t48 -10t56 -10q96 0 158.5 80t142.5 262l-395 874q-6 18 -6 44z" />
    <glyph glyph-name="z" unicode="z" 
d="M965 0h-693q-41 0 -63.5 21.5t-22.5 53.5t21 54l641 772h-543q-88 0 -88 61.5t88 61.5h641q86 0 86 -80q0 -31 -20 -53l-637 -768h590q88 0 88 -61.5t-88 -61.5z" />
    <glyph glyph-name="braceleft" unicode="{" 
d="M182 585.5q0 61.5 85 61.5t140.5 64.5t55.5 201.5v525q0 61 65 61h353q80 0 80 -61.5t-80 -61.5h-275v-481q0 -250 -186 -309q186 -59 186 -310v-481h275q80 0 80 -61.5t-80 -61.5h-353q-66 0 -65 62v524q0 137 -55.5 201.5t-140.5 64.5t-85 61.5z" />
    <glyph glyph-name="bar" unicode="|" 
d="M563 -72v1577q0 35 20.5 58.5t51.5 23.5t51.5 -23.5t20.5 -58.5v-1577q0 -35 -20.5 -58.5t-51.5 -23.5t-51.5 23.5t-20.5 58.5z" />
    <glyph glyph-name="braceright" unicode="}" 
d="M1086 585.5q0 -61.5 -84 -61.5t-139.5 -64.5t-55.5 -201.5v-524q0 -61 -66 -62h-352q-80 0 -80 61.5t80 61.5h275v481q0 250 186 310q-186 59 -186 309v481h-275q-80 0 -80 61.5t80 61.5h352q66 0 66 -61v-525q0 -137 55.5 -201.5t139.5 -64.5t84 -61.5z" />
    <glyph glyph-name="asciitilde" unicode="~" 
d="M209 610q0 28 29 58q84 84 213 84q90 0 208.5 -57.5t190.5 -57.5t129 53q29 25 53 25t39.5 -15.5t15.5 -44.5t-28 -57q-84 -84 -213 -84q-92 0 -211 57t-190 57t-128 -53q-27 -25 -53 -25t-40.5 16t-14.5 44z" />
    <glyph glyph-name="uni00A0" unicode="&#xa0;" 
 />
    <glyph glyph-name="exclamdown" unicode="&#xa1;" 
d="M487 897.5q0 63.5 42 105t105.5 41.5t105.5 -41.5t42 -105t-42 -105.5t-105.5 -42t-105.5 42t-42 105.5zM635 594q72 0 76 -109l30 -778q-2 -53 -29.5 -85t-76.5 -32t-77 32t-30 85l31 778q4 109 76 109z" />
    <glyph glyph-name="cent" unicode="&#xa2;" 
d="M279 717q0 -164 72.5 -274.5t215.5 -133.5v813q-143 -20 -215.5 -130.5t-72.5 -274.5zM567 57v129q-209 23 -320.5 169.5t-111.5 361.5t111.5 361.5t320.5 166.5v131q0 78 61.5 78t61.5 -78v-131q172 -14 293 -139q39 -41 39 -80q0 -61 -61 -61q-35 0 -64 36
q-80 100 -207 121v-813q125 20 207 123q29 37 64 37q61 0 61 -61q0 -39 -49 -90q-113 -117 -283 -132v-129q0 -78 -61.5 -78t-61.5 78z" />
    <glyph glyph-name="sterling" unicode="&#xa3;" 
d="M967 0h-785q-61 0 -61 59q0 41 47 60q92 37 131 101.5t39 187.5v290h-84q-88 0 -88 61.5t88 61.5h84v248q0 184 91 278.5t237 94.5q211 0 309 -209q12 -29 12 -57t-19.5 -45t-45.5 -17q-47 0 -70 55q-59 150 -186 150q-84 0 -134.5 -61.5t-50.5 -182.5v-254h224
q88 0 88 -61.5t-88 -61.5h-224v-286q0 -111 -27.5 -181.5t-103.5 -107.5h559v221q0 88 61.5 88t61.5 -88v-283q1 -61 -65 -61z" />
    <glyph glyph-name="currency" unicode="&#xa4;" 
d="M332 784.5q0 -108.5 69.5 -182.5t180 -74t180 74t69.5 182.5t-69.5 182t-180 73.5t-180 -73.5t-69.5 -182zM190 1112q0 26 18.5 45t43.5 19t61 -37l52 -52q94 66 217 66t217 -66l51 52q37 37 61 37t43 -18.5t19 -45.5t-37 -59l-51 -52q68 -94 67.5 -216.5t-67.5 -217.5
l51 -51q37 -33 37 -59t-18.5 -45t-43.5 -19t-61 37l-51 51q-94 -66 -217 -65.5t-217 65.5l-52 -51q-37 -37 -61 -37t-43 18.5t-19 45.5t37 59l52 51q-68 94 -68 217t68 217l-52 52q-37 33 -37 59z" />
    <glyph glyph-name="yen" unicode="&#xa5;" 
d="M307 768h166l-358 532q-20 29 -20.5 60t21 52.5t60.5 21.5t68 -45l391 -598l391 598q29 45 68 45t60.5 -21.5t21.5 -52.5t-21 -60l-358 -532h166q88 0 88 -63.5t-88 -63.5h-252v-201h252q88 0 88 -63.5t-88 -63.5h-252v-213q0 -100 -76 -100t-76 100v213h-252
q-88 0 -88 63.5t88 63.5h252v201h-252q-88 0 -88 63.5t88 63.5z" />
    <glyph glyph-name="brokenbar" unicode="&#xa6;" 
d="M563 883v622q0 35 20.5 58.5t51.5 23.5t51.5 -23.5t20.5 -58.5v-622q0 -35 -20.5 -58.5t-51.5 -23.5t-51.5 23.5t-20.5 58.5zM563 -72v623q0 35 20.5 58.5t51.5 23.5t51.5 -23.5t20.5 -58.5v-623q0 -35 -20.5 -58.5t-51.5 -23.5t-51.5 23.5t-20.5 58.5z" />
    <glyph glyph-name="section" unicode="&#xa7;" 
d="M801 475q0 84 -62.5 132.5t-285.5 152.5q-102 -84 -103 -203q0 -88 62.5 -141.5t277.5 -155.5q111 102 111 215zM944 477q0 -150 -145 -284q139 -113 139 -281t-102.5 -255t-257.5 -87q-233 0 -375 205q-44 64 -13 93.5t67 29.5t65 -50q96 -156 256 -155q98 0 157.5 60.5
t59.5 159.5t-60.5 162.5t-147.5 101.5t-173 80t-146.5 115.5t-60.5 182.5q0 152 135 272q-141 111 -141 282t102.5 258t257.5 87q236 0 369 -199q18 -31 18 -57t-18 -45.5t-54 -19.5t-65 49q-92 150 -250 149q-98 0 -157.5 -60.5t-59.5 -151.5q0 -165 156 -234l144 -69
q77 -38 144.5 -74.5t111.5 -104.5t44 -160z" />
    <glyph glyph-name="dieresis" unicode="&#xa8;" 
d="M844 1718q0 -43 -30 -73.5t-75 -30.5t-74.5 30.5t-29.5 73.5t29.5 74t74.5 31t75 -31t30 -74zM451 1718q0 -43 -30 -73.5t-75 -30.5t-74.5 30.5t-29.5 73.5t29.5 74t74.5 31t75 -31t30 -74z" />
    <glyph glyph-name="copyright" unicode="&#xa9;" 
d="M649 1018q137 0 215 -90q36 -50 14 -71t-44 -21t-37 22q-51 72 -145 72t-145.5 -54.5t-51.5 -148.5t51 -148.5t145 -54.5t146 72q15 22 37 22t35.5 -14t13.5 -34t-19 -44q-78 -90 -215 -90t-217 83t-80 208t80 208t217 83zM186 725q0 -193 121 -326t333 -133t333 133
t121 326t-122 327t-333 134t-332 -134t-121 -327zM59 726q0 247 171 409.5t409 162.5t410 -163.5t172 -409.5t-172 -408.5t-410 -162.5t-409 162.5t-171 409.5z" />
    <glyph glyph-name="ordfeminine" unicode="&#xaa;" 
d="M373 1030.5q0 -143.5 64.5 -226.5t178.5 -83t178 84t64 225t-64.5 225t-178.5 84t-178 -82.5t-64 -226zM612 614q-168 0 -265 108t-97 298t92 307t267 117t253 -115v29q0 70 60 69q61 0 61 -69v-658q0 -70 -61 -69q-59 0 -60 69v27q-31 -51 -98.5 -82t-151.5 -31z" />
    <glyph glyph-name="guillemotleft" unicode="&#xab;" 
d="M520 534q0 28 29 56l377 381q26 25 54 25t44 -16.5t16 -44.5t-22 -50l-334 -350l334 -351q22 -22 22 -50t-16 -44t-44 -16t-54 24l-377 381q-29 27 -29 55zM172 534q0 28 29 56l377 381q26 25 54 25t44 -16.5t16 -44.5t-22 -50l-334 -350l334 -351q22 -22 22 -50
t-16.5 -44t-44.5 -16t-53 24l-377 381q-29 27 -29 55z" />
    <glyph glyph-name="logicalnot" unicode="&#xac;" 
d="M1079 430q0 -100 -75.5 -100t-75.5 100v303h-703q-92 0 -92 69.5t92 69.5h754q45 0 72.5 -25.5t27.5 -70.5v-346z" />
    <glyph glyph-name="uni00AD" unicode="&#xad;" 
d="M311 680h647q88 0 88.5 -63.5t-88.5 -63.5h-647q-88 0 -88 63.5t88 63.5z" />
    <glyph glyph-name="registered" unicode="&#xae;" 
d="M686 938h-154v-188h154q109 0 109 94t-109 94zM498 1012h200q90 0 138.5 -47t48.5 -121q0 -125 -133 -162l125 -170q12 -16 12 -34t-12.5 -29t-34.5 -11t-41 27l-152 211h-117v-182q0 -55 -47 -56q-43 0 -43 56v462q1 56 56 56zM186 725q0 -193 121 -326t333 -133
t333 133t121 326t-122 327t-333 134t-332 -134t-121 -327zM59 726q0 247 171 409.5t409 162.5t410 -163.5t172 -409.5t-172 -408.5t-410 -162.5t-409 162.5t-171 409.5z" />
    <glyph glyph-name="macron" unicode="&#xaf;" 
d="M451 1782h303q90 0 90 -61.5t-90 -61.5h-303q-90 0 -90 61.5t90 61.5z" />
    <glyph glyph-name="degree" unicode="&#xb0;" 
d="M373 1136q0 -91 53 -150.5t140 -59.5t141.5 59t54.5 151t-54.5 152t-141.5 60t-140 -60.5t-53 -151.5zM254 1136q0 136 86 223t226 87t227.5 -87t87.5 -223t-87.5 -222.5t-227.5 -86.5t-226 86.5t-86 222.5z" />
    <glyph glyph-name="plusminus" unicode="&#xb1;" 
d="M289 127h737q88 0 88 -63.5t-88 -63.5h-737q-88 0 -88 63.5t88 63.5zM721 1174v-306h305q88 0 88 -63.5t-88 -63.5h-305v-305q0 -88 -63.5 -88t-63.5 88v305h-305q-88 0 -88 63.5t88 63.5h305v306q0 88 63.5 88t63.5 -88z" />
    <glyph glyph-name="uni00B2" unicode="&#xb2;" 
d="M852 756h-403q-23 0 -38.5 16t-15.5 39v29q0 158 223 256q84 37 121 68.5t37 80.5t-34 79t-92 30t-93 -34t-41 -88t-55 -54q-23 0 -37 15t-14 40q0 86 69 148.5t175 62.5t166.5 -56.5t60.5 -138.5t-51.5 -134t-142.5 -94t-132 -79t-49 -90h346q55 0 55 -48t-55 -48z" />
    <glyph glyph-name="uni00B3" unicode="&#xb3;" 
d="M748 955q0 55 -31 87.5t-82 32.5h-19q-53 0 -53 45t53 45h15q96 0 96 99q0 37 -26.5 63.5t-75.5 26.5q-82 0 -107 -86q-14 -49 -55 -49q-18 0 -32.5 13.5t-14.5 29.5t2 22q41 160 207 160q94 0 150 -51t56 -137t-90 -132q111 -41 111 -157q0 -94 -62.5 -158t-165.5 -64
t-169 61.5t-66 151.5q0 55 49 56q51 0 56 -56q12 -123 131 -122q55 0 89 32t34 87z" />
    <glyph glyph-name="acute" unicode="&#xb4;" 
d="M464 1653q-22 0 -38 17.5t-16 43.5q0 47 51 72l252 129q25 10 47 10t38.5 -17.5t16.5 -53.5t-51 -62l-252 -129q-26 -10 -48 -10z" />
    <glyph glyph-name="mu" unicode="&#xb5;" 
d="M1067 934v-844q0 -90 -71.5 -90t-71.5 90v70q-41 -72 -133.5 -126t-210.5 -54t-199 51v-350q0 -90 -71.5 -90.5t-71.5 90.5v1253q0 90 71.5 90t71.5 -90v-522q0 -164 51 -237t187 -73t220.5 126t84.5 335v371q0 90 71.5 90t71.5 -90z" />
    <glyph glyph-name="mu" unicode="&#x3bc;" 
d="M1067 934v-844q0 -90 -71.5 -90t-71.5 90v70q-41 -72 -133.5 -126t-210.5 -54t-199 51v-350q0 -90 -71.5 -90.5t-71.5 90.5v1253q0 90 71.5 90t71.5 -90v-522q0 -164 51 -237t187 -73t220.5 126t84.5 335v371q0 90 71.5 90t71.5 -90z" />
    <glyph glyph-name="paragraph" unicode="&#xb6;" 
d="M199 1106q0 135 95 231.5t230 96.5h551q92 0 92 -70t-92 -70h-18v-1345q0 -100 -76 -100.5t-76 100.5v1345h-229v-1345q0 -100 -76 -100.5t-76 100.5v829q-135 0 -230 96.5t-95 231.5z" />
    <glyph glyph-name="periodcentered" unicode="&#xb7;" 
d="M487 614.5q0 63.5 42 105.5t105.5 42t105.5 -42t42 -105.5t-42 -105.5t-105.5 -42t-105.5 42t-42 105.5z" />
    <glyph glyph-name="cedilla" unicode="&#xb8;" 
d="M604 -131q27 0 44.5 -16.5t17.5 -43.5t-9 -45l-77 -200q-23 -55 -72 -56q-27 0 -44.5 16.5t-17.5 43.5t9 45l77 201q23 55 72 55z" />
    <glyph glyph-name="uni00B9" unicode="&#xb9;" 
d="M621 819v481l-125 -79q-38 -23 -55 -4.5t-17 37.5t27 40l161 111q45 29 66 29q41 0 41 -45v-570q0 -63 -49 -63t-49 63z" />
    <glyph glyph-name="ordmasculine" unicode="&#xba;" 
d="M381 1030.5q0 -143.5 65.5 -226.5t180 -83t180 83t65.5 226.5t-65.5 225t-180 81.5t-180 -81.5t-65.5 -225zM627 614q-174 0 -271.5 118t-97.5 298t97.5 297t271.5 117t271 -117t97 -297t-97 -298t-271 -118z" />
    <glyph glyph-name="guillemotright" unicode="&#xbb;" 
d="M229 134q0 28 23 50l334 351l-334 350q-23 23 -23 51t16.5 43.5t45.5 15.5t53 -24l377 -381q29 -28 29 -56t-29 -55l-377 -381q-26 -24 -54 -24t-44.5 16t-16.5 44zM578 134q0 28 22 50l334 351l-334 350q-22 23 -22 51t16 43.5t45 15.5t53 -24l377 -381q29 -28 29 -56
t-29 -55l-377 -381q-26 -24 -54 -24t-44 16t-16 44z" />
    <glyph glyph-name="onequarter" unicode="&#xbc;" 
d="M313 819v481l-125 -79q-37 -23 -54 -4.5t-17 37.5t26 40l162 111q45 29 66 29q41 0 41 -45v-570q0 -63 -49.5 -63t-49.5 63zM1070 1071q20 0 35 -18.5t15 -44.5t-33 -50l-860 -602q-23 -14 -43 -14t-35.5 19t-15.5 45t33 49l860 600q24 16 44 16zM891 238v266l-170 -266
h170zM940 0q-49 0 -49 78v65h-258q-18 0 -31.5 11.5t-13.5 28.5t8 28l281 426q27 39 56 39q56 0 56 -47v-391h78q51 0 51 -47.5t-51 -47.5h-78v-65q0 -78 -49 -78z" />
    <glyph glyph-name="onehalf" unicode="&#xbd;" 
d="M1118 0h-403q-23 0 -38 16.5t-15 38.5v29q0 158 223 256q84 37 120.5 68.5t36.5 81t-34 79t-92 29.5t-93 -34t-41 -88t-55 -54q-23 0 -37 15.5t-14 39.5q0 86 69 148.5t175 62.5t166.5 -56.5t60.5 -138.5t-51.5 -134t-142.5 -94t-132 -78.5t-49 -90.5h346q55 0 56 -49
q-1 -47 -56 -47zM313 819v481l-125 -79q-37 -23 -54 -4.5t-17 37.5t26 40l162 111q45 29 66 29q41 0 41 -45v-570q0 -63 -49.5 -63t-49.5 63zM1070 1071q20 0 35 -18.5t15 -44.5t-33 -50l-860 -602q-23 -14 -43 -14t-35.5 19t-15.5 45t33 49l860 600q24 16 44 16z" />
    <glyph glyph-name="threequarters" unicode="&#xbe;" 
d="M418 955q0 55 -31 87.5t-82 32.5h-18q-53 0 -53.5 45t53.5 45h14q96 0 96 99q0 37 -26.5 63.5t-75.5 26.5q-82 0 -107 -86q-14 -49 -55 -49q-18 0 -32.5 13.5t-14.5 29.5t2 22q41 160 215 160q86 0 142.5 -51t56.5 -137t-90 -132q111 -41 110 -157q0 -94 -62.5 -158
t-165.5 -64t-169 61.5t-66 151.5q0 55 50 56q51 0 55 -56q12 -123 131 -122q55 0 89 32t34 87zM1070 1071q20 0 35 -18.5t15 -44.5t-33 -50l-860 -602q-23 -14 -43 -14t-35.5 19t-15.5 45t33 49l860 600q24 16 44 16zM891 238v266l-170 -266h170zM940 0q-49 0 -49 78v65
h-258q-18 0 -31.5 11.5t-13.5 28.5t8 28l281 426q27 39 56 39q56 0 56 -47v-391h78q51 0 51 -47.5t-51 -47.5h-78v-65q0 -78 -49 -78z" />
    <glyph glyph-name="questiondown" unicode="&#xbf;" 
d="M793 876.5q0 -63.5 -42 -105.5t-105.5 -42t-105.5 42t-42 105.5t42 105.5t105.5 42t105.5 -42t42 -105.5zM397 -96q0 -100 63.5 -155.5t175.5 -55.5t177.5 65.5t69.5 151.5t71 86q72 0 72 -84q0 -135 -105.5 -238.5t-280.5 -103.5t-280.5 87t-105.5 245q0 68 31.5 131
t66.5 99t97 89q125 111 124 248q0 104 72 103.5t72 -108.5t-50.5 -189.5t-138.5 -157.5q-131 -113 -131 -213z" />
    <glyph glyph-name="Agrave" unicode="&#xc0;" 
d="M432 1814q0 70 64 70q14 0 39 -10l251 -129q52 -25 52 -62q1 -71 -64 -71q-14 0 -39 10l-252 129q-51 27 -51 63zM635 1147l-205 -576h410zM172 0q-33 0 -52.5 21t-19.5 47t6 49l467 1259q20 57 61.5 57.5t61.5 -57.5l467 -1259q6 -23 6 -49t-19.5 -47t-51.5 -21
q-54 0 -74 57l-135 375h-508l-135 -375q-20 -57 -74 -57z" />
    <glyph glyph-name="Aacute" unicode="&#xc1;" 
d="M488 1612q-22 0 -39 17.5t-17 43.5q0 47 51 72l252 129q25 10 47 10t39 -17t17 -53t-52 -63l-251 -129q-25 -10 -47 -10zM635 1147l-205 -576h410zM172 0q-33 0 -52.5 21t-19.5 47t6 49l467 1259q20 57 61.5 57.5t61.5 -57.5l467 -1259q6 -23 6 -49t-19.5 -47t-51.5 -21
q-54 0 -74 57l-135 375h-508l-135 -375q-20 -57 -74 -57z" />
    <glyph glyph-name="Acircumflex" unicode="&#xc2;" 
d="M414 1561q-66 0 -66 63q0 33 33 59l197 156q31 25 57.5 25t56.5 -25l197 -156q33 -27 33 -59q0 -63 -66 -63q-27 0 -45 16l-176 141l-176 -141q-18 -16 -45 -16zM635 1147l-205 -576h410zM172 0q-33 0 -52.5 21t-19.5 47t6 49l467 1259q20 57 61.5 57.5t61.5 -57.5
l467 -1259q6 -23 6 -49t-19.5 -47t-51.5 -21q-54 0 -74 57l-135 375h-508l-135 -375q-20 -57 -74 -57z" />
    <glyph glyph-name="Atilde" unicode="&#xc3;" 
d="M291 1669q0 29 22 53q88 94 195 95q63 0 105 -29t77 -57.5t85 -28.5t99 53q23 25 52 25q53 0 53 -54q0 -29 -23 -53q-88 -94 -194 -94q-66 0 -107 28.5t-76 57.5t-85 29t-99 -54q-23 -25 -51 -24q-53 0 -53 53zM635 1147l-205 -576h410zM172 0q-33 0 -52.5 21t-19.5 47
t6 49l467 1259q20 57 61.5 57.5t61.5 -57.5l467 -1259q6 -23 6 -49t-19.5 -47t-51.5 -21q-54 0 -74 57l-135 375h-508l-135 -375q-20 -57 -74 -57z" />
    <glyph glyph-name="Adieresis" unicode="&#xc4;" 
d="M936 1677q0 -43 -29.5 -73.5t-75 -30.5t-75 30.5t-29.5 73.5t29.5 74t75 31t75 -31t29.5 -74zM543 1677q0 -43 -30 -73.5t-75 -30.5t-74.5 30.5t-29.5 73.5t29.5 74t74.5 31t75 -31t30 -74zM635 1147l-205 -576h410zM172 0q-33 0 -52.5 21t-19.5 47t6 49l467 1259
q20 57 61.5 57.5t61.5 -57.5l467 -1259q6 -23 6 -49t-19.5 -47t-51.5 -21q-54 0 -74 57l-135 375h-508l-135 -375q-20 -57 -74 -57z" />
    <glyph glyph-name="Aring" unicode="&#xc5;" 
d="M518 1751q0 -51 33 -84t84 -33t84 33t33 84t-33 84t-84 33t-84 -33t-33 -84zM426 1751q0 88 61.5 148.5t147.5 60.5t147.5 -60.5t61.5 -148.5t-61.5 -148.5t-147.5 -60.5t-147.5 60.5t-61.5 148.5zM635 1147l-205 -576h410zM172 0q-33 0 -52.5 21t-19.5 47t6 49l467 1259
q20 57 61.5 57.5t61.5 -57.5l467 -1259q6 -23 6 -49t-19.5 -47t-51.5 -21q-54 0 -74 57l-135 375h-508l-135 -375q-20 -57 -74 -57z" />
    <glyph glyph-name="AE" unicode="&#xc6;" 
d="M528 571v723h-59l-162 -723h221zM401 1434h689q92 0 92 -70t-92 -70h-410v-487h330q92 0 92 -69.5t-92 -69.5h-330v-529h438q92 0 92 -69.5t-92 -69.5h-489q-45 0 -73 25.5t-28 70.5v336h-252l-79 -356q-16 -76 -80 -76q-78 0 -78 82q0 10 4 35l295 1259q12 58 63 58z
" />
    <glyph glyph-name="Ccedilla" unicode="&#xc7;" 
d="M711 -131q27 0 44 -16.5t17 -43.5t-8 -45l-78 -200q-23 -55 -72 -56q-27 0 -44 16.5t-17 43.5t8 45l78 201q23 55 72 55zM125 717q0 332 147.5 534.5t423.5 202.5q133 0 230.5 -38t208.5 -150q35 -35 35 -69t-22 -54.5t-54 -20.5t-64 33q-76 90 -155.5 125t-178.5 35
q-143 0 -240.5 -92.5t-136 -221.5t-38.5 -284.5t38.5 -284.5t136 -221t240.5 -92q98 0 178 34.5t156 125.5q31 33 64 33t54 -21t21 -55t-34 -68q-111 -113 -208.5 -150.5t-230.5 -37.5q-276 0 -423.5 202.5t-147.5 534.5z" />
    <glyph glyph-name="Egrave" unicode="&#xc8;" 
d="M432 1814q0 70 64 70q14 0 39 -10l251 -129q52 -25 52 -62q1 -71 -64 -71q-14 0 -39 10l-252 129q-51 27 -51 63zM264 1434h725q92 0 92 -70t-92 -70h-674v-487h498q92 0 92 -69.5t-92 -69.5h-498v-529h703q92 0 92 -69.5t-92 -69.5h-754q-45 0 -72.5 25.5t-27.5 70.5
v1241q0 45 27.5 71t72.5 26z" />
    <glyph glyph-name="Eacute" unicode="&#xc9;" 
d="M488 1612q-22 0 -39 17.5t-17 43.5q0 47 51 72l252 129q25 10 47 10t39 -17t17 -53t-52 -63l-251 -129q-25 -10 -47 -10zM264 1434h725q92 0 92 -70t-92 -70h-674v-487h498q92 0 92 -69.5t-92 -69.5h-498v-529h703q92 0 92 -69.5t-92 -69.5h-754q-45 0 -72.5 25.5
t-27.5 70.5v1241q0 45 27.5 71t72.5 26z" />
    <glyph glyph-name="Ecircumflex" unicode="&#xca;" 
d="M414 1561q-66 0 -66 63q0 33 33 59l197 156q31 25 57.5 25t56.5 -25l197 -156q33 -27 33 -59q0 -63 -66 -63q-27 0 -45 16l-176 141l-176 -141q-18 -16 -45 -16zM264 1434h725q92 0 92 -70t-92 -70h-674v-487h498q92 0 92 -69.5t-92 -69.5h-498v-529h703q92 0 92 -69.5
t-92 -69.5h-754q-45 0 -72.5 25.5t-27.5 70.5v1241q0 45 27.5 71t72.5 26z" />
    <glyph glyph-name="Edieresis" unicode="&#xcb;" 
d="M936 1677q0 -43 -29.5 -73.5t-75 -30.5t-75 30.5t-29.5 73.5t29.5 74t75 31t75 -31t29.5 -74zM543 1677q0 -43 -30 -73.5t-75 -30.5t-74.5 30.5t-29.5 73.5t29.5 74t74.5 31t75 -31t30 -74zM264 1434h725q92 0 92 -70t-92 -70h-674v-487h498q92 0 92 -69.5t-92 -69.5
h-498v-529h703q92 0 92 -69.5t-92 -69.5h-754q-45 0 -72.5 25.5t-27.5 70.5v1241q0 45 27.5 71t72.5 26z" />
    <glyph glyph-name="Igrave" unicode="&#xcc;" 
d="M432 1814q0 70 64 70q14 0 39 -10l251 -129q52 -25 52 -62q1 -71 -64 -71q-14 0 -39 10l-252 129q-51 27 -51 63zM319 139h240v1155h-240q-92 0 -92 70t92 70h631q92 0 92 -70t-92 -70h-239v-1155h239q92 0 92 -69.5t-92 -69.5h-631q-92 0 -92 69.5t92 69.5z" />
    <glyph glyph-name="Iacute" unicode="&#xcd;" 
d="M488 1612q-22 0 -39 17.5t-17 43.5q0 47 51 72l252 129q25 10 47 10t39 -17t17 -53t-52 -63l-251 -129q-25 -10 -47 -10zM319 139h240v1155h-240q-92 0 -92 70t92 70h631q92 0 92 -70t-92 -70h-239v-1155h239q92 0 92 -69.5t-92 -69.5h-631q-92 0 -92 69.5t92 69.5z" />
    <glyph glyph-name="Icircumflex" unicode="&#xce;" 
d="M414 1561q-66 0 -66 63q0 33 33 59l197 156q31 25 57.5 25t56.5 -25l197 -156q33 -27 33 -59q0 -63 -66 -63q-27 0 -45 16l-176 141l-176 -141q-18 -16 -45 -16zM319 139h240v1155h-240q-92 0 -92 70t92 70h631q92 0 92 -70t-92 -70h-239v-1155h239q92 0 92 -69.5
t-92 -69.5h-631q-92 0 -92 69.5t92 69.5z" />
    <glyph glyph-name="Idieresis" unicode="&#xcf;" 
d="M936 1677q0 -43 -29.5 -73.5t-75 -30.5t-75 30.5t-29.5 73.5t29.5 74t75 31t75 -31t29.5 -74zM543 1677q0 -43 -30 -73.5t-75 -30.5t-74.5 30.5t-29.5 73.5t29.5 74t74.5 31t75 -31t30 -74zM319 139h240v1155h-240q-92 0 -92 70t92 70h631q92 0 92 -70t-92 -70h-239
v-1155h239q92 0 92 -69.5t-92 -69.5h-631q-92 0 -92 69.5t92 69.5z" />
    <glyph glyph-name="Eth" unicode="&#xd0;" 
d="M344 1294v-508h90q92 0 92 -69.5t-92 -69.5h-90v-508h291q127 0 214 86t122 211t35 280.5t-35 280.5t-122 211t-214 86h-291zM102 786h91v551q0 45 27.5 71t72.5 26h336q254 0 393 -207t139 -510t-139 -510t-393 -207h-336q-45 0 -72.5 25.5t-27.5 70.5v551h-91
q-92 0 -92 69.5t92 69.5z" />
    <glyph glyph-name="Ntilde" unicode="&#xd1;" 
d="M291 1669q0 29 22 53q88 94 195 95q63 0 105 -29t77 -57.5t85 -28.5t99 53q23 25 52 25q53 0 53 -54q0 -29 -23 -53q-88 -94 -194 -94q-66 0 -107 28.5t-76 57.5t-85 29t-99 -54q-23 -25 -51 -24q-53 0 -53 53zM162 100v1233q0 43 21.5 72t67.5 29t83 -52l622 -1071v1022
q0 100 76 100.5t76 -100.5v-1233q0 -43 -21.5 -71.5t-67.5 -28.5t-83 51l-623 1071v-1022q0 -100 -75.5 -100t-75.5 100z" />
    <glyph glyph-name="Ograve" unicode="&#xd2;" 
d="M432 1814q0 70 64 70q14 0 39 -10l251 -129q52 -25 52 -62q1 -71 -64 -71q-14 0 -39 10l-252 129q-51 27 -51 63zM1044 717q0 268 -106.5 433t-303 165t-303 -165t-106.5 -433t106.5 -433t303 -165t303 165t106.5 433zM1200 716.5q0 -325.5 -146.5 -531t-419 -205.5
t-418.5 205.5t-146 531t146 531.5t418.5 206t419 -206t146.5 -531.5z" />
    <glyph glyph-name="Oacute" unicode="&#xd3;" 
d="M488 1612q-22 0 -39 17.5t-17 43.5q0 47 51 72l252 129q25 10 47 10t39 -17t17 -53t-52 -63l-251 -129q-25 -10 -47 -10zM1044 717q0 268 -106.5 433t-303 165t-303 -165t-106.5 -433t106.5 -433t303 -165t303 165t106.5 433zM1200 716.5q0 -325.5 -146.5 -531
t-419 -205.5t-418.5 205.5t-146 531t146 531.5t418.5 206t419 -206t146.5 -531.5z" />
    <glyph glyph-name="Ocircumflex" unicode="&#xd4;" 
d="M414 1561q-66 0 -66 63q0 33 33 59l197 156q31 25 57.5 25t56.5 -25l197 -156q33 -27 33 -59q0 -63 -66 -63q-27 0 -45 16l-176 141l-176 -141q-18 -16 -45 -16zM1044 717q0 268 -106.5 433t-303 165t-303 -165t-106.5 -433t106.5 -433t303 -165t303 165t106.5 433z
M1200 716.5q0 -325.5 -146.5 -531t-419 -205.5t-418.5 205.5t-146 531t146 531.5t418.5 206t419 -206t146.5 -531.5z" />
    <glyph glyph-name="Otilde" unicode="&#xd5;" 
d="M291 1669q0 29 22 53q88 94 195 95q63 0 105 -29t77 -57.5t85 -28.5t99 53q23 25 52 25q53 0 53 -54q0 -29 -23 -53q-88 -94 -194 -94q-66 0 -107 28.5t-76 57.5t-85 29t-99 -54q-23 -25 -51 -24q-53 0 -53 53zM1044 717q0 268 -106.5 433t-303 165t-303 -165
t-106.5 -433t106.5 -433t303 -165t303 165t106.5 433zM1200 716.5q0 -325.5 -146.5 -531t-419 -205.5t-418.5 205.5t-146 531t146 531.5t418.5 206t419 -206t146.5 -531.5z" />
    <glyph glyph-name="Odieresis" unicode="&#xd6;" 
d="M936 1677q0 -43 -29.5 -73.5t-75 -30.5t-75 30.5t-29.5 73.5t29.5 74t75 31t75 -31t29.5 -74zM543 1677q0 -43 -30 -73.5t-75 -30.5t-74.5 30.5t-29.5 73.5t29.5 74t74.5 31t75 -31t30 -74zM1044 717q0 268 -106.5 433t-303 165t-303 -165t-106.5 -433t106.5 -433
t303 -165t303 165t106.5 433zM1200 716.5q0 -325.5 -146.5 -531t-419 -205.5t-418.5 205.5t-146 531t146 531.5t418.5 206t419 -206t146.5 -531.5z" />
    <glyph glyph-name="multiply" unicode="&#xd7;" 
d="M999 896q0 -28 -36 -65l-215 -215l215 -215q63 -63 33.5 -95t-58.5 -32t-66 37l-215 215l-215 -215q-38 -37 -66 -37t-44.5 17.5t-16.5 45.5t37 64l215 215l-215 215q-37 37 -37 65t16.5 45t44.5 17t66 -36l215 -215l215 215q37 36 66 36t45 -17t16 -45z" />
    <glyph glyph-name="Oslash" unicode="&#xd8;" 
d="M225 717q0 -203 58 -342l628 811q-105 129 -289 129t-290.5 -165t-106.5 -433zM1044 717q0 203 -57 342l-629 -811q106 -129 290 -129t290 165t106 433zM635 -20q-223 0 -371 147l-71 -92q-29 -35 -64 -35q-63 0 -63 63q0 29 22 58l92 119q-110 190 -110 496t146 512
t419 206q223 0 371 -147l71 92q29 35 64 35q63 0 63 -64q1 -28 -22 -57l-92 -119q110 -190 110 -496t-146.5 -512t-418.5 -206z" />
    <glyph glyph-name="Ugrave" unicode="&#xd9;" 
d="M432 1814q0 70 64 70q14 0 39 -10l251 -129q52 -25 52 -62q1 -71 -64 -71q-14 0 -39 10l-252 129q-51 27 -51 63zM139 522v811q0 100 76 100.5t76 -100.5v-805q0 -215 90 -312t267 -97t266.5 97t89.5 312v805q0 100 75.5 100.5t75.5 -100.5v-805q0 -262 -132 -405
t-373.5 -143t-376 143t-134.5 399z" />
    <glyph glyph-name="Uacute" unicode="&#xda;" 
d="M488 1612q-22 0 -39 17.5t-17 43.5q0 47 51 72l252 129q25 10 47 10t39 -17t17 -53t-52 -63l-251 -129q-25 -10 -47 -10zM139 522v811q0 100 76 100.5t76 -100.5v-805q0 -215 90 -312t267 -97t266.5 97t89.5 312v805q0 100 75.5 100.5t75.5 -100.5v-805q0 -262 -132 -405
t-373.5 -143t-376 143t-134.5 399z" />
    <glyph glyph-name="Ucircumflex" unicode="&#xdb;" 
d="M428 1561q-66 0 -66 63q0 33 33 59l197 156q31 25 57.5 25t57.5 -25l196 -156q33 -27 33 -59q0 -63 -66 -63q-27 0 -45 16l-176 141l-176 -141q-18 -16 -45 -16zM139 522v811q0 100 76 100.5t76 -100.5v-805q0 -215 90 -312t267 -97t266.5 97t89.5 312v805
q0 100 75.5 100.5t75.5 -100.5v-805q0 -262 -132 -405t-373.5 -143t-376 143t-134.5 399z" />
    <glyph glyph-name="Udieresis" unicode="&#xdc;" 
d="M936 1696q0 -43 -29.5 -74t-75 -31t-75 31t-29.5 74t29.5 73.5t75 30.5t75 -30.5t29.5 -73.5zM543 1696q0 -43 -30 -74t-75 -31t-74.5 31t-29.5 74t29.5 73.5t74.5 30.5t75 -30.5t30 -73.5zM139 522v811q0 100 76 100.5t76 -100.5v-805q0 -215 90 -312t267 -97t266.5 97
t89.5 312v805q0 100 75.5 100.5t75.5 -100.5v-805q0 -262 -132 -405t-373.5 -143t-376 143t-134.5 399z" />
    <glyph glyph-name="Yacute" unicode="&#xdd;" 
d="M488 1612q-22 0 -39 17.5t-17 43.5q0 47 51 72l252 129q25 10 47 10t39 -17t17 -53t-52 -63l-251 -129q-25 -10 -47 -10zM559 100v541l-444 659q-20 29 -20.5 60t21 52.5t60.5 21.5t68 -45l391 -598l391 598q29 45 68 45t60.5 -21.5t21.5 -52.5t-21 -60l-444 -659v-541
q0 -100 -76 -100t-76 100z" />
    <glyph glyph-name="Thorn" unicode="&#xde;" 
d="M352 424h404q129 0 195.5 79t66.5 214t-66.5 214t-195.5 79h-404v-586zM352 285v-185q0 -100 -75.5 -100t-75.5 100v1233q0 100 75.5 100.5t75.5 -100.5v-184h367q221 0 338 -111.5t117 -319.5t-118 -320.5t-337 -112.5h-367z" />
    <glyph glyph-name="germandbls" unicode="&#xdf;" 
d="M692 0h-39q-88 0 -88 61.5t88 61.5h29q322 0 322 295q0 129 -82 203.5t-230 74.5h-37q-88 0 -88 61.5t88 61.5h21q111 0 174 71t63 193.5t-58 185t-164 62.5t-170 -73.5t-64 -206.5v-961q0 -90 -72 -90t-72 90v811h-141q-88 0 -88 61.5t88 61.5h141v14q0 205 113.5 310.5
t271.5 105.5t258.5 -93t100.5 -263q0 -201 -152 -316q242 -106 242 -364q0 -201 -119 -309.5t-336 -108.5z" />
    <glyph glyph-name="agrave" unicode="&#xe0;" 
d="M432 1425q0 70 64 70q14 0 39 -10l251 -129q52 -25 52 -62q1 -71 -64 -71q-14 0 -39 10l-252 129q-51 27 -51 63zM295 512q0 -184 88 -297t239.5 -113t239.5 113t88 297t-88 297t-239.5 113t-239.5 -113t-88 -297zM618 -20q-215 0 -340.5 139t-125.5 381t119.5 393
t346.5 151q106 0 194.5 -44t137.5 -113v47q0 90 72 90t72 -90v-844q0 -90 -72 -90t-72 90v43q-41 -63 -133.5 -108t-198.5 -45z" />
    <glyph glyph-name="aacute" unicode="&#xe1;" 
d="M488 1223q-22 0 -39 17t-17 44q0 47 51 72l252 129q25 10 47 10t39 -17.5t17 -53.5t-52 -62l-251 -129q-25 -10 -47 -10zM295 512q0 -184 88 -297t239.5 -113t239.5 113t88 297t-88 297t-239.5 113t-239.5 -113t-88 -297zM618 -20q-215 0 -340.5 139t-125.5 381
t119.5 393t346.5 151q106 0 194.5 -44t137.5 -113v47q0 90 72 90t72 -90v-844q0 -90 -72 -90t-72 90v43q-41 -63 -133.5 -108t-198.5 -45z" />
    <glyph glyph-name="acircumflex" unicode="&#xe2;" 
d="M348 1235q0 33 33 59l197 156q31 25 57.5 25t56.5 -25l197 -156q33 -27 33 -59q0 -63 -66 -64q-27 0 -45 17l-176 141l-176 -141q-18 -16 -45 -17q-66 0 -66 64zM295 512q0 -184 88 -297t239.5 -113t239.5 113t88 297t-88 297t-239.5 113t-239.5 -113t-88 -297zM618 -20
q-215 0 -340.5 139t-125.5 381t119.5 393t346.5 151q106 0 194.5 -44t137.5 -113v47q0 90 72 90t72 -90v-844q0 -90 -72 -90t-72 90v43q-41 -63 -133.5 -108t-198.5 -45z" />
    <glyph glyph-name="atilde" unicode="&#xe3;" 
d="M344 1247q-53 0 -53 53q0 29 22 54q88 94 195 94q63 0 105 -28.5t77 -57.5t85 -29t99 53q23 25 52 25q53 0 53 -53q0 -29 -23 -53q-88 -94 -194 -95q-66 0 -107 29t-76 57.5t-85 28.5t-99 -53q-23 -25 -51 -25zM295 512q0 -184 88 -297t239.5 -113t239.5 113t88 297
t-88 297t-239.5 113t-239.5 -113t-88 -297zM618 -20q-215 0 -340.5 139t-125.5 381t119.5 393t346.5 151q106 0 194.5 -44t137.5 -113v47q0 90 72 90t72 -90v-844q0 -90 -72 -90t-72 90v43q-41 -63 -133.5 -108t-198.5 -45z" />
    <glyph glyph-name="adieresis" unicode="&#xe4;" 
d="M936 1288q0 -43 -29.5 -73.5t-75 -30.5t-75 30.5t-29.5 73.5t29.5 74t75 31t75 -31t29.5 -74zM543 1288q0 -43 -30 -73.5t-75 -30.5t-74.5 30.5t-29.5 73.5t29.5 74t74.5 31t75 -31t30 -74zM295 512q0 -184 88 -297t239.5 -113t239.5 113t88 297t-88 297t-239.5 113
t-239.5 -113t-88 -297zM618 -20q-215 0 -340.5 139t-125.5 381t119.5 393t346.5 151q106 0 194.5 -44t137.5 -113v47q0 90 72 90t72 -90v-844q0 -90 -72 -90t-72 90v43q-41 -63 -133.5 -108t-198.5 -45z" />
    <glyph glyph-name="aring" unicode="&#xe5;" 
d="M508 1382.5q0 -51.5 32.5 -84t84 -32.5t84 32.5t32.5 84t-32.5 84t-84 32.5t-84 -32.5t-32.5 -84zM416 1382q0 88 61.5 148.5t147.5 60.5t147.5 -60.5t61.5 -148.5t-61.5 -148t-147.5 -60t-147.5 60t-61.5 148zM295 512q0 -184 88 -297t239.5 -113t239.5 113t88 297
t-88 297t-239.5 113t-239.5 -113t-88 -297zM618 -20q-215 0 -340.5 139t-125.5 381t119.5 393t346.5 151q106 0 194.5 -44t137.5 -113v47q0 90 72 90t72 -90v-844q0 -90 -72 -90t-72 90v43q-41 -63 -133.5 -108t-198.5 -45z" />
    <glyph glyph-name="ae" unicode="&#xe6;" 
d="M528 307v148q-137 0 -218 -46.5t-81 -131.5t43 -124.5t103 -39.5q153 -1 153 194zM672 582h372q-16 324 -192 323q-94 0 -135 -81.5t-45 -241.5zM1106 305q72 0 72 -76q0 -35 -25 -69q-59 -88 -125 -134t-164 -46t-163.5 38.5t-98.5 96.5q-78 -135 -235 -135
q-129 0 -205 72t-76 224t123 229t319 77v73q0 250 -151 250q-96 0 -152 -135q-20 -47 -55 -47t-55.5 20.5t-20.5 44.5t4 35q35 102 112 161.5t167 59.5q152 0 237 -141q94 141 248 141t242 -135t88 -352q0 -102 -92 -102h-428v-101q0 -109 49 -175t131 -66q106 0 190 145
q29 47 64 47z" />
    <glyph glyph-name="ccedilla" unicode="&#xe7;" 
d="M670 -131q27 0 44 -16.5t17 -43.5t-8 -45l-78 -200q-23 -55 -72 -56q-27 0 -44 16.5t-17 43.5t8 45l78 201q23 55 72 55zM649 1044q129 0 206 -36t130 -92t53 -95q0 -61 -61 -61q-35 0 -64 37q-100 125 -269 125t-259 -114t-90 -296t90 -296t259 -114t269 125
q29 37 64 37q61 0 61 -61q0 -39 -54 -95t-130 -92t-205 -36q-238 0 -367.5 149.5t-129.5 382.5t129.5 382.5t367.5 149.5z" />
    <glyph glyph-name="egrave" unicode="&#xe8;" 
d="M432 1425q0 70 64 70q14 0 39 -10l251 -129q52 -25 52 -62q1 -71 -64 -71q-14 0 -39 10l-252 129q-51 27 -51 63zM652 922q-144 0 -238.5 -102.5t-110.5 -237.5h684q-23 150 -107 245t-228 95zM152 509q0 220 139 377.5t354 157.5t350 -143t135 -360q0 -82 -90 -82h-745
q6 -141 102.5 -249t243.5 -108q215 0 340 142q33 35 65 35t50 -19.5t18 -52.5t-31 -62q-96 -94 -198.5 -129.5t-235.5 -35.5q-227 0 -362 154.5t-135 374.5z" />
    <glyph glyph-name="eacute" unicode="&#xe9;" 
d="M488 1223q-22 0 -39 17t-17 44q0 47 51 72l252 129q25 10 47 10t39 -17.5t17 -53.5t-52 -62l-251 -129q-25 -10 -47 -10zM652 922q-144 0 -238.5 -102.5t-110.5 -237.5h684q-23 150 -107 245t-228 95zM152 509q0 220 139 377.5t354 157.5t350 -143t135 -360
q0 -82 -90 -82h-745q6 -141 102.5 -249t243.5 -108q215 0 340 142q33 35 65 35t50 -19.5t18 -52.5t-31 -62q-96 -94 -198.5 -129.5t-235.5 -35.5q-227 0 -362 154.5t-135 374.5z" />
    <glyph glyph-name="ecircumflex" unicode="&#xea;" 
d="M348 1235q0 33 33 59l197 156q31 25 57.5 25t56.5 -25l197 -156q33 -27 33 -59q0 -63 -66 -64q-27 0 -45 17l-176 141l-176 -141q-18 -16 -45 -17q-66 0 -66 64zM652 922q-144 0 -238.5 -102.5t-110.5 -237.5h684q-23 150 -107 245t-228 95zM152 509q0 220 139 377.5
t354 157.5t350 -143t135 -360q0 -82 -90 -82h-745q6 -141 102.5 -249t243.5 -108q215 0 340 142q33 35 65 35t50 -19.5t18 -52.5t-31 -62q-96 -94 -198.5 -129.5t-235.5 -35.5q-227 0 -362 154.5t-135 374.5z" />
    <glyph glyph-name="edieresis" unicode="&#xeb;" 
d="M936 1288q0 -43 -29.5 -73.5t-75 -30.5t-75 30.5t-29.5 73.5t29.5 74t75 31t75 -31t29.5 -74zM543 1288q0 -43 -30 -73.5t-75 -30.5t-74.5 30.5t-29.5 73.5t29.5 74t74.5 31t75 -31t30 -74zM652 922q-144 0 -238.5 -102.5t-110.5 -237.5h684q-23 150 -107 245t-228 95z
M152 509q0 220 139 377.5t354 157.5t350 -143t135 -360q0 -82 -90 -82h-745q6 -141 102.5 -249t243.5 -108q215 0 340 142q33 35 65 35t50 -19.5t18 -52.5t-31 -62q-96 -94 -198.5 -129.5t-235.5 -35.5q-227 0 -362 154.5t-135 374.5z" />
    <glyph glyph-name="igrave" unicode="&#xec;" 
d="M432 1425q0 70 64 70q14 0 39 -10l251 -129q52 -25 52 -62q1 -71 -64 -71q-14 0 -39 10l-252 129q-51 27 -51 63zM313 123h322v778h-244q-88 0 -88 61.5t88 61.5h322q66 0 65 -61v-840h309q88 0 88.5 -61.5t-88.5 -61.5h-774q-88 0 -88 61.5t88 61.5z" />
    <glyph glyph-name="iacute" unicode="&#xed;" 
d="M488 1223q-22 0 -39 17t-17 44q0 47 51 72l252 129q25 10 47 10t39 -17.5t17 -53.5t-52 -62l-251 -129q-25 -10 -47 -10zM313 123h322v778h-244q-88 0 -88 61.5t88 61.5h322q66 0 65 -61v-840h309q88 0 88.5 -61.5t-88.5 -61.5h-774q-88 0 -88 61.5t88 61.5z" />
    <glyph glyph-name="icircumflex" unicode="&#xee;" 
d="M348 1235q0 33 33 59l197 156q31 25 57.5 25t56.5 -25l197 -156q33 -27 33 -59q0 -63 -66 -64q-27 0 -45 17l-176 141l-176 -141q-18 -16 -45 -17q-66 0 -66 64zM313 123h322v778h-244q-88 0 -88 61.5t88 61.5h322q66 0 65 -61v-840h309q88 0 88.5 -61.5t-88.5 -61.5
h-774q-88 0 -88 61.5t88 61.5z" />
    <glyph glyph-name="idieresis" unicode="&#xef;" 
d="M936 1288q0 -43 -29.5 -73.5t-75 -30.5t-75 30.5t-29.5 73.5t29.5 74t75 31t75 -31t29.5 -74zM543 1288q0 -43 -30 -73.5t-75 -30.5t-74.5 30.5t-29.5 73.5t29.5 74t74.5 31t75 -31t30 -74zM313 123h322v778h-244q-88 0 -88 61.5t88 61.5h322q66 0 65 -61v-840h309
q88 0 88.5 -61.5t-88.5 -61.5h-774q-88 0 -88 61.5t88 61.5z" />
    <glyph glyph-name="eth" unicode="&#xf0;" 
d="M307 512q0 -184 90 -297t235.5 -113t235.5 113t90 297t-90 297t-235.5 113t-235.5 -113t-90 -297zM451 1427q0 27 19 45.5t52 18.5t64 -16q131 -68 227 -154l133 27q25 4 35 4q68 0 68 -64q0 -47 -78 -63l-58 -13q193 -252 193 -680v-20q0 -231 -125 -381.5t-348 -150.5
t-348 150.5t-125 381.5t125 381.5t348 150.5q172 0 276 -92q-49 129 -147 230l-291 -60q-25 -4 -35 -4q-68 0 -67 64q-1 47 77 63l193 39q-80 51 -134 74t-54 69z" />
    <glyph glyph-name="ntilde" unicode="&#xf1;" 
d="M344 1247q-53 0 -53 53q0 29 22 54q88 94 195 94q63 0 105 -28.5t77 -57.5t85 -29t99 53q23 25 52 25q53 0 53 -53q0 -29 -23 -53q-88 -94 -194 -95q-66 0 -107 29t-76 57.5t-85 28.5t-99 -53q-23 -25 -51 -25zM233 90v844q0 90 72 90t72 -90v-70q41 72 133 126t195 54
q180 0 269 -98t89 -311v-545q0 -90 -71.5 -90t-71.5 90v522q0 164 -51.5 237t-187.5 73t-220 -126t-84 -335v-371q0 -90 -72 -90t-72 90z" />
    <glyph glyph-name="ograve" unicode="&#xf2;" 
d="M432 1425q0 70 64 70q14 0 39 -10l251 -129q52 -25 52 -62q1 -71 -64 -71q-14 0 -39 10l-252 129q-51 27 -51 63zM303 512q0 -184 91 -297t238.5 -113t239 113t91.5 297t-91.5 297t-239 113t-238.5 -113t-91 -297zM633 -20q-223 0 -348 150.5t-125 381.5t125 381.5
t348 150.5t348 -150.5t125 -381.5t-125 -381.5t-348 -150.5z" />
    <glyph glyph-name="oacute" unicode="&#xf3;" 
d="M488 1223q-22 0 -39 17t-17 44q0 47 51 72l252 129q25 10 47 10t39 -17.5t17 -53.5t-52 -62l-251 -129q-25 -10 -47 -10zM303 512q0 -184 91 -297t238.5 -113t239 113t91.5 297t-91.5 297t-239 113t-238.5 -113t-91 -297zM633 -20q-223 0 -348 150.5t-125 381.5
t125 381.5t348 150.5t348 -150.5t125 -381.5t-125 -381.5t-348 -150.5z" />
    <glyph glyph-name="ocircumflex" unicode="&#xf4;" 
d="M348 1235q0 33 33 59l197 156q31 25 57.5 25t56.5 -25l197 -156q33 -27 33 -59q0 -63 -66 -64q-27 0 -45 17l-176 141l-176 -141q-18 -16 -45 -17q-66 0 -66 64zM303 512q0 -184 91 -297t238.5 -113t239 113t91.5 297t-91.5 297t-239 113t-238.5 -113t-91 -297zM633 -20
q-223 0 -348 150.5t-125 381.5t125 381.5t348 150.5t348 -150.5t125 -381.5t-125 -381.5t-348 -150.5z" />
    <glyph glyph-name="otilde" unicode="&#xf5;" 
d="M344 1247q-53 0 -53 53q0 29 22 54q88 94 195 94q63 0 105 -28.5t77 -57.5t85 -29t99 53q23 25 52 25q53 0 53 -53q0 -29 -23 -53q-88 -94 -194 -95q-66 0 -107 29t-76 57.5t-85 28.5t-99 -53q-23 -25 -51 -25zM303 512q0 -184 91 -297t238.5 -113t239 113t91.5 297
t-91.5 297t-239 113t-238.5 -113t-91 -297zM633 -20q-223 0 -348 150.5t-125 381.5t125 381.5t348 150.5t348 -150.5t125 -381.5t-125 -381.5t-348 -150.5z" />
    <glyph glyph-name="odieresis" unicode="&#xf6;" 
d="M936 1288q0 -43 -29.5 -73.5t-75 -30.5t-75 30.5t-29.5 73.5t29.5 74t75 31t75 -31t29.5 -74zM543 1288q0 -43 -30 -73.5t-75 -30.5t-74.5 30.5t-29.5 73.5t29.5 74t74.5 31t75 -31t30 -74zM303 512q0 -184 91 -297t238.5 -113t239 113t91.5 297t-91.5 297t-239 113
t-238.5 -113t-91 -297zM633 -20q-223 0 -348 150.5t-125 381.5t125 381.5t348 150.5t348 -150.5t125 -381.5t-125 -381.5t-348 -150.5z" />
    <glyph glyph-name="divide" unicode="&#xf7;" 
d="M266 680h738q88 0 88 -63.5t-88 -63.5h-738q-88 0 -88 63.5t88 63.5zM487 991.5q0 63.5 42 105.5t105.5 42t105.5 -42t42 -105.5t-42 -105.5t-105.5 -42t-105.5 42t-42 105.5zM487 241.5q0 63.5 42 105.5t105.5 42t105.5 -42t42 -105.5t-42 -105.5t-105.5 -42t-105.5 42
t-42 105.5z" />
    <glyph glyph-name="oslash" unicode="&#xf8;" 
d="M307 534q0 -162 53 -264l457 592q-78 59 -184 60q-145 0 -235.5 -113t-90.5 -275zM958 490q0 162 -53 264l-456 -592q78 -59 184 -60q145 0 235 113t90 275zM633 -20q-160 0 -266 75l-17 -20q-27 -35 -63 -35q-63 0 -64 63q0 27 23 58l22 29q-108 143 -108 368t125 375.5
t348 150.5q156 0 266 -75l16 20q27 35 64 35q63 0 63 -63q0 -27 -22 -58l-23 -29q109 -143 109 -368t-125 -375.5t-348 -150.5z" />
    <glyph glyph-name="ugrave" unicode="&#xf9;" 
d="M432 1425q0 70 64 70q14 0 39 -10l251 -129q52 -25 52 -62q1 -71 -64 -71q-14 0 -39 10l-252 129q-51 27 -51 63zM1067 934v-844q0 -90 -71.5 -90t-71.5 90v70q-41 -72 -133.5 -126t-194.5 -54q-180 0 -269 98t-89 311v545q0 90 71.5 90t71.5 -90v-522q0 -164 51 -237
t187 -73t220.5 126t84.5 335v371q0 90 71.5 90t71.5 -90z" />
    <glyph glyph-name="uacute" unicode="&#xfa;" 
d="M488 1223q-22 0 -39 17t-17 44q0 47 51 72l252 129q25 10 47 10t39 -17.5t17 -53.5t-52 -62l-251 -129q-25 -10 -47 -10zM1067 934v-844q0 -90 -71.5 -90t-71.5 90v70q-41 -72 -133.5 -126t-194.5 -54q-180 0 -269 98t-89 311v545q0 90 71.5 90t71.5 -90v-522
q0 -164 51 -237t187 -73t220.5 126t84.5 335v371q0 90 71.5 90t71.5 -90z" />
    <glyph glyph-name="ucircumflex" unicode="&#xfb;" 
d="M356 1235q0 33 33 59l197 156q31 25 57.5 25t56.5 -25l197 -156q33 -27 33 -59q0 -63 -66 -64q-27 0 -45 17l-176 141l-176 -141q-18 -16 -45 -17q-66 0 -66 64zM1067 934v-844q0 -90 -71.5 -90t-71.5 90v70q-41 -72 -133.5 -126t-194.5 -54q-180 0 -269 98t-89 311v545
q0 90 71.5 90t71.5 -90v-522q0 -164 51 -237t187 -73t220.5 126t84.5 335v371q0 90 71.5 90t71.5 -90z" />
    <glyph glyph-name="udieresis" unicode="&#xfc;" 
d="M936 1288q0 -43 -29.5 -73.5t-75 -30.5t-75 30.5t-29.5 73.5t29.5 74t75 31t75 -31t29.5 -74zM543 1288q0 -43 -30 -73.5t-75 -30.5t-74.5 30.5t-29.5 73.5t29.5 74t74.5 31t75 -31t30 -74zM1067 934v-844q0 -90 -71.5 -90t-71.5 90v70q-41 -72 -133.5 -126t-194.5 -54
q-180 0 -269 98t-89 311v545q0 90 71.5 90t71.5 -90v-522q0 -164 51 -237t187 -73t220.5 126t84.5 335v371q0 90 71.5 90t71.5 -90z" />
    <glyph glyph-name="yacute" unicode="&#xfd;" 
d="M488 1223q-22 0 -39 17t-17 44q0 47 51 72l252 129q25 10 47 10t39 -17.5t17 -53.5t-52 -62l-251 -129q-25 -10 -47 -10zM166 953q0 26 21.5 48.5t59.5 22.5t64 -57l332 -760l324 758q27 59 80 59q29 0 49 -19t20 -45t-12 -55l-379 -848q-141 -318 -236 -402.5
t-240 -84.5t-145 80q0 31 19 47t39 16t48 -10t56 -10q96 0 158.5 80t142.5 262l-395 874q-6 18 -6 44z" />
    <glyph glyph-name="thorn" unicode="&#xfe;" 
d="M950 512q0 184 -82 297t-231.5 113t-232 -113t-82.5 -297t82.5 -297t232 -113t231.5 113t82 297zM641 -20q-102 0 -190.5 44t-128.5 109v-452q0 -90 -72 -90.5t-72 90.5v1662q0 90 72 90.5t72 -90.5v-456q116 157 330 157t328 -150t114 -394t-120 -382t-333 -138z" />
    <glyph glyph-name="ydieresis" unicode="&#xff;" 
d="M948 1288q0 -43 -29.5 -73.5t-74.5 -30.5t-75 30.5t-30 73.5t30 74t75 31t74.5 -31t29.5 -74zM555 1288q0 -43 -29.5 -73.5t-74.5 -30.5t-75 30.5t-30 73.5t30 74t75 31t74.5 -31t29.5 -74zM166 953q0 26 21.5 48.5t59.5 22.5t64 -57l332 -760l324 758q27 59 80 59
q29 0 49 -19t20 -45t-12 -55l-379 -848q-141 -318 -236 -402.5t-240 -84.5t-145 80q0 31 19 47t39 16t48 -10t56 -10q96 0 158.5 80t142.5 262l-395 874q-6 18 -6 44z" />
    <glyph glyph-name="dotlessi" unicode="&#x131;" 
d="M313 123h322v778h-244q-88 0 -88 61.5t88 61.5h322q66 0 65 -61v-840h309q88 0 88.5 -61.5t-88.5 -61.5h-774q-88 0 -88 61.5t88 61.5z" />
    <glyph glyph-name="Lslash" unicode="&#x141;" 
d="M268 1333q0 100 76 100.5t76 -100.5v-573l153 92q37 20 62 20t41 -18t16 -48t-53 -63l-219 -131v-473h674q92 0 92 -69.5t-92 -69.5h-725q-45 0 -73 25.5t-28 70.5v428l-106 -63q-72 -39 -95.5 -12t-23.5 57t53 63l172 103v661z" />
    <glyph glyph-name="lslash" unicode="&#x142;" 
d="M313 123h322v420l-139 -82q-72 -39 -95.5 -11.5t-23.5 57.5t53 62l205 121v621h-244q-88 0 -88 61.5t88 61.5h322q66 0 65 -62v-598l129 78q37 20 62 20t41 -18t16 -48t-53 -63l-195 -114v-506h309q88 0 88.5 -61.5t-88.5 -61.5h-774q-88 0 -88 61.5t88 61.5z" />
    <glyph glyph-name="OE" unicode="&#x152;" 
d="M614 139v1155q-195 0 -292 -153.5t-97 -424t97 -424t292 -153.5zM631 1434h473q92 0 92 -70t-92 -70h-338v-487h231q92 0 92.5 -69.5t-92.5 -69.5h-231v-529h360q92 0 92.5 -69.5t-92.5 -69.5h-495q-274 0 -417.5 196.5t-143.5 520t143.5 520.5t417.5 197z" />
    <glyph glyph-name="oe" unicode="&#x153;" 
d="M727 582h266q-20 131 -86.5 222t-179.5 114v-336zM299 510q0 -158 78 -267.5t203 -136.5v812q-123 -29 -202 -139.5t-79 -268.5zM655 -20q-227 0 -365 152.5t-138 379.5t138 379.5t357 152.5t354.5 -143t135.5 -360q0 -82 -90 -82h-320v-353q156 20 260 138q33 35 65 35
t50 -19.5t18 -52.5t-30 -62q-98 -94 -200 -129.5t-235 -35.5z" />
    <glyph glyph-name="Scaron" unicode="&#x160;" 
d="M893 1800q0 -33 -33 -59l-196 -156q-56 -45 -115 0l-197 156q-33 27 -33 59q0 63 66 64q27 -1 45 -17l176 -141l176 141q18 16 45 17q66 0 66 -64zM86 329q0 30 20.5 50t59.5 20t72 -49q80 -121 160.5 -176t231.5 -55t237.5 70.5t86.5 211.5t-117 194t-288 103
q-172 49 -290 135.5t-118 239.5q0 188 134.5 284.5t326.5 96.5q289 0 432 -227q23 -37 23 -70t-20.5 -53.5t-60.5 -20.5t-69 54q-51 96 -124.5 137t-199.5 41t-206 -59.5t-80 -180.5q0 -73 59.5 -127.5t146.5 -84t168 -55.5t184 -65t179 -119t76 -214q0 -211 -138 -320.5
t-349 -109.5q-353 -1 -519 286q-18 33 -18 63z" />
    <glyph glyph-name="scaron" unicode="&#x161;" 
d="M932 1411q0 -33 -33 -59l-197 -156q-31 -25 -57.5 -25t-56.5 25l-197 156q-33 27 -33 59q0 63 66 64q27 -1 45 -17l176 -141l176 141q18 16 45 17q66 0 66 -64zM223 234q0 31 21.5 49t58.5 18t68 -44t60.5 -73.5t92 -55.5t148.5 -26q274 0 274 193q0 41 -22.5 69.5
t-92 52.5t-178.5 41q-108 17 -162.5 33.5t-139.5 61.5t-85 187t114 223t253 81t224 -35.5t151 -123.5q23 -29 22.5 -59.5t-19.5 -49t-55 -18.5t-67 47q-78 117 -240 117q-113 0 -176 -52.5t-63 -120.5t42.5 -99t109 -46t140.5 -27q147 -23 267.5 -80.5t120.5 -185.5
q0 -156 -112 -243.5t-306 -87.5q-283 0 -422 188q-27 35 -27 66z" />
    <glyph glyph-name="Ydieresis" unicode="&#x178;" 
d="M936 1698q0 -43 -29.5 -74t-75 -31t-75 31t-29.5 74t29.5 73.5t75 30.5t75 -30.5t29.5 -73.5zM543 1698q0 -43 -30 -74t-75 -31t-74.5 31t-29.5 74t29.5 73.5t74.5 30.5t75 -30.5t30 -73.5zM559 100v541l-444 659q-20 29 -20.5 60t21 52.5t60.5 21.5t68 -45l391 -598
l391 598q29 45 68 45t60.5 -21.5t21.5 -52.5t-21 -60l-444 -659v-541q0 -100 -76 -100t-76 100z" />
    <glyph glyph-name="Zcaron" unicode="&#x17d;" 
d="M922 1800q0 -33 -33 -59l-197 -156q-57 -46 -114 0l-197 156q-33 27 -33 59q0 63 66 64q27 -1 45 -17l176 -141l176 141q18 16 45 17q66 0 66 -64zM1057 0h-858q-41 0 -63.5 23.5t-22.5 54.5t16 57l797 1159h-701q-53 0 -76.5 12.5t-23.5 55.5t24.5 57.5t75.5 14.5h801
q45 0 72.5 -22.5t27.5 -53.5t-18 -60l-789 -1159h738q51 0 76.5 -14t25.5 -55t-25.5 -55.5t-76.5 -14.5z" />
    <glyph glyph-name="zcaron" unicode="&#x17e;" 
d="M922 1411q0 -33 -33 -59l-197 -156q-31 -25 -57.5 -25t-56.5 25l-197 156q-33 27 -33 59q0 63 66 64q27 -1 45 -17l176 -141l176 141q18 16 45 17q66 0 66 -64zM965 0h-693q-41 0 -63.5 21.5t-22.5 53.5t21 54l641 772h-543q-88 0 -88 61.5t88 61.5h641q86 0 86 -80
q0 -31 -20 -53l-637 -768h590q88 0 88 -61.5t-88 -61.5z" />
    <glyph glyph-name="florin" unicode="&#x192;" 
d="M487 -51v952h-276q-88 0 -88 61.5t88 61.5h276v70q0 172 89.5 266t234.5 94q106 0 185 -52t112 -149q4 -9 4 -33t-18 -40.5t-52 -16.5t-53 45q-49 123 -172 123q-186 0 -186 -256v-51h395q88 0 88 -61.5t-88 -61.5h-395v-971q0 -172 -89 -266t-235 -94q-106 0 -185 52
t-112 149q-4 9 -4 33t18.5 40.5t52.5 16.5t52 -45q49 -123 172 -123q186 0 186 256z" />
    <glyph glyph-name="circumflex" unicode="&#x2c6;" 
d="M393 1581q-66 0 -65 64q0 33 32 59l197 156q56 45 115 0l196 -156q33 -27 33 -59q0 -63 -65 -64q-27 0 -45 16l-177 142l-176 -142q-18 -16 -45 -16z" />
    <glyph glyph-name="caron" unicode="&#x2c7;" 
d="M836 1884q66 0 65 -63q0 -33 -33 -60l-196 -155q-31 -25 -57.5 -25t-57.5 25l-197 155q-33 27 -32 60q0 63 65 63q27 0 45 -16l176 -142l177 142q18 16 45 16z" />
    <glyph glyph-name="breve" unicode="&#x2d8;" 
d="M719 1734q0 54 46 54t46 -51q0 -96 -55.5 -154.5t-149.5 -58.5t-149.5 58t-55.5 155q1 51 47 51t46 -54t30.5 -86t81.5 -32t82 32t31 86z" />
    <glyph glyph-name="dotaccent" unicode="&#x2d9;" 
d="M803 1714q0 -47 -34 -81t-81 -34t-81 34t-34 81t34 81t81 34t81 -34t34 -81z" />
    <glyph glyph-name="ring" unicode="&#x2da;" 
d="M489 1812.5q0 -51.5 33 -84t84 -32.5t84 32.5t33 84t-33 84t-84 32.5t-84 -32.5t-33 -84zM397 1812.5q0 88.5 61.5 148.5t147.5 60t147.5 -60t61.5 -148.5t-61.5 -148.5t-147.5 -60t-147.5 60t-61.5 148.5z" />
    <glyph glyph-name="ogonek" unicode="&#x2db;" 
d="M756 -133q0 -37 -58 -64l-161 -75q2 -70 41.5 -112t95.5 -42t87.5 30.5t57.5 96.5q16 43 62 43q63 0 63 -63q0 -20 -8 -39q-74 -164 -264 -164q-100 0 -168 71.5t-68 184.5q0 36 29 59l164 123q27 20 57 20t50 -16t20 -53z" />
    <glyph glyph-name="tilde" unicode="&#x2dc;" 
d="M289 1710q0 29 22 53q88 94 195 95q63 0 105 -29t77 -57.5t85 -28.5t99 53q23 25 52 25q53 0 53 -54q0 -29 -23 -53q-88 -94 -194 -94q-66 0 -107 28.5t-76 57t-85 28.5t-99 -53q-23 -25 -51 -24q-53 0 -53 53z" />
    <glyph glyph-name="hungarumlaut" unicode="&#x2dd;" 
d="M710 1653q-22 0 -38.5 17.5t-16.5 43.5q0 47 52 72l251 129q26 10 48 10t38.5 -17.5t16.5 -53.5t-51 -62l-252 -129q-26 -10 -48 -10zM260 1653q-22 0 -38.5 17.5t-16.5 43.5q0 47 51 72l252 129q26 10 48 10t38 -17.5t16 -53.5t-51 -62l-252 -129q-25 -10 -47 -10z" />
    <glyph glyph-name="uni2206" unicode="&#x394;" 
d="M608 1180l-352 -1057h705zM1030 0h-844q-78 0 -77 70q0 18 6 36l436 1280q16 47 57 47.5t58 -47.5l436 -1280q6 -18 6 -36q0 -70 -78 -70z" />
    <glyph glyph-name="uni2206" unicode="&#x2206;" 
d="M608 1180l-352 -1057h705zM1030 0h-844q-78 0 -77 70q0 18 6 36l436 1280q16 47 57 47.5t58 -47.5l436 -1280q6 -18 6 -36q0 -70 -78 -70z" />
    <glyph glyph-name="uni2126" unicode="&#x3a9;" 
d="M211 123h188l-86 99q-74 85 -96 119t-83.5 136t-61.5 285q0 240 158.5 404.5t417.5 164.5t406.5 -167t147.5 -402q0 -181 -61.5 -284t-84 -137t-95.5 -119l-87 -99h189q84 0 84 -61.5t-84 -61.5h-266q-70 0 -70 72q0 45 36 96t88 106.5t104.5 121t88 161.5t35.5 205
q0 188 -117.5 317t-311.5 129t-324.5 -135t-130.5 -311q0 -109 35.5 -205t88 -161.5t104.5 -121t88 -106.5t36 -96q0 -72 -90 -72h-246q-84 0 -84 61.5t84 61.5z" />
    <glyph glyph-name="uni2126" unicode="&#x2126;" 
d="M211 123h188l-86 99q-74 85 -96 119t-83.5 136t-61.5 285q0 240 158.5 404.5t417.5 164.5t406.5 -167t147.5 -402q0 -181 -61.5 -284t-84 -137t-95.5 -119l-87 -99h189q84 0 84 -61.5t-84 -61.5h-266q-70 0 -70 72q0 45 36 96t88 106.5t104.5 121t88 161.5t35.5 205
q0 188 -117.5 317t-311.5 129t-324.5 -135t-130.5 -311q0 -109 35.5 -205t88 -161.5t104.5 -121t88 -106.5t36 -96q0 -72 -90 -72h-246q-84 0 -84 61.5t84 61.5z" />
    <glyph glyph-name="pi" unicode="&#x3c0;" 
d="M799 61v840h-330v-811q0 -90 -71.5 -90t-71.5 90v811h-172q-88 0 -88 61.5t88 61.5h960q88 0 88 -61.5t-88 -61.5h-172v-778h119q88 0 88 -61.5t-88 -61.5h-197q-65 0 -65 61z" />
    <glyph glyph-name="uni2000" unicode="&#x2000;" horiz-adv-x="1009" 
 />
    <glyph glyph-name="uni2001" unicode="&#x2001;" horiz-adv-x="2021" 
 />
    <glyph glyph-name="uni2002" unicode="&#x2002;" horiz-adv-x="1009" 
 />
    <glyph glyph-name="uni2003" unicode="&#x2003;" horiz-adv-x="2021" 
 />
    <glyph glyph-name="uni2004" unicode="&#x2004;" horiz-adv-x="673" 
 />
    <glyph glyph-name="uni2005" unicode="&#x2005;" horiz-adv-x="503" 
 />
    <glyph glyph-name="uni2006" unicode="&#x2006;" horiz-adv-x="335" 
 />
    <glyph glyph-name="uni2007" unicode="&#x2007;" horiz-adv-x="335" 
 />
    <glyph glyph-name="uni2008" unicode="&#x2008;" horiz-adv-x="251" 
 />
    <glyph glyph-name="uni2009" unicode="&#x2009;" horiz-adv-x="403" 
 />
    <glyph glyph-name="uni200A" unicode="&#x200a;" horiz-adv-x="110" 
 />
    <glyph glyph-name="uni2010" unicode="&#x2010;" 
d="M311 680h647q88 0 88.5 -63.5t-88.5 -63.5h-647q-88 0 -88 63.5t88 63.5z" />
    <glyph glyph-name="uni2011" unicode="&#x2011;" 
d="M311 680h647q88 0 88.5 -63.5t-88.5 -63.5h-647q-88 0 -88 63.5t88 63.5z" />
    <glyph glyph-name="figuredash" unicode="&#x2012;" 
d="M311 680h647q88 0 88.5 -63.5t-88.5 -63.5h-647q-88 0 -88 63.5t88 63.5z" />
    <glyph glyph-name="endash" unicode="&#x2013;" 
d="M289 680h737q88 0 88 -63.5t-88 -63.5h-737q-88 0 -88 63.5t88 63.5z" />
    <glyph glyph-name="emdash" unicode="&#x2014;" 
d="M186 680h897q88 0 88 -63.5t-88 -63.5h-897q-88 0 -88 63.5t88 63.5z" />
    <glyph glyph-name="quoteleft" unicode="&#x2018;" 
d="M748 920q0 -61 -42 -104.5t-106 -43.5t-105.5 43t-41.5 105v14q0 139 64.5 249.5t154.5 155.5q29 14 59 15q51 0 51 -47q0 -33 -43 -50q-119 -47 -118 -135q0 -29 10 -43t41 -30q76 -43 76 -129z" />
    <glyph glyph-name="quoteright" unicode="&#x2019;" 
d="M487 1206q0 61 42.5 104.5t106.5 43.5t105 -43t41 -105v-14q0 -139 -64.5 -250t-154.5 -156q-29 -14 -59 -14q-51 0 -51 47q0 33 43 49q119 47 118 136q0 29 -10 43t-41 30q-76 43 -76 129z" />
    <glyph glyph-name="quotesinglbase" unicode="&#x201a;" 
d="M467 147q0 61 42 104.5t106 43.5t105.5 -43t41.5 -105v-14q0 -139 -64.5 -249.5t-154.5 -155.5q-29 -14 -60 -15q-51 0 -51 47q0 33 43 50q119 47 119 135q0 29 -10 43t-41 30q-76 43 -76 129z" />
    <glyph glyph-name="quotedblleft" unicode="&#x201c;" 
d="M584 920q0 -61 -42 -104.5t-106 -43.5t-105.5 43t-41.5 105v14q0 139 64.5 249.5t154.5 155.5q29 14 59 15q51 0 51 -47q0 -33 -43 -50q-119 -47 -118 -135q0 -29 10 -43t41 -30q76 -43 76 -129zM810 772q-64 0 -105 43t-41 105v14q0 139 64.5 249.5t154.5 155.5
q29 14 59 15q51 0 51 -47q0 -33 -43 -50q-119 -47 -119 -135q0 -29 10.5 -43t41.5 -30q76 -43 75 -129q0 -61 -42 -104.5t-106 -43.5z" />
    <glyph glyph-name="quotedblright" unicode="&#x201d;" 
d="M698 1206q0 61 42 104.5t106 43.5t105.5 -43t41.5 -105v-14q0 -139 -64.5 -250t-154.5 -156q-29 -14 -59 -14q-51 0 -51 47q0 33 43 49q119 47 118 136q0 29 -10 43t-41 30q-76 43 -76 129zM472 1354q64 0 105 -43t41 -105v-14q0 -139 -64.5 -250t-154.5 -156
q-29 -14 -59 -14q-51 0 -51 47q0 33 43 49q119 47 119 136q0 29 -10.5 43t-41.5 30q-76 43 -75 129q0 61 42 104.5t106 43.5z" />
    <glyph glyph-name="quotedblbase" unicode="&#x201e;" 
d="M698 147q0 61 42 104.5t106 43.5t105.5 -43t41.5 -105v-14q0 -139 -64.5 -249.5t-154.5 -155.5q-29 -14 -59 -15q-51 0 -51 47q0 33 43 50q119 47 118 135q0 29 -10 43t-41 30q-76 43 -76 129zM472 295q64 0 105 -43t41 -105v-14q0 -139 -64.5 -249.5t-154.5 -155.5
q-29 -14 -59 -15q-51 0 -51 47q0 33 43 50q119 47 119 135q0 29 -10.5 43t-41.5 30q-76 43 -75 129q0 61 42 104.5t106 43.5z" />
    <glyph glyph-name="dagger" unicode="&#x2020;" 
d="M707 1024h251q88 0 88.5 -63.5t-88.5 -63.5h-251v-1122q0 -35 -20.5 -58.5t-51.5 -23.5t-51.5 23.5t-20.5 58.5v1122h-252q-88 0 -88 63.5t88 63.5h252v328q0 35 20.5 58.5t51.5 23.5t51.5 -24t20.5 -58v-328z" />
    <glyph glyph-name="daggerdbl" unicode="&#x2021;" 
d="M563 102h-252q-88 0 -88 63.5t88 63.5h252v668h-252q-88 0 -88 63.5t88 63.5h252v328q0 35 20.5 58.5t51.5 23.5t51.5 -24t20.5 -58v-328h251q88 0 88.5 -63.5t-88.5 -63.5h-251v-668h251q88 0 88.5 -63.5t-88.5 -63.5h-251v-327q0 -35 -20.5 -58.5t-51.5 -23.5
t-51.5 23.5t-20.5 58.5v327z" />
    <glyph glyph-name="bullet" unicode="&#x2022;" 
d="M866 614.5q0 -94.5 -64.5 -159t-158.5 -64.5t-158.5 64.5t-64.5 159t64.5 159t158.5 64.5t158.5 -64.5t64.5 -159z" />
    <glyph glyph-name="ellipsis" unicode="&#x2026;" 
d="M930 147.5q0 63.5 42 105.5t105.5 42t105.5 -42t42 -105.5t-42 -105.5t-105.5 -42t-105.5 42t-42 105.5zM487 147.5q0 63.5 42 105.5t105.5 42t105.5 -42t42 -105.5t-42 -105.5t-105.5 -42t-105.5 42t-42 105.5zM45 147.5q0 63.5 42 105.5t105.5 42t105.5 -42t42 -105.5
t-42 -105.5t-105.5 -42t-105.5 42t-42 105.5z" />
    <glyph glyph-name="uni202F" unicode="&#x202f;" horiz-adv-x="403" 
 />
    <glyph glyph-name="perthousand" unicode="&#x2030;" 
d="M784 256q0 -80 44 -127t122 -47t122 47t44 127t-44 127t-122 47t-122 -47t-44 -127zM678 256q0 80 -44 127t-122 47t-122 -47t-44 -127t44 -127t122 -47t122 47t44 127zM154 1175.5q0 -79.5 44 -125.5t123.5 -46t126 46t46.5 125.5t-46.5 128t-126 48.5t-123.5 -48.5
t-44 -128zM1073 1112q51 0 51 -55q0 -35 -47 -60l-930 -481q-20 -12 -45 -12q-51 0 -51 55q0 34 47 59l930 482q20 12 45 12zM47 1177q0 116 78 196.5t198 80.5t198.5 -81t78.5 -197t-79 -195.5t-199 -79.5t-197.5 80t-77.5 196zM240 256q0 117 75.5 196.5t206.5 79.5
t209 -108q78 108 209 108t207 -79.5t76 -196.5t-76 -196.5t-207 -79.5t-209 108q-78 -108 -209 -108t-206.5 79.5t-75.5 196.5z" />
    <glyph glyph-name="guilsinglleft" unicode="&#x2039;" 
d="M315 534q0 28 29 56l377 381q25 25 53 25t45 -16.5t17 -44.5t-23 -50l-334 -350l334 -351q23 -22 23 -50t-17 -44t-45 -16t-53 24l-377 381q-29 27 -29 55z" />
    <glyph glyph-name="guilsinglright" unicode="&#x203a;" 
d="M434 134q0 28 23 50l334 351l-334 350q-23 23 -23 51t16.5 43.5t45.5 15.5t53 -24l377 -381q29 -28 29 -56t-29 -55l-377 -381q-25 -24 -53 -24t-45 16t-17 44z" />
    <glyph glyph-name="fraction" unicode="&#x2044;" 
d="M1070 1071q20 0 35 -18.5t15 -44.5t-33 -50l-860 -602q-23 -14 -43 -14t-35.5 19t-15.5 45t33 49l860 600q24 16 44 16z" />
    <glyph glyph-name="uni205F" unicode="&#x205f;" horiz-adv-x="503" 
 />
    <glyph glyph-name="Euro" unicode="&#x20ac;" 
d="M170 942h84v14q0 231 128 364.5t341 133.5q256 0 385 -213q14 -23 14 -47t-19 -40.5t-51 -16.5t-59 41q-51 80 -109.5 114.5t-160.5 34.5q-164 0 -243 -97t-79 -259v-29h375q88 0 88 -63.5t-88 -63.5h-375v-197h375q88 0 88 -63t-88 -63h-375v-29q0 -162 79 -259.5
t243 -97.5q102 0 160.5 35t109.5 115q27 41 60 41t51 -17.5t18 -41.5t-14 -45q-129 -213 -385 -213q-213 0 -341 133t-128 364v15h-84q-88 0 -88 63t88 63h84v197h-84q-88 0 -88 63.5t88 63.5z" />
    <glyph glyph-name="trademark" unicode="&#x2122;" 
d="M1198 1384v-636q0 -51 -47 -51.5t-47 51.5v456l-123 -237q-14 -27 -45 -27t-45 27l-123 237v-456q0 -51 -47 -51.5t-47 51.5v636q0 49 45 50q27 0 41 -25l176 -340l176 340q14 25 36 25t36 -13.5t14 -36.5zM100 1434h418q47 0 47 -41t-47 -41h-162v-604q0 -51 -47 -51.5
t-47 51.5v604h-162q-47 0 -47 41t47 41z" />
    <glyph glyph-name="partialdiff" unicode="&#x2202;" 
d="M678 922q-180 0 -292 -146t-112 -320t72 -264t199 -90q180 0 290.5 142.5t110.5 328.5q0 349 -268 349zM727 1454q416 0 416 -614q0 -325 -96.5 -515t-218 -267.5t-283.5 -77.5q-207 0 -312.5 133t-105.5 327q0 248 153.5 426t411.5 178q113 0 195 -49t112 -141
q0 215 -63.5 346t-190.5 131q-72 0 -129 -35.5t-83 -97.5t-74 -61q-31 0 -51.5 21.5t-20.5 45.5t8 41q96 209 332 209z" />
    <glyph glyph-name="product" unicode="&#x220f;" 
d="M819 100v1194h-368v-1194q0 -100 -76 -100t-76 100v1194h-119q-92 0 -92 70t92 70h910q92 0 92 -70t-92 -70h-119v-1194q0 -100 -76 -100t-76 100z" />
    <glyph glyph-name="summation" unicode="&#x2211;" 
d="M125 1358q0 31 27.5 53.5t72.5 22.5h705q51 0 75.5 -14.5t24.5 -57.5t-23.5 -55.5t-76.5 -12.5h-625l359 -665q20 -35 20 -68t-20 -67l-359 -666h707q53 0 76.5 -12.5t23.5 -55.5t-24.5 -57t-75.5 -14h-787q-45 0 -72.5 22.5t-27.5 53.5t18 59l398 737l-398 737
q-18 29 -18 60z" />
    <glyph glyph-name="minus" unicode="&#x2212;" 
d="M289 680h737q88 0 88 -63.5t-88 -63.5h-737q-88 0 -88 63.5t88 63.5z" />
    <glyph glyph-name="radical" unicode="&#x221a;" 
d="M166 512q-82 0 -82 61.5t82 61.5h174q57 0 70 -49l133 -498l456 1327q18 51 64 51q57 0 57 -61q0 -12 -6 -31l-520 -1497q-16 -49 -59 -49t-56 49l-174 635h-139z" />
    <glyph glyph-name="infinity" unicode="&#x221e;" 
d="M676 612q0 -88 47 -145t140 -57t141.5 57t48.5 145t-48.5 145.5t-141.5 57.5t-140 -57.5t-47 -145.5zM217 612q0 -88 47.5 -145t141.5 -57t141 57t47 145t-47 145.5t-140 57.5t-141.5 -57.5t-48.5 -145.5zM129 612.5q0 120.5 78 203.5t211 83t217 -117q84 117 217 117
t211 -83t78 -203.5t-78 -203.5t-211 -83t-217 116q-84 -116 -217 -116t-211 83t-78 203.5z" />
    <glyph glyph-name="integral" unicode="&#x222b;" 
d="M487 -51v1145q0 172 89.5 266t234.5 94q106 0 185 -52t112 -149q4 -9 4 -33t-18 -40.5t-52 -16.5t-53 45q-49 123 -172 123q-186 0 -186 -256v-1145q0 -172 -89 -266t-235 -94q-106 0 -185 52t-112 149q-4 9 -4 33t18.5 40.5t52.5 16.5t52 -45q49 -123 172 -123
q186 0 186 256z" />
    <glyph glyph-name="approxequal" unicode="&#x2248;" 
d="M252 723q-56 -1 -55 59q0 28 28 58q84 84 213 84q90 0 209 -57.5t191 -57.5t129 53q29 25 53 25t39.5 -15.5t15.5 -44.5t-28 -57q-84 -84 -213 -84q-92 0 -211 57.5t-190 57.5t-128 -53q-27 -25 -53 -25zM252 344q-56 0 -55 60q0 28 28 57q84 84 213 84q90 0 209 -57.5
t191 -57.5t129 53q29 25 53 25t39.5 -16t15.5 -44t-28 -57q-84 -84 -213 -84q-92 0 -211 57.5t-190 57.5t-128 -53q-27 -25 -53 -25z" />
    <glyph glyph-name="notequal" unicode="&#x2260;" 
d="M289 537h221l147 262h-368q-88 0 -88 63.5t88 63.5h440l164 288q31 55 72 56q59 0 59 -60q0 -23 -20 -59l-127 -225h149q88 0 88 -63.5t-88 -63.5h-221l-152 -262h373q88 0 88 -63.5t-88 -63.5h-442l-162 -289q-31 -55 -72 -55q-59 0 -59 59q0 23 20 59l129 226h-151
q-88 0 -88 63.5t88 63.5z" />
    <glyph glyph-name="lessequal" unicode="&#x2264;" 
d="M1028 1371q0 -28 -39 -56l-581 -397l581 -398q39 -29 39 -56t-15.5 -42.5t-37.5 -15.5t-57 20l-644 436q-31 23 -31 55.5t31 55.5l644 436q65 37 87.5 13.5t22.5 -51.5zM266 127h738q88 0 88 -63.5t-88 -63.5h-738q-88 0 -88 63.5t88 63.5z" />
    <glyph glyph-name="greaterequal" unicode="&#x2265;" 
d="M1028 917.5q0 -32.5 -31 -55.5l-643 -436q-36 -20 -58 -20t-37 15t-15 43t39 56l581 398l-581 397q-39 29 -39 56t22.5 51t87.5 -13l643 -436q31 -23 31 -55.5zM266 127h738q88 0 88 -63.5t-88 -63.5h-738q-88 0 -88 63.5t88 63.5z" />
    <glyph glyph-name="lozenge" unicode="&#x25ca;" 
d="M246 717l377 -557l376 557l-376 557zM622.5 1434q26.5 0 51.5 -33l448 -635q34 -55 0 -98l-448 -635q-25 -33 -51.5 -33t-51.5 33l-448 635q-18 25 -18 47t18 51l448 635q25 33 51.5 33z" />
    <glyph glyph-name="uniE000" unicode="&#xe000;" horiz-adv-x="1025" 
d="M0 1025h1025v-1025h-1025v1025z" />
    <glyph glyph-name="uniFB01" unicode="&#xfb01;" 
d="M1018 963v-873q0 -90 -72 -90t-72 90v811h-417v-811q0 -90 -72 -90t-72 90v811h-133q-88 0 -88 61.5t88 61.5h133v70q0 172 93.5 266t257.5 94t288 -98q35 -29 35 -59t-17.5 -46t-45.5 -16t-47 18q-98 78 -205 78q-215 0 -215 -256v-51h495q66 0 66 -61z" />
    <glyph glyph-name="uniFB02" unicode="&#xfb02;" 
d="M662 1434h290q66 0 66 -62v-1282q0 -90 -72 -90t-72 90v1221h-217q-96 0 -148 -57.5t-52 -194.5v-35h155q86 0 86 -61.5t-86 -61.5h-155v-811q0 -90 -72 -90t-72 90v811h-133q-88 0 -88 61.5t88 61.5h133v41q0 193 96.5 281t252.5 88z" />
    <glyph glyph-name="NULL" 
 />
    <glyph glyph-name="CR.001" horiz-adv-x="681" 
 />
    <glyph glyph-name="apple" 
d="M1153 104v844q-76 -123 -200 -199.5t-273 -89.5v-417zM117 948v-844l473 138v417q-150 12 -274.5 89t-198.5 200zM680 1370v-620q190 16 324.5 153t146.5 330zM590 750v620l-471 -137q12 -193 146.5 -330t324.5 -153zM1241 1264v-1219q0 -18 -13.5 -31.5t-25.5 -13.5
t-20 2l-547 158l-547 -158q-8 -2 -20 -2t-25.5 13.5t-13.5 31.5v1219q0 35 32 45l553 159q23 8 41 0l553 -159q33 -10 33 -45z" />
    <glyph glyph-name="arrow.right" 
d="M794 213q-26 0 -40.5 15.5t-14.5 34.5t33 59l213 237h-774q-78 0 -78 53.5t78 53.5h774l-213 237q-33 39 -33 59t14.5 35t41.5 15t51 -31l262 -295q35 -41 35 -73.5t-35 -73.5l-262 -295q-26 -31 -52 -31z" />
    <glyph glyph-name="arrow.left" 
d="M133 612.5q0 32.5 35 73.5l262 295q26 31 52 31t40.5 -15.5t14.5 -34.5t-33 -59l-213 -237h774q78 0 78 -53.5t-78 -53.5h-774l213 -237q33 -38 33 -58t-14.5 -35.5t-40.5 -15.5t-52 31l-262 295q-35 41 -35 73.5z" />
    <glyph glyph-name="arrow.up" 
d="M986 715q-20 0 -58 33l-238 213v-775q0 -78 -53 -77.5t-53 77.5v775l-238 -213q-39 -33 -58 -33t-34.5 14t-15.5 41t30 51l295 262q41 35 74 35t74 -35l295 -262q30 -25 30 -51t-15 -40.5t-35 -14.5z" />
    <glyph glyph-name="arrow.down" 
d="M288 512q20 0 58 -33l238 -213v774q0 78 53 78t53 -78v-774l238 213q39 33 58 33t34.5 -14.5t15.5 -40.5t-30 -51l-295 -263q-41 -35 -74 -34.5t-74 34.5l-295 263q-30 26 -30 52t15 40t35 14z" />
    <glyph glyph-name="arrow.ur" 
d="M492 995h399q94 0 94 -94v-399q0 -70 -56 -70t-57 70v307l-540 -543q-37 -33 -60 -33t-39 15.5t-16 40t31 55.5l545 539h-301q-72 0 -72 59q0 53 72 53z" />
    <glyph glyph-name="arrow.ul" 
d="M311 995h400q72 0 71 -53q0 -59 -71 -59h-301l544 -539q31 -31 31 -55.5t-16.5 -40t-38.5 -15.5t-60 33l-540 543v-307q0 -70 -56 -70t-57 70v399q0 94 94 94z" />
    <glyph glyph-name="arrow.dl" 
d="M711 233h-400q-94 0 -94 95v399q0 70 56 70t57 -70v-307l540 543q60 54 87.5 28t27.5 -51t-31 -55l-544 -539h301q72 0 71 -59q1 -54 -71 -54z" />
    <glyph glyph-name="arrow.dr" 
d="M891 233h-399q-72 0 -72 54q0 59 72 59h301l-545 539q-31 31 -31 55.5t16.5 39.5t38.5 15t60 -32l540 -543v307q0 70 56 70t57 -70v-399q0 -95 -94 -95z" />
  </font>
</defs>
</svg>
