<?xml version="1.0" encoding="utf-8"?>
<!-- Generator: Adobe Illustrator 18.1.1, SVG Export Plug-In . SVG Version: 6.00 Build 0)  -->
<svg version="1.1" id="Layer_1" xmlns="http://www.w3.org/2000/svg" xmlns:xlink="http://www.w3.org/1999/xlink" x="0px" y="0px"
	 viewBox="-279 358.8 52.3 76.2" enable-background="new -279 358.8 52.3 76.2" xml:space="preserve">
<path id="about.svg" fill="#FFFFFF" d="M-235.6,364.9c0,0,0.1-1.2,2.3-1.8c-2.1-1-3.9,1.3-3.9,1.3l-3.2-0.8c-0.5-1.1-0.1-2.4,1-2.9
	c0.2-0.1,0.4-0.2,0.6-0.2c-1.9-1.1-3.8,2.1-3.8,2.1s-3.7-5-4.8-3.5c1.2,0.4,1.8,1.7,1.4,2.9c0,0,0,0,0,0c0,0-26.6-8.1-33,15.8
	c1.7-2.8,2.2-2.2,2.2-2.2s-2.3,14.8,0.9,24.4l1.3,1.4c-0.8-3.4-0.8-7-0.1-10.5c0.8-3.4,4.2-6,4.6-7.8c0.7-4-0.8-8,3.8-10.9
	s11.7,0.9,14.4,0.7s8.8-4.2,13.3-1.8c4.9,2.6,3.2,10.5,3.4,11.6c0.3,1.4,2.3,2.9,3.6,5.3s-0.5,14.6-0.5,14.6c0.5,0.2,1-0.1,1.2-0.5
	c0.6-0.8,3.1-21.9,2.9-22.6s0.2-1.8,1.2-0.5C-225.9,371.2-235.6,364.9-235.6,364.9z M-234.8,408.6c-0.5,2.4-3.8,9.7-5,10.5
	s-8.8-3.7-11.3-3.8s-9.5,2.6-11,1.9s-12.1-16.4-12.7-14.5s3.6,8.2,3.8,9.6s0.1,3.2,1.4,4.9s4.1,5.1,5.8,7.3c0-1.8,0.7-1.7,0.7-1.7
	s5.5,7.4,7,6.4c-1.7-1.1-1-2.1-1-2.1s4.1,7.6,5.4,7.9s6-8.1,6-8.1s1.2,1.8,0,2.9c1.7,0.1,8.3-6.4,10.7-11.4s3.4-14.3,3.4-14.3
	S-234.3,406.2-234.8,408.6z M-257.5,399.9c2.1-1.5,2.8-7.7,3-9.5c0-0.3-0.1-0.6-0.3-0.8c-0.2-0.2-0.5-0.4-0.8-0.4h-14.8
	c-0.3,0-0.6,0.1-0.8,0.4c-0.2,0.2-0.3,0.5-0.3,0.8c0.2,1.8,0.9,7.9,3,9.5c1.6,1.2,4.4,1.3,5.6,1.3S-259.1,401-257.5,399.9
	L-257.5,399.9z M-257,391.4c-0.4,3-1.2,6.1-1.9,6.7c-2.7,1.1-5.6,1.1-8.3,0c-0.8-0.6-1.6-3.7-1.9-6.7H-257L-257,391.4z
	 M-237.2,399.9c2.1-1.5,2.8-7.7,3-9.5c0-0.3-0.1-0.6-0.3-0.8c-0.2-0.2-0.5-0.4-0.8-0.4h-14.8c-0.3,0-0.6,0.1-0.8,0.4
	c-0.2,0.2-0.3,0.5-0.3,0.8c0.2,1.8,0.9,7.9,3,9.5c1.6,1.2,4.4,1.3,5.5,1.3S-238.8,401-237.2,399.9L-237.2,399.9z M-236.6,391.4
	c-0.4,3-1.2,6.1-1.9,6.7c-2.7,1.1-5.6,1.1-8.3,0c-0.8-0.6-1.6-3.7-1.9-6.7H-236.6L-236.6,391.4z M-249,392.4c0-0.6-0.5-1.1-1.2-1.1
	h-5.4c-0.6,0-1.1,0.5-1.2,1.1c0,0.6,0.5,1.1,1.1,1.2c0,0,0.1,0,0.1,0h5.4C-249.6,393.5-249.1,393-249,392.4z"/>
</svg>
