<?xml version="1.0" encoding="utf-8"?>
<!-- Generator: Adobe Illustrator 18.1.1, SVG Export Plug-In . SVG Version: 6.00 Build 0)  -->
<svg version="1.1" id="Capa_1" xmlns="http://www.w3.org/2000/svg" xmlns:xlink="http://www.w3.org/1999/xlink" x="0px" y="0px"
	 viewBox="-49 141 512 512" enable-background="new -49 141 512 512" xml:space="preserve">
<g>
	<g>
		<path fill="#FFFFFF" d="M207,141C65.6,141-49,255.6-49,397S65.6,653,207,653s256-114.6,256-256S348.4,141,207,141z M207,613
			C87.7,613-9,516.3-9,397s96.7-216,216-216s216,96.7,216,216S326.3,613,207,613z"/>
		<g>
			<g>
				<path fill="#FFFFFF" d="M193.5,333.7c4.7,6.6,7.1,14.5,7.1,23.8c0,9.5-2.4,17.2-7.2,23c-2.7,3.2-6.6,6.2-11.8,8.9
					c7.9,2.9,13.8,7.5,17.8,13.8c4,6.3,6,13.9,6,22.9c0,9.3-2.3,17.5-6.9,24.9c-2.9,4.9-6.5,9-10.9,12.3c-4.9,3.8-10.8,6.4-17.4,7.8
					c-6.7,1.4-14,2.1-21.8,2.1H79V317h74.6C172.4,317.3,185.7,322.8,193.5,333.7z M109.8,344.1v34.4h37.5c6.7,0,12.1-1.3,16.3-3.8
					c4.1-2.6,6.3-7.2,6.3-13.7c0-7.3-2.8-12-8.3-14.4c-4.8-1.6-10.9-2.4-18.2-2.4H109.8z M109.8,404.4V446h37.4
					c6.7,0,11.9-1,15.6-2.8c6.8-3.4,10.2-9.9,10.2-19.5c0-8.1-3.3-13.7-9.8-16.7c-3.7-1.7-8.8-2.6-15.4-2.6H109.8z"/>
				<path fill="#FFFFFF" d="M305.2,360c8,3.6,14.5,9.3,19.8,17.1c4.6,6.9,7.7,14.8,9.1,23.9c0.8,5.3,1.1,12.9,1,22.9h-83.1
					c0.5,11.6,4.5,19.7,12,24.4c4.5,2.9,10,4.3,16.4,4.3c6.8,0,12.3-1.8,16.5-5.3c2.3-1.9,4.4-4.5,6.2-7.9h30.4
					c-0.8,6.8-4.5,13.8-11.1,20.9c-10.2,11.2-24.5,16.8-42.9,16.8c-15.2,0-28.5-4.7-40.2-14.2c-11.6-9.5-17.4-24.9-17.4-46.2
					c0-20,5.2-35.3,15.7-46c10.5-10.7,24-16,40.8-16C288.3,354.6,297.2,356.4,305.2,360z M260.6,386.1c-4.2,4.4-6.8,10.4-7.9,17.9
					H304c-0.5-8-3.2-14.1-8-18.3c-4.7-4.1-10.6-6.2-17.7-6.2C270.7,379.5,264.8,381.7,260.6,386.1z"/>
			</g>
			<rect x="239" y="333" fill="#FFFFFF" width="80" height="16"/>
		</g>
	</g>
</g>
</svg>
