<svg xmlns="http://www.w3.org/2000/svg" width="227" height="60" viewBox="0 0 227 60">
  <defs>
    <style>
      .cls-1 {
        fill: #fff;
        fill-rule: evenodd;
      }
    </style>
  </defs>
  <path id="connect.svg" class="cls-1" d="M909.231,529.9a6.162,6.162,0,1,0,6.178,6.146A6.147,6.147,0,0,0,909.231,529.9ZM866,494.5v60h227v-60H866Zm28,36.612a6.351,6.351,0,0,0-3.777-1.217,6.162,6.162,0,1,0,.024,12.324A6.309,6.309,0,0,0,894,540.971v6.082a11.434,11.434,0,0,1-3.777.608,11.6,11.6,0,1,1,.024-23.207,11.31,11.31,0,0,1,3.753.576v6.082Zm15.231,16.549a11.6,11.6,0,1,1,11.619-11.62A11.613,11.613,0,0,1,909.231,547.661ZM945,547.5h-6v-6.081l-9-8.963V547.5h-5v-23h5v0.37l9,8.962V524.5h6v23Zm24,0h-6v-6.081l-9-8.963V547.5h-5v-23h5v0.37l9,8.962V524.5h6v23Zm17-18h-8v7h8v4h-8v2h8v5H973v-23h13v5Zm19,1.612a5.869,5.869,0,0,0-3.61-1.217,6.162,6.162,0,0,0-.02,12.324,5.936,5.936,0,0,0,3.63-1.248v6.082a10.441,10.441,0,0,1-3.61.608,11.6,11.6,0,0,1-.02-23.207,10.579,10.579,0,0,1,3.63.576v6.082Zm19-1.612h-5v18h-5v-18h-5v-5h15v5Zm39,18h-5V533.512l-7.5,7.427-7.5-7.427V547.5h-6v-23h5.86l7.52,8.131,7.52-8.131h5.1v23Zm17-18h-7v7h7v4h-7v2h7v5h-13v-23h13v5Z" transform="translate(-866 -494.5)"/>
</svg>
