<svg xmlns="http://www.w3.org/2000/svg" width="66" height="56" viewBox="0 0 66 56"><path fill="#fff" d="M.375 55.392v-55.392h19.73c4.755 0 8.787 1.405 12.097 4.212 3.31 2.808 4.965 6.588 4.965 11.34 0 4.609-1.745 8.354-5.234 11.233-3.489 2.88-7.611 4.319-12.366 4.319l18.748 22.768v1.519h-9.041l-19.414-24.287h-1.519v24.288h-7.966zm7.966-31.883h12.134c2.383 0 4.434-.734 6.15-2.202 1.717-1.468 2.575-3.389 2.575-5.765 0-2.375-.859-4.293-2.575-5.755-1.717-1.462-3.767-2.192-6.15-2.192h-12.134v15.914zM54.285 6.254c2.874 0 5.212 2.338 5.212 5.212s-2.338 5.212-5.212 5.212c-2.874 0-5.212-2.338-5.212-5.212s2.338-5.212 5.212-5.212m0-6.254c-6.332 0-11.466 5.133-11.466 11.466 0 6.332 5.133 11.466 11.466 11.466 6.331 0 11.466-5.133 11.466-11.466-.001-6.333-5.135-11.466-11.466-11.466z"/></svg>